<?xml version="1.0" standalone="no"?><!DOCTYPE svg PUBLIC "-//W3C//DTD SVG 1.1//EN" "http://www.w3.org/Graphics/SVG/1.1/DTD/svg11.dtd"><svg height="1024" legacy-metrics="false" node-id="1" sillyvg="true" template-height="1024" template-width="1024" version="1.1" viewBox="0 0 1024 1024" width="1024" xmlns="http://www.w3.org/2000/svg" xmlns:xlink="http://www.w3.org/1999/xlink"><defs node-id="16"></defs><path d="M 550.00 670.80 L 477.10 670.80 C 430.70 670.80 393.00 719.80 393.00 780.10 L 393.00 844.70 C 471.50 869.30 555.70 869.40 634.20 845.00 L 634.20 780.10 C 634.20 719.80 596.40 670.80 550.00 670.80 L 550.00 670.80 Z" fill="#f4b4b1" fill-rule="nonzero" node-id="18" stroke="none" target-height="192.42499" target-width="241.20001" target-x="393" target-y="670.8"></path><path d="M 425.30 203.30 C 425.30 175.00 432.50 152.00 459.30 152.00 L 564.40 152.00 C 591.30 152.00 600.60 175.00 600.60 203.30 L 600.60 213.40 L 636.20 213.40 L 636.20 136.30 C 636.20 86.10 596.40 45.40 547.50 45.40 L 471.70 45.40 C 422.80 45.40 378.70 86.20 378.70 136.30 L 378.70 213.40 L 425.20 213.40 L 425.20 203.30 Z" fill="#3d5890" fill-rule="nonzero" node-id="20" stroke="none" target-height="168" target-width="257.5" target-x="378.7" target-y="45.4"></path><path d="M 563.90 45.30 C 572.70 50.80 580.40 57.90 586.60 66.20 C 594.70 77.00 598.60 85.50 602.20 100.90 C 611.20 138.70 609.20 200.60 609.20 200.60 L 632.70 200.60 L 632.70 117.30 C 632.70 117.30 619.30 52.70 563.90 45.30 Z" fill="#304e82" fill-rule="nonzero" node-id="22" stroke="none" target-height="155.3" target-width="68.79999" target-x="563.9" target-y="45.3"></path><path d="M 526.30 681.70 L 468.90 681.70 C 432.40 681.70 402.60 727.60 402.60 784.10 L 402.60 844.60 C 463.80 867.70 531.20 867.80 592.50 844.90 L 592.50 784.10 C 592.50 727.60 562.80 681.70 526.30 681.70 Z" fill="#e08476" fill-rule="nonzero" node-id="24" stroke="none" target-height="180.29999" target-width="189.9" target-x="402.6" target-y="681.7"></path><path d="M 412.60 292.00 C 412.60 342.60 487.50 371.80 511.20 371.80 C 535.80 371.80 609.80 343.50 609.80 292.00 L 609.80 265.60 L 622.20 265.60 C 632.90 265.60 641.50 256.90 641.50 246.30 C 641.50 234.90 632.20 225.60 620.80 225.60 L 584.60 225.60 L 584.60 191.20 C 584.60 178.90 574.70 169.00 562.40 169.00 L 460.80 169.00 C 448.50 169.00 438.60 179.00 438.60 191.20 L 438.60 225.70 L 401.40 225.70 C 390.00 225.80 380.80 235.00 380.80 246.40 C 380.80 257.10 389.40 265.70 400.10 265.70 L 412.50 265.70 L 412.60 292.00 Z M 498.80 276.80 C 499.00 277.10 503.90 284.90 512.10 284.90 C 520.40 284.90 525.20 277.10 525.40 276.60 L 546.60 289.50 C 545.30 291.60 533.80 309.60 512.10 309.60 L 511.90 309.60 C 490.30 309.50 478.80 291.60 477.60 289.50 L 498.80 276.80 Z" fill="#f4b4b1" fill-rule="nonzero" node-id="26" stroke="none" target-height="202.79999" target-width="260.7" target-x="380.8" target-y="169"></path><path d="M 997.80 326.30 C 982.60 183.30 861.40 97.20 860.00 96.40 L 859.30 95.90 C 857.40 94.40 811.60 59.40 744.00 95.10 C 736.70 114.70 742.10 136.70 757.70 150.70 L 759.50 152.30 C 764.70 157.00 771.50 159.60 778.50 159.60 L 778.70 159.60 C 830.70 159.30 843.60 131.10 843.70 130.70 L 866.70 140.00 C 866.30 141.00 860.50 154.60 843.40 166.50 L 867.70 196.60 L 868.00 200.50 C 874.70 297.50 908.70 309.10 919.00 310.40 C 934.70 312.40 949.30 319.50 960.60 330.70 L 943.00 348.10 C 935.70 340.80 926.20 336.20 915.90 334.90 C 908.60 333.90 901.60 331.50 895.20 327.70 L 881.00 333.60 C 869.20 338.70 856.30 340.80 843.40 339.80 C 820.40 337.70 789.70 346.20 774.00 397.20 L 750.30 389.90 C 752.70 381.80 755.80 374.00 759.60 366.50 C 713.10 366.80 687.30 383.70 673.70 398.70 C 656.30 418.00 631.60 429.10 605.70 429.40 L 602.90 429.40 L 602.90 404.60 L 605.70 404.60 C 614.20 404.60 622.60 402.80 630.50 399.50 C 616.10 393.20 601.90 382.10 594.40 364.00 C 566.50 385.50 530.90 396.70 511.10 396.70 C 491.30 396.70 456.00 385.60 428.20 364.40 C 420.70 382.30 406.50 393.30 392.30 399.50 C 400.50 403.20 409.40 405.10 418.40 405.10 L 421.20 405.10 L 421.20 429.90 L 418.40 429.90 C 392.40 429.70 367.70 418.50 350.40 399.20 C 336.70 384.20 311.00 367.30 264.50 367.00 C 268.20 374.60 271.40 382.40 273.80 390.50 L 250.10 397.80 C 234.40 346.80 203.70 338.40 180.70 340.40 C 167.90 341.40 155.00 339.30 143.10 334.20 L 128.80 328.30 C 122.50 332.10 115.40 334.50 108.10 335.50 C 97.90 336.70 88.30 341.30 81.00 348.60 L 63.70 331.00 C 74.90 319.80 89.60 312.70 105.30 310.80 C 115.60 309.50 149.50 297.90 156.30 200.90 L 156.60 197.00 L 180.90 166.90 C 163.80 155.00 158.00 141.50 157.60 140.60 L 169.10 135.80 L 180.50 130.90 C 181.00 132.10 193.80 159.60 245.60 159.80 C 252.70 159.90 259.50 157.20 264.80 152.50 L 266.60 151.00 C 282.20 137.00 287.60 115.00 280.30 95.40 C 212.70 59.80 166.90 94.70 165.00 96.30 L 164.30 96.80 C 163.00 97.70 41.70 183.70 26.60 326.70 C 26.30 329.60 25.80 332.70 25.20 336.00 C 23.20 346.70 32.10 355.30 50.10 360.20 L 56.60 362.00 L 58.70 368.40 C 59.00 369.30 90.50 464.40 160.50 499.90 C 191.30 515.50 225.50 517.30 262.20 505.20 L 269.90 528.80 C 261.00 531.70 252.00 534.00 242.80 535.60 C 239.70 571.00 255.60 597.60 270.10 614.10 C 299.90 648.10 320.90 685.80 332.40 726.20 C 339.70 751.90 344.20 793.80 345.80 810.40 C 356.30 815.50 367.00 820.00 377.80 824.10 L 377.80 776.50 C 377.80 710.60 422.90 656.90 478.40 656.90 L 544.00 656.90 C 599.50 656.90 644.60 710.60 644.60 776.50 L 644.60 824.50 C 655.80 820.30 666.90 815.60 677.70 810.40 C 677.80 774.60 685.70 747.40 691.00 728.90 L 691.90 725.80 C 703.50 685.40 724.40 647.70 754.20 613.70 C 764.20 602.30 776.90 583.60 780.70 559.10 C 781.90 551.20 782.20 543.10 781.50 535.10 C 772.30 533.50 763.20 531.20 754.40 528.30 L 762.20 504.80 C 798.90 516.90 833.20 515.10 864.00 499.40 C 934.00 463.80 965.30 369.00 965.70 368.00 L 967.80 361.60 L 974.30 359.80 C 992.30 354.90 1001.20 346.30 999.20 335.60 C 998.40 332.20 998.00 329.20 997.80 326.30 L 997.80 326.30 Z M 193.50 468.30 C 178.10 468.40 162.90 464.50 149.50 456.90 C 108.50 433.60 95.40 383.00 94.90 380.90 L 106.90 377.90 L 118.90 374.90 C 119.00 375.30 130.10 417.50 161.80 435.50 C 178.20 444.80 197.80 446.10 220.20 439.40 L 227.30 463.20 C 216.40 466.40 205.00 468.20 193.50 468.30 Z M 628.40 545.10 C 637.20 545.10 644.30 552.20 644.30 561.00 C 644.30 569.80 637.20 576.90 628.40 576.90 C 619.60 576.90 612.50 569.80 612.50 561.00 C 612.50 561.00 612.50 561.00 612.50 561.00 C 612.50 552.30 619.60 545.10 628.40 545.10 Z M 402.30 545.10 C 411.10 545.10 418.20 552.20 418.30 561.00 C 418.40 569.80 411.20 576.90 402.40 577.00 C 393.60 577.00 386.50 569.90 386.40 561.10 C 386.40 561.10 386.40 561.10 386.40 561.10 C 386.40 552.30 393.50 545.10 402.30 545.10 Z M 757.40 483.40 C 742.40 485.80 729.50 495.50 722.90 509.30 L 684.70 593.50 C 676.10 612.30 657.40 624.50 636.70 624.50 L 577.40 624.50 C 554.80 624.50 520.60 610.30 511.30 587.60 C 502.30 610.70 468.90 625.00 446.90 625.00 L 387.60 625.00 C 366.90 625.00 348.10 612.80 339.60 594.00 L 301.50 509.80 C 295.00 496.10 282.10 486.40 267.10 483.90 C 257.00 482.10 247.50 478.10 239.20 472.20 L 254.80 452.90 C 259.90 456.20 265.60 458.50 271.50 459.60 C 294.60 463.50 314.30 478.40 324.10 499.60 L 362.40 583.80 C 367.00 593.80 376.90 600.20 387.90 600.20 L 447.00 600.20 C 462.60 600.20 486.90 588.10 488.70 576.80 L 499.00 514.90 L 510.70 516.80 L 523.50 514.70 L 533.80 576.60 C 535.70 587.70 561.00 599.70 577.40 599.70 L 636.70 599.70 C 647.70 599.70 657.60 593.30 662.20 583.30 L 700.50 499.10 C 710.40 477.90 730.10 463.00 753.20 459.10 C 759.20 458.00 764.90 455.70 769.90 452.40 L 785.40 471.80 C 777.00 477.70 767.50 481.70 757.40 483.40 L 757.40 483.40 Z M 872.90 457.40 C 859.50 465.00 844.30 469.00 828.90 468.90 C 817.40 468.80 806.00 467.00 795.00 463.60 L 802.10 439.80 C 824.40 446.50 844.10 445.20 860.50 435.90 C 892.30 417.90 903.30 375.70 903.40 375.30 L 927.40 381.30 C 927.00 383.50 914.00 434.10 872.90 457.40 Z" fill="#f4b4b1" fill-rule="nonzero" node-id="28" stroke="none" target-height="745.3822" target-width="974.5278" target-x="24.936113" target-y="79.11777"></path><path d="M 808.40 625.30 C 785.70 650.90 767.60 680.10 754.80 711.80 L 777.80 721.00 C 789.50 692.00 806.20 665.10 827.00 641.70 C 839.20 627.80 854.70 604.90 859.40 574.60 L 834.90 570.80 C 831.20 595.30 818.40 613.90 808.40 625.30 L 808.40 625.30 Z M 745.20 740.50 C 740.30 757.30 733.70 780.30 732.20 810.30 L 757.00 811.50 C 758.40 784.40 764.30 763.80 769.00 747.30 L 769.90 744.10 L 746.10 737.30 L 745.20 740.50 Z" fill="#122546" fill-rule="nonzero" node-id="30" stroke="none" target-height="240.70001" target-width="127.20001" target-x="732.2" target-y="570.8"></path><path d="M 161.90 435.30 C 130.10 417.30 119.10 375.10 119.00 374.70 L 107.00 377.70 L 95.00 380.70 C 95.50 382.80 108.60 433.40 149.60 456.70 C 163.00 464.30 178.20 468.30 193.60 468.20 C 205.10 468.10 216.50 466.40 227.50 463.00 L 220.40 439.30 C 198.00 445.90 178.30 444.60 161.90 435.30 L 161.90 435.30 Z M 860.50 435.90 C 844.10 445.20 824.50 446.50 802.10 439.80 L 795.00 463.60 C 806.00 467.00 817.40 468.80 828.90 468.90 C 844.30 469.00 859.50 465.10 872.90 457.40 C 913.90 434.10 927.00 383.50 927.50 381.40 L 903.40 375.40 C 903.40 375.70 892.40 417.90 860.50 435.90 L 860.50 435.90 Z" fill="#e08476" fill-rule="nonzero" node-id="32" stroke="none" target-height="94.19998" target-width="832.5" target-x="95" target-y="374.7"></path><path d="M 1022.30 323.70 C 1013.80 242.80 974.00 179.90 942.10 141.30 C 909.00 101.30 878.00 79.00 874.40 76.40 C 868.70 71.90 810.30 29.60 728.20 75.50 L 724.70 77.40 L 723.00 81.00 C 709.00 111.20 716.40 147.00 741.10 169.20 L 742.90 170.80 C 752.70 179.50 765.30 184.40 778.40 184.40 L 778.70 184.40 C 792.90 184.50 807.00 182.30 820.50 177.90 L 843.40 206.20 C 847.50 259.60 860.40 290.90 874.70 309.50 L 871.40 310.90 C 863.20 314.40 854.30 315.90 845.40 315.20 C 819.20 312.70 793.40 322.70 775.90 342.30 C 710.90 338.20 674.90 360.90 656.00 381.40 C 645.10 379.70 619.40 372.90 614.70 344.90 C 626.70 330.30 634.70 312.70 634.70 292.30 L 634.70 288.80 C 653.50 283.30 666.40 266.00 666.40 246.50 C 666.40 236.40 663.00 226.60 656.70 218.60 L 656.70 136.30 C 656.70 76.70 607.10 28.10 546.20 28.10 L 473.00 28.10 C 412.00 28.10 362.40 76.60 362.40 136.30 L 362.40 223.30 C 358.20 230.30 356.00 238.30 356.00 246.50 C 356.00 266.10 368.90 283.30 387.70 288.80 L 387.70 292.20 C 387.70 312.90 395.80 330.60 408.10 345.40 C 403.20 372.40 378.90 379.50 367.50 381.30 C 348.50 361.10 312.50 338.80 248.10 342.80 C 230.50 323.30 204.70 313.30 178.60 315.80 C 169.70 316.50 160.80 315.00 152.60 311.50 L 149.30 310.10 C 163.60 291.70 176.40 260.30 180.70 206.80 L 203.60 178.50 C 217.10 182.90 231.20 185.10 245.40 185.00 C 258.60 185.00 271.40 180.20 281.20 171.40 L 283.00 169.80 C 307.80 147.60 315.10 111.80 301.10 81.60 L 299.40 78.00 L 295.90 76.00 C 213.80 30.10 155.40 72.40 149.70 76.90 C 146.00 79.50 115.10 101.90 82.10 141.90 C 50.20 180.30 10.40 243.30 1.90 324.10 C 1.70 326.40 1.30 328.90 0.80 331.60 C -2.50 349.30 5.80 371.30 37.30 382.20 C 45.90 405.50 80.20 486.90 149.10 521.90 C 169.60 532.50 192.40 538.00 215.50 537.90 L 217.70 537.90 C 215.50 579.60 234.20 610.90 251.40 630.50 C 278.80 661.70 298.00 696.20 308.50 733.00 C 316.90 762.50 321.60 818.80 321.70 819.40 L 322.30 826.30 L 328.50 829.40 C 384.20 857.60 445.60 872.60 508.00 873.20 L 511.70 873.20 C 575.70 873.10 638.90 857.90 695.90 828.80 L 702.90 825.20 L 702.70 817.40 C 701.70 781.60 709.30 754.90 714.90 735.50 L 715.80 732.30 C 726.30 695.50 745.60 661.00 772.90 629.80 C 785.10 615.90 800.60 593.00 805.30 562.70 C 806.60 554.30 807.00 545.70 806.60 537.20 L 808.80 537.20 C 831.90 537.20 854.70 531.70 875.20 521.20 C 944.10 486.20 978.50 404.80 987.00 381.50 C 1018.50 370.60 1026.70 348.60 1023.50 330.90 C 1022.90 328.40 1022.60 325.90 1022.30 323.70 L 1022.30 323.70 Z M 387.30 136.10 C 387.30 90.10 425.80 52.70 473.10 52.70 L 546.30 52.70 C 593.60 52.70 632.00 90.10 632.00 136.10 L 632.00 200.60 L 609.50 200.60 L 609.50 191.30 C 609.50 165.40 588.50 144.30 562.50 144.30 L 460.80 144.30 C 434.90 144.30 413.80 165.40 413.80 191.30 L 413.80 200.60 L 387.20 200.60 L 387.30 136.10 Z M 400.20 265.60 C 389.50 265.60 380.90 256.90 380.90 246.30 C 380.90 234.90 390.10 225.70 401.50 225.60 L 438.70 225.60 L 438.70 191.20 C 438.70 178.90 448.60 169.00 460.90 169.00 L 562.60 169.00 C 574.90 169.00 584.80 179.00 584.80 191.20 L 584.80 225.70 L 621.00 225.70 C 632.40 225.70 641.70 235.00 641.70 246.40 C 641.70 257.10 633.00 265.70 622.40 265.70 L 610.00 265.70 L 610.00 292.10 C 610.00 343.60 535.90 371.90 511.40 371.90 C 487.60 371.90 412.80 342.70 412.80 292.10 L 412.80 265.60 L 400.20 265.60 Z M 619.80 832.70 C 548.90 853.90 473.40 853.80 402.60 832.50 L 402.60 776.50 C 402.60 724.20 436.60 681.70 478.40 681.70 L 544.00 681.70 C 585.80 681.70 619.80 724.20 619.80 776.50 L 619.80 832.70 Z M 974.10 359.70 L 967.60 361.50 L 965.50 367.90 C 965.20 368.90 933.90 463.70 863.80 499.30 C 833.00 515.00 798.70 516.80 762.00 504.70 L 754.30 528.20 C 763.20 531.20 772.20 533.40 781.40 535.00 C 782.10 543.00 781.90 551.10 780.60 559.00 C 776.80 583.40 764.10 602.20 754.10 613.60 C 724.30 647.60 703.30 685.20 691.80 725.70 L 690.90 728.80 C 685.60 747.30 677.70 774.50 677.60 810.30 C 666.80 815.50 655.80 820.30 644.50 824.40 L 644.50 776.50 C 644.50 710.60 599.40 656.90 543.90 656.90 L 478.20 656.90 C 422.80 656.90 377.60 710.60 377.60 776.50 L 377.60 824.20 C 366.70 820.10 356.00 815.60 345.60 810.50 C 344.00 794.00 339.50 751.90 332.20 726.30 C 320.60 685.90 299.70 648.20 269.90 614.20 C 255.40 597.70 239.50 571.00 242.60 535.70 C 251.80 534.10 260.90 531.80 269.70 528.90 L 261.90 505.30 C 225.20 517.40 191.00 515.60 160.20 500.00 C 90.50 464.40 59.00 369.40 58.70 368.40 L 56.60 362.00 L 50.10 360.20 C 32.10 355.30 23.20 346.70 25.20 336.00 C 25.80 332.70 26.30 329.60 26.60 326.70 C 41.70 183.80 163.00 97.80 164.20 96.90 L 164.90 96.40 C 166.80 94.90 212.70 59.90 280.20 95.50 C 287.50 115.10 282.10 137.10 266.50 151.10 L 264.70 152.60 C 259.50 157.40 252.60 160.00 245.50 159.90 C 193.80 159.60 180.90 132.10 180.40 131.00 L 169.00 135.80 L 157.50 140.60 C 157.90 141.60 163.70 155.20 180.80 167.10 L 156.50 197.10 L 156.20 201.00 C 149.50 298.00 115.50 309.60 105.20 310.90 C 89.50 312.80 74.80 319.90 63.60 331.10 L 81.10 348.60 C 88.40 341.30 98.00 336.70 108.20 335.50 C 115.50 334.50 122.50 332.10 128.90 328.30 L 143.20 334.20 C 155.00 339.30 167.90 341.40 180.80 340.40 C 203.80 338.30 234.50 346.80 250.20 397.80 L 273.90 390.50 C 271.50 382.40 268.30 374.60 264.60 367.00 C 311.10 367.30 336.90 384.20 350.50 399.20 C 367.90 418.50 392.60 429.60 418.50 429.90 L 421.30 429.90 L 421.30 405.10 L 418.50 405.10 C 409.50 405.10 400.60 403.20 392.40 399.50 C 406.70 393.30 420.80 382.20 428.30 364.40 C 456.10 385.70 491.50 396.70 511.20 396.70 C 530.90 396.70 566.60 385.50 594.50 364.00 C 602.00 382.10 616.20 393.20 630.60 399.50 C 622.70 402.80 614.30 404.50 605.80 404.60 L 603.00 404.60 L 603.00 429.40 L 605.80 429.40 C 631.80 429.20 656.50 418.00 673.80 398.70 C 687.50 383.70 713.20 366.90 759.70 366.50 C 756.00 374.00 752.90 381.90 750.40 389.90 L 774.10 397.20 C 789.80 346.20 820.50 337.80 843.50 339.80 C 856.30 340.80 869.20 338.70 881.10 333.60 L 895.30 327.70 C 901.60 331.50 908.70 333.90 916.00 334.90 C 926.20 336.10 935.80 340.70 943.10 348.00 L 960.60 330.50 C 949.40 319.30 934.70 312.20 919.00 310.30 C 908.70 309.00 874.80 297.40 868.00 200.40 L 867.70 196.50 L 843.40 166.40 C 860.50 154.50 866.30 140.90 866.70 139.90 L 843.70 130.60 C 843.60 130.90 830.70 159.10 778.70 159.50 L 778.50 159.50 C 771.50 159.50 764.70 156.90 759.50 152.20 L 757.70 150.60 C 742.10 136.70 736.70 114.60 744.00 95.00 C 811.60 59.40 857.40 94.30 859.30 95.80 L 860.00 96.30 C 861.30 97.00 982.50 183.10 997.70 326.00 C 998.00 328.90 998.50 332.00 999.10 335.30 C 1001.00 346.30 992.10 354.90 974.10 359.70 L 974.10 359.70 Z" fill="#122546" fill-rule="nonzero" node-id="34" stroke="none" target-height="845.10004" target-width="1023.9161" target-x="0.17459346" target-y="28.1"></path><path d="M 753.00 459.00 C 729.90 462.90 710.20 477.80 700.30 499.00 L 662.00 583.20 C 657.50 593.20 647.50 599.60 636.50 599.60 L 577.20 599.60 C 560.80 599.60 535.50 587.70 533.60 576.50 L 523.30 514.60 L 510.50 516.70 L 498.80 514.80 L 488.50 576.70 C 486.60 588.00 462.40 600.10 446.80 600.10 L 387.50 600.10 C 376.50 600.10 366.60 593.70 362.00 583.70 L 323.80 499.50 C 313.90 478.30 294.20 463.30 271.20 459.50 C 265.20 458.40 259.50 456.10 254.50 452.80 L 238.90 472.10 C 247.20 478.00 256.70 482.00 266.80 483.80 C 281.90 486.20 294.80 495.90 301.30 509.70 L 339.50 594.00 C 348.10 612.80 366.80 625.00 387.50 625.00 L 446.80 625.00 C 468.70 625.00 502.20 610.60 511.20 587.60 C 520.50 610.30 554.60 624.50 577.30 624.50 L 636.60 624.50 C 657.30 624.50 676.10 612.30 684.60 593.50 L 722.70 509.20 C 729.20 495.50 742.10 485.80 757.10 483.30 C 767.10 481.50 776.70 477.50 785.00 471.60 L 769.50 452.20 C 764.70 455.60 759.00 457.90 753.00 459.00 Z" fill="#122546" fill-rule="nonzero" node-id="36" stroke="none" target-height="172.79999" target-width="546.1" target-x="238.9" target-y="452.2"></path><path d="M 402.30 577.00 C 411.10 577.00 418.20 569.90 418.30 561.10 C 418.30 552.30 411.20 545.20 402.40 545.10 C 393.60 545.10 386.50 552.20 386.40 561.00 C 386.40 561.00 386.40 561.00 386.40 561.00 C 386.40 569.80 393.50 577.00 402.30 577.00 Z M 628.40 577.00 C 637.20 577.00 644.30 569.90 644.30 561.10 C 644.30 552.30 637.20 545.20 628.40 545.20 C 619.60 545.20 612.50 552.30 612.50 561.10 C 612.50 561.10 612.50 561.10 612.50 561.10 C 612.50 569.90 619.60 577.00 628.40 577.00 C 628.40 577.00 628.40 577.00 628.40 577.00 Z M 511.90 309.80 L 512.10 309.80 C 533.80 309.80 545.40 291.80 546.60 289.70 L 525.40 276.80 C 525.20 277.20 520.30 285.10 512.10 285.10 C 503.90 285.10 499.00 277.30 498.80 277.00 L 477.60 289.90 C 478.80 291.70 490.30 309.70 511.90 309.80 Z" fill="#122546" fill-rule="nonzero" node-id="38" stroke="none" target-height="300.2" target-width="257.9" target-x="386.4" target-y="276.8"></path></svg>