<?xml version="1.0" standalone="no"?><!DOCTYPE svg PUBLIC "-//W3C//DTD SVG 1.1//EN" "http://www.w3.org/Graphics/SVG/1.1/DTD/svg11.dtd"><svg t="1681996814725" class="icon" viewBox="0 0 1024 1024" version="1.1" xmlns="http://www.w3.org/2000/svg" p-id="4600" xmlns:xlink="http://www.w3.org/1999/xlink" width="200" height="200"><path d="M121.328 906.896a381.336 81.488 0 1 0 762.672 0 381.336 81.488 0 1 0-762.672 0Z" fill="#B8CBCD" p-id="4601"></path><path d="M730.888 542.696c-23.224-117.032 87.96-185.832 87.96-185.832s-43.448-62.592-116.152-78.728c-72.704-16.144-109.232 3.896-145.584 19.152-36.352 15.072-54.416 15.072-54.416 15.072-52.704 0-90.968-55.504-190.976-30.32-69 17.544-141.544 96.992-154.672 192.04-13.096 95.04 15.256 216.152 69.696 310.136 54.664 93.976 110.12 129.448 149.48 130.336 39.584 1.064 78.96-28.2 126.48-35.288 47.328-7.096 76.584 17.192 123.216 30.32 46.464 13.128 62.6 0.88 116.152-44.504 53.544-45.568 102.136-175.904 102.136-175.904s-90.08-29.264-113.32-146.48z m0 0" fill="#F6E89A" p-id="4602"></path><path d="M378.336 938.576l-2.76-0.04c-55.888-1.264-117.736-53.12-169.584-142.256-57.704-99.624-86.24-227.368-72.72-325.48 13.712-99.352 87.888-190.504 172.528-212.032 19.512-4.912 37.664-7.296 55.536-7.296 40.784 0 70.888 12.872 95.072 23.216 17.84 7.624 31.944 13.656 46.288 13.656-0.312 0 15.024-0.72 45.224-13.24 2.872-1.2 5.84-2.488 8.832-3.768 25.248-10.864 53.856-23.192 95.616-23.192 17.528 0 35.696 2.144 55.528 6.544 80.928 17.96 128.664 85.6 130.656 88.472a23.968 23.968 0 0 1-7.08 34.088c-3.896 2.448-96.672 61.888-77.048 160.76 20.016 101 94.192 127.296 97.336 128.368a24.144 24.144 0 0 1 14.92 31.16c-2.072 5.56-51.432 136.752-109.072 185.8-40.624 34.44-65.12 55.2-101.568 55.2-10.832 0-22.48-1.864-36.656-5.872-16.2-4.552-30.504-10.368-43.12-15.504-20.872-8.488-37.36-15.184-56.832-15.184-4.296 0-8.736 0.344-13.192 1.008-18.944 2.832-37.464 10.088-55.368 17.104-23.16 9.088-47.128 18.488-72.536 18.488z m-16.992-639.096c-13.872 0-28.184 1.904-43.76 5.824-56.296 14.32-124.624 84.184-136.76 172.056-12.152 88.184 14.024 203.904 66.68 294.824 50.168 86.248 99.664 117.704 129.256 118.376l1.568 0.024c16.336 0 35.136-7.368 55.032-15.168 19.448-7.624 41.488-16.264 65.792-19.88a136.608 136.608 0 0 1 20.288-1.536c28.856 0 52.264 9.512 74.904 18.72 12.008 4.88 24.432 9.936 38.064 13.776 9.832 2.776 17.336 4.072 23.632 4.072 17.384 0 31.464-10.696 70.496-43.784 33.696-28.68 69.008-102.296 87.016-145.472-32.096-17.96-87.912-61.608-106.216-153.936-19.456-98.016 41.848-165.128 76.68-194.4-16.848-17.392-47.016-42.632-86.528-51.4-16.376-3.632-31.136-5.408-45.128-5.408-31.864 0-53.616 9.368-76.64 19.272-3.128 1.344-6.232 2.68-9.328 3.984-38.896 16.128-59.888 16.936-63.704 16.936-24.176 0-45.008-8.904-65.152-17.52-22.24-9.528-45.24-19.36-76.192-19.36z" fill="#8D4520" p-id="4603"></path><path d="M627.872 183.28c51.6-52.496 34.04-133.88 34.04-133.88s-72.352 12.76-120.936 63.128c-48.408 50.536-40.408 130.336-40.408 130.336s75.704-7.096 127.304-59.584z m0 0" fill="#F6E89A" p-id="4604"></path><path d="M500.544 266.856a24 24 0 0 1-23.856-21.608c-0.376-3.704-8.472-91.464 46.96-149.328 53.448-55.408 130.832-69.584 134.096-70.152a24 24 0 0 1 27.632 18.568c0.832 3.84 19.592 94.752-40.384 155.768-57.096 58.072-138.728 66.328-142.176 66.656-0.768 0.064-1.52 0.096-2.272 0.096zM640.856 79.936c-22.896 7.664-56.904 22.608-82.6 49.248-23.992 25.048-31.344 60.36-33.4 84.448 23.8-6.368 58.992-19.816 85.904-47.184 25.896-26.344 30.448-62.488 30.096-86.512z" fill="#8D4520" p-id="4605"></path><path d="M424.232 913.4l-0.552-0.008c-44.024-0.992-109.504-14.28-169.68-117.744-57.704-99.624-86.24-227.368-72.72-325.48 15.04-108.96 98.176-185.12 172.528-204.032a23.96 23.96 0 0 1 29.176 17.344 24 24 0 0 1-17.336 29.176c-57.36 14.592-124.8 77.056-136.816 164.072-12.152 88.184 14.024 203.904 66.68 294.824 47.224 81.192 91.84 93.008 129.256 93.856a23.992 23.992 0 0 1-0.536 47.992z" fill="#FFFFFF" p-id="4606"></path><path d="M378.336 938.576l-2.76-0.04c-55.888-1.264-117.736-53.12-169.584-142.256-57.704-99.624-86.24-227.368-72.72-325.48 13.712-99.352 87.888-190.504 172.528-212.032 19.512-4.912 37.664-7.296 55.536-7.296 40.784 0 70.888 12.872 95.072 23.216 17.84 7.624 31.944 13.656 46.288 13.656-0.312 0 15.024-0.72 45.224-13.24 2.872-1.2 5.84-2.488 8.832-3.768 25.248-10.864 53.856-23.192 95.616-23.192 17.528 0 35.696 2.144 55.528 6.544 80.928 17.96 128.664 85.6 130.656 88.472a23.968 23.968 0 0 1-7.08 34.088c-3.896 2.448-96.672 61.888-77.048 160.76 20.016 101 94.192 127.296 97.336 128.368a24.144 24.144 0 0 1 14.92 31.16c-2.072 5.56-51.432 136.752-109.072 185.8-40.624 34.44-65.12 55.2-101.568 55.2-10.832 0-22.48-1.864-36.656-5.872-16.2-4.552-30.504-10.368-43.12-15.504-20.872-8.488-37.36-15.184-56.832-15.184-4.296 0-8.736 0.344-13.192 1.008-18.944 2.832-37.464 10.088-55.368 17.104-23.16 9.088-47.128 18.488-72.536 18.488z m-16.992-639.096c-13.872 0-28.184 1.904-43.76 5.824-56.296 14.32-124.624 84.184-136.76 172.056-12.152 88.184 14.024 203.904 66.68 294.824 50.168 86.248 99.664 117.704 129.256 118.376l1.568 0.024c16.336 0 35.136-7.368 55.032-15.168 19.448-7.624 41.488-16.264 65.792-19.88a136.608 136.608 0 0 1 20.288-1.536c28.856 0 52.264 9.512 74.904 18.72 12.008 4.88 24.432 9.936 38.064 13.776 9.832 2.776 17.336 4.072 23.632 4.072 17.384 0 31.464-10.696 70.496-43.784 33.696-28.68 69.008-102.296 87.016-145.472-32.096-17.96-87.912-61.608-106.216-153.936-19.456-98.016 41.848-165.128 76.68-194.4-16.848-17.392-47.016-42.632-86.528-51.4-16.376-3.632-31.136-5.408-45.128-5.408-31.864 0-53.616 9.368-76.64 19.272-3.128 1.344-6.232 2.68-9.328 3.984-38.896 16.128-59.888 16.936-63.704 16.936-24.176 0-45.008-8.904-65.152-17.52-22.24-9.528-45.24-19.36-76.192-19.36z" fill="#8D4520" p-id="4607"></path><path d="M500.544 266.856a24 24 0 0 1-23.856-21.608c-0.376-3.704-8.472-91.464 46.96-149.328 53.448-55.408 130.832-69.584 134.096-70.152a24 24 0 0 1 27.632 18.568c0.832 3.84 19.592 94.752-40.384 155.768-57.096 58.072-138.728 66.328-142.176 66.656-0.768 0.064-1.52 0.096-2.272 0.096zM640.856 79.936c-22.896 7.664-56.904 22.608-82.6 49.248-23.992 25.048-31.344 60.36-33.4 84.448 23.8-6.368 58.992-19.816 85.904-47.184 25.896-26.344 30.448-62.488 30.096-86.512z" fill="#8D4520" p-id="4608"></path></svg>