<?xml version="1.0" standalone="no"?><!DOCTYPE svg PUBLIC "-//W3C//DTD SVG 1.1//EN" "http://www.w3.org/Graphics/SVG/1.1/DTD/svg11.dtd"><svg t="1698743758299" class="icon" viewBox="0 0 1024 1024" version="1.1" xmlns="http://www.w3.org/2000/svg" p-id="20455" xmlns:xlink="http://www.w3.org/1999/xlink" width="200" height="200"><path d="M427 896H256.3c-47.1 0-85.3-38.2-85.3-85.3V384c0-47.1 38.2-85.3 85.3-85.3V0h512.1v298.7c47.1 0 85.3 38.2 85.3 85.3v426.7c0 47.1-38.2 85.3-85.3 85.3H597.7v128H427V896z" fill="#666666" p-id="20456"></path><path d="M213.7 384c0-23.6 19.1-42.7 42.7-42.7h512c23.6 0 42.7 19.1 42.7 42.7v426.7c0 23.6-19.1 42.7-42.7 42.7h-512c-23.6 0-42.7-19.1-42.7-42.7V384z" fill="#FEFCEA" p-id="20457"></path><path d="M299 42.7h426.7v256H299z" fill="#F5F5F5" p-id="20458"></path><path d="M384.3 128h85.3v85.3h-85.3V128zM555 128h85.3v85.3H555V128z" fill="#B3BAC3" p-id="20459"></path></svg>