<?xml version="1.0" standalone="no"?><!DOCTYPE svg PUBLIC "-//W3C//DTD SVG 1.1//EN" "http://www.w3.org/Graphics/SVG/1.1/DTD/svg11.dtd"><svg height="800" legacy-metrics="false" node-id="1" sillyvg="true" template-height="400" template-width="800" version="1.1" viewBox="0 0 800 800" width="800" xmlns="http://www.w3.org/2000/svg" xmlns:xlink="http://www.w3.org/1999/xlink"><defs node-id="170"><mask height="647" id="mask0" maskUnits="userSpaceOnUse" node-id="3" width="647" x="84" y="106"><path d="M 407.67 752.53 C 585.97 752.53 730.52 607.98 730.52 429.68 C 730.52 251.37 585.97 106.83 407.67 106.83 C 229.36 106.83 84.82 251.37 84.82 429.68 C 84.82 607.98 229.36 752.53 407.67 752.53 Z" fill="#ffffff" fill-rule="nonzero" node-id="173" stroke="none" target-height="645.7" target-width="645.69977" target-x="84.8192" target-y="106.826"></path></mask><mask height="686" id="mask1" maskUnits="userSpaceOnUse" node-id="17" width="714" x="43" y="47"><path d="M 592.70 111.65 C 444.20 2.32 87.07 29.13 48.07 218.60 C 9.08 408.06 206.85 422.41 260.29 575.13 C 313.72 727.86 499.43 793.31 667.34 663.05 C 835.25 532.78 741.21 220.98 592.70 111.65 Z" fill="#ffffff" fill-rule="nonzero" node-id="177" stroke="none" target-height="685.3202" target-width="713.58923" target-x="43.022163" target-y="47.42517"></path></mask><mask height="17" id="mask2" maskUnits="userSpaceOnUse" node-id="21" width="46" x="493" y="467"><path d="M 538.80 467.40 L 493.12 467.40 L 493.12 483.21 L 538.80 483.21 L 538.80 467.40 Z" fill="#ffffff" fill-rule="nonzero" node-id="181" stroke="none" target-height="15.813019" target-width="45.679993" target-x="493.122" target-y="467.396"></path></mask><mask height="117" id="mask3" maskUnits="userSpaceOnUse" node-id="27" width="164" x="433" y="351"><path d="M 589.75 351.44 L 440.42 351.44 C 436.53 351.44 433.39 354.59 433.39 358.47 L 433.39 460.37 C 433.39 464.25 436.53 467.40 440.42 467.40 L 589.75 467.40 C 593.63 467.40 596.78 464.25 596.78 460.37 L 596.78 358.47 C 596.78 354.59 593.63 351.44 589.75 351.44 Z" fill="#ffffff" fill-rule="nonzero" node-id="185" stroke="none" target-height="115.95599" target-width="163.39401" target-x="433.387" target-y="351.44"></path></mask><mask height="79" id="mask4" maskUnits="userSpaceOnUse" node-id="99" width="81" x="97" y="220"><path d="M 120.64 253.86 C 119.42 253.21 115.19 248.14 117.88 245.27 C 119.67 243.35 121.70 243.66 123.97 246.19 C 138.61 239.63 145.83 231.19 145.63 220.86 C 148.77 222.42 151.31 228.51 153.23 239.12 C 158.01 243.87 160.39 246.51 160.37 247.04 C 160.34 247.58 159.06 248.73 156.51 250.51 C 156.65 254.46 156.81 257.16 156.98 258.60 C 157.67 264.24 155.77 266.67 153.52 267.98 C 150.50 269.74 146.58 270.33 141.75 269.77 L 144.17 285.71 L 117.88 285.71 L 120.64 253.86 Z" fill="#ffffff" fill-rule="nonzero" node-id="189" stroke="none" target-height="64.850006" target-width="43.356583" target-x="117.00842" target-y="220.858"></path></mask><mask height="153" id="mask5" maskUnits="userSpaceOnUse" node-id="109" width="201" x="65" y="275"><path d="M 241.27 275.16 L 265.22 279.32 C 261.83 328.26 255.77 352.73 247.04 352.73 C 238.30 352.73 216.52 348.19 181.68 339.11 C 187.05 347.45 185.45 357.27 176.88 368.60 C 172.13 373.94 173.67 393.51 181.52 427.32 L 109.99 427.47 L 109.99 410.94 L 100.20 427.47 L 88.09 427.32 C 70.81 403.49 63.25 387.75 65.40 380.09 C 68.63 368.60 96.08 303.32 102.17 295.44 C 106.23 290.19 111.10 286.94 116.78 285.71 C 132.85 284.83 142.35 284.83 145.28 285.71 C 148.21 286.58 151.58 288.05 155.39 290.10 C 166.51 289.54 185.29 296.41 211.73 310.69 L 231.73 320.16 L 241.27 275.16 Z M 94.52 383.58 L 98.81 397.52 C 101.64 388.10 103.21 381.13 103.50 376.61 C 103.78 372.10 103.31 367.61 102.07 363.13 L 94.52 383.58 Z" fill="#ffffff" fill-rule="nonzero" node-id="193" stroke="none" target-height="152.30301" target-width="200.16199" target-x="65.05701" target-y="275.163"></path></mask><mask height="340" id="mask6" maskUnits="userSpaceOnUse" node-id="119" width="135" x="562" y="389"><path d="M 576.95 721.77 L 562.39 534.47 L 584.01 390.64 C 587.24 392.30 595.91 393.13 610.01 393.13 C 624.11 393.13 645.67 392.03 674.69 389.81 C 693.89 408.26 700.26 444.19 693.79 497.61 C 691.76 514.32 688.87 538.36 685.10 569.74 L 686.85 726.64 C 672.76 728.11 661.60 728.41 653.36 727.55 C 645.13 726.68 640.82 724.76 640.44 721.77 L 632.02 569.74 L 632.02 472.48 L 615.89 564.73 L 623.11 726.64 C 609.34 727.94 599.21 728.24 592.74 727.55 C 586.27 726.85 581.01 724.92 576.95 721.77 Z" fill="#ffffff" fill-rule="nonzero" node-id="197" stroke="none" target-height="338.1809" target-width="133.83002" target-x="562.393" target-y="389.815"></path></mask><mask height="51" id="mask7" maskUnits="userSpaceOnUse" node-id="124" width="68" x="463" y="277"><path d="M 524.80 310.42 L 519.46 304.91 C 516.78 296.25 511.75 290.38 504.39 287.32 C 497.02 284.26 492.16 280.83 489.81 277.03 C 486.83 280.56 486.83 283.65 489.81 286.31 C 494.28 290.30 498.63 292.08 498.63 293.19 C 498.63 293.93 495.51 294.11 489.27 293.72 C 488.56 290.31 486.93 288.42 484.37 288.06 L 483.92 292.68 L 482.22 292.33 C 483.02 284.94 481.01 280.71 476.21 279.66 L 476.73 287.72 C 472.65 280.75 468.15 277.91 463.22 279.21 L 476.73 297.72 C 477.51 300.67 479.65 302.26 483.14 302.48 C 483.14 307.37 484.63 309.81 487.60 309.81 C 488.24 314.75 491.14 317.31 496.29 317.49 C 504.01 317.76 507.63 317.32 513.55 323.99 L 517.09 327.94 C 526.29 320.42 530.89 316.66 530.89 316.66 C 530.89 316.66 528.86 314.58 524.80 310.42 Z" fill="#ffffff" fill-rule="nonzero" node-id="201" stroke="none" target-height="50.91101" target-width="67.66998" target-x="463.219" target-y="277.029"></path></mask><mask height="196" id="mask8" maskUnits="userSpaceOnUse" node-id="133" width="229" x="504" y="246"><path d="M 643.30 246.44 C 659.80 248.66 672.86 251.64 682.50 255.39 C 696.96 261.02 734.32 342.25 732.45 377.21 C 731.21 400.52 717.36 409.27 690.92 403.45 L 703.69 435.57 L 651.41 435.57 L 625.94 393.26 L 592.45 393.21 C 592.36 400.84 590.72 408.32 587.53 415.66 C 584.35 422.99 579.34 431.61 572.53 441.49 L 584.59 385.25 C 582.58 387.88 580.11 389.09 577.18 388.89 C 565.74 387.47 541.35 367.58 504.01 329.22 L 527.69 305.05 L 567.05 334.08 C 571.15 308.37 574.52 289.33 577.18 276.95 C 579.84 264.57 587.22 257.76 599.32 256.53 L 609.39 250.69 L 643.30 246.44 Z M 678.86 329.91 L 686.22 362.76 L 696.52 363.75 L 678.86 329.91 Z" fill="#ffffff" fill-rule="nonzero" node-id="205" stroke="none" target-height="195.05598" target-width="228.45505" target-x="504.007" target-y="246.438"></path></mask><mask height="39" id="mask9" maskUnits="userSpaceOnUse" node-id="143" width="70" x="554" y="350"><path d="M 622.23 359.69 C 615.73 359.78 611.88 359.42 610.68 358.62 C 608.88 357.42 603.53 351.65 592.68 353.97 C 584.30 354.45 578.11 353.35 574.11 350.67 C 573.38 354.69 574.36 357.34 577.03 358.62 C 579.71 359.90 584.42 361.61 591.17 363.76 C 583.34 372.86 578.84 377.42 577.67 377.42 C 575.91 377.42 558.08 374.28 554.99 380.44 C 572.67 383.91 582.46 385.19 584.34 384.27 C 585.68 387.67 587.96 389.12 591.17 388.63 C 595.99 387.89 609.52 378.40 612.89 378.40 C 615.14 378.40 618.66 378.74 623.47 379.42 C 623.07 375.17 622.80 371.93 622.66 369.70 C 622.52 367.46 622.38 364.13 622.23 359.69 Z" fill="#ffffff" fill-rule="nonzero" node-id="209" stroke="none" target-height="38.012024" target-width="68.474976" target-x="554.992" target-y="350.674"></path></mask><mask height="81" id="mask10" maskUnits="userSpaceOnUse" node-id="151" width="54" x="590" y="192"><path d="M 610.77 269.41 L 617.81 272.78 C 632.18 271.20 639.38 267.75 639.41 262.45 C 639.44 256.67 638.89 242.94 637.74 221.28 C 642.31 217.51 647.50 203.00 639.65 206.58 C 639.15 206.89 638.82 207.26 638.65 207.70 C 637.86 209.73 637.45 211.91 637.09 211.91 C 636.45 211.91 634.41 204.00 633.17 203.72 C 631.80 203.41 630.73 202.40 629.98 200.70 L 629.98 200.70 C 628.05 196.34 623.60 193.66 618.85 194.00 C 612.74 194.42 607.92 194.64 604.40 194.64 C 599.16 194.64 594.53 193.90 590.50 192.41 C 589.59 227.85 595.76 246.10 609.03 247.16 L 609.03 252.11 C 604.52 262.71 603.22 269.01 605.12 270.99 C 605.31 271.18 607.19 270.65 610.77 269.41 Z" fill="#ffffff" fill-rule="nonzero" node-id="213" stroke="none" target-height="80.375" target-width="53.22589" target-x="590.46027" target-y="192.409"></path></mask></defs><path d="M 800.00 0.00 L 0.00 0.00 L 0.00 800.00 L 800.00 800.00 L 800.00 0.00 Z" fill="#ffffff" fill-rule="nonzero" node-id="217" stroke="none" target-height="800" target-width="800" target-x="0" target-y="0"></path><g node-id="518"><path d="M 407.67 752.53 C 585.97 752.53 730.52 607.98 730.52 429.68 C 730.52 251.37 585.97 106.83 407.67 106.83 C 229.36 106.83 84.82 251.37 84.82 429.68 C 84.82 607.98 229.36 752.53 407.67 752.53 Z" fill="#e7eeff" fill-rule="nonzero" group-id="1" node-id="221" stroke="none" target-height="645.7" target-width="645.69977" target-x="84.8192" target-y="106.826"></path><path d="M 209.12 487.77 L 716.68 487.77 L 716.68 506.64 L 209.12 506.64 L 209.12 487.77 Z" fill="#b1c1ff" fill-rule="evenodd" group-id="1" node-id="223" stroke="none" target-height="18.876007" target-width="507.562" target-x="209.119" target-y="487.767"></path><path d="M 306.88 806.67 L 310.35 497.20 L 250.19 497.20 L 246.73 806.67" fill="none" group-id="1" node-id="225" stroke="#000000" stroke-linecap="butt" stroke-width="1.8876" target-height="309.465" target-width="63.61798" target-x="246.729" target-y="497.205"></path><path d="M 335.21 713.25 L 381.77 713.25 L 381.77 737.78 C 381.77 750.64 371.35 761.07 358.49 761.07 C 345.63 761.07 335.21 750.64 335.21 737.78 L 335.21 713.25 Z" fill="#ffffff" fill-rule="evenodd" group-id="1" node-id="227" stroke="#849dff" stroke-linecap="butt" stroke-width="1.2584" target-height="47.81903" target-width="46.560974" target-x="335.209" target-y="713.246"></path><path d="M 358.49 714.50 C 371.35 714.50 381.77 713.66 381.77 712.62 C 381.77 711.58 371.35 710.73 358.49 710.73 C 345.63 710.73 335.21 711.58 335.21 712.62 C 335.21 713.66 345.63 714.50 358.49 714.50 Z" fill="#849dff" fill-rule="nonzero" group-id="1" node-id="229" stroke="none" target-height="3.776001" target-width="46.560974" target-x="335.209" target-y="710.729"></path><path d="M 326.67 531.00 C 323.28 539.44 326.36 553.52 335.89 573.23 C 350.20 602.80 337.93 610.46 358.69 636.95 C 360.22 613.54 362.32 593.99 364.99 578.29 C 367.65 562.59 354.88 546.83 326.67 531.00 Z" fill="#b1c1ff" fill-rule="evenodd" group-id="1" node-id="231" stroke="none" target-height="105.945984" target-width="39.93817" target-x="325.3914" target-y="531"></path><path d="M 286.20 600.11 C 290.65 614.72 300.90 624.51 316.95 629.48 C 341.01 636.95 352.40 654.98 352.40 661.46 C 356.20 641.12 348.65 627.11 329.76 619.42 C 310.88 611.73 296.36 605.29 286.20 600.11 Z" fill="#b1c1ff" fill-rule="evenodd" group-id="1" node-id="233" stroke="none" target-height="61.346985" target-width="67.1337" target-x="286.2" target-y="600.111"></path><path d="M 421.64 568.08 C 417.06 585.65 410.24 597.80 401.18 604.56 C 387.59 614.69 376.30 622.32 379.09 641.68 C 384.60 632.45 392.63 625.98 403.18 622.26 C 419.01 616.68 430.95 602.84 430.95 591.43 C 430.95 583.82 427.84 576.04 421.64 568.08 Z" fill="#b1c1ff" fill-rule="evenodd" group-id="1" node-id="235" stroke="none" target-height="73.60004" target-width="52.26828" target-x="378.67773" target-y="568.084"></path><path d="M 326.67 531.54 C 349.14 552.00 359.75 569.47 358.49 583.93 C 356.60 605.63 353.39 625.27 361.29 643.35 C 369.19 661.43 362.60 680.15 358.49 690.86 C 355.75 698.00 355.12 705.46 356.60 713.25" fill="none" group-id="1" node-id="237" stroke="#849dff" stroke-linecap="butt" stroke-width="1.51008" target-height="181.70398" target-width="38.310516" target-x="326.666" target-y="531.542"></path><path d="M 286.20 600.11 C 291.66 609.00 303.64 617.60 322.15 625.91 C 349.92 638.37 354.53 648.06 352.22 667.58 C 349.92 687.11 348.14 695.47 354.61 712.62" fill="none" group-id="1" node-id="239" stroke="#849dff" stroke-linecap="butt" stroke-width="1.51008" target-height="112.50598" target-width="68.41199" target-x="286.2" target-y="600.111"></path><path d="M 361.71 712.62 C 359.61 704.13 362.11 696.45 369.19 689.55 C 379.81 679.21 374.27 656.36 378.76 642.97 C 383.25 629.59 384.42 624.63 405.55 612.37 C 419.64 604.20 425.26 590.32 422.41 570.75" fill="none" group-id="1" node-id="241" stroke="#849dff" stroke-linecap="butt" stroke-width="1.51008" target-height="141.867" target-width="62.042236" target-x="361.0311" target-y="570.75"></path></g><g node-id="519"><path d="M 592.70 111.65 C 444.20 2.32 87.07 29.13 48.07 218.60 C 9.08 408.06 206.85 422.41 260.29 575.13 C 313.72 727.86 499.43 793.31 667.34 663.05 C 835.25 532.78 741.21 220.98 592.70 111.65 Z" fill="#f4f7ff" fill-rule="nonzero" group-id="2" node-id="246" stroke="none" target-height="685.3202" target-width="713.58923" target-x="43.022163" target-y="47.42517"></path><g node-id="527"><path d="M 538.80 467.40 L 493.12 467.40 L 493.12 483.21 L 538.80 483.21 L 538.80 467.40 Z" fill="#b1c1ff" fill-rule="nonzero" group-id="2,10" node-id="250" stroke="none" target-height="15.813019" target-width="45.679993" target-x="493.122" target-y="467.396"></path><path d="M 538.80 467.40 L 493.12 467.40 L 493.12 476.18 L 538.80 476.18 L 538.80 467.40 Z" fill="#849dff" fill-rule="nonzero" group-id="2,10" node-id="252" stroke="none" target-height="8.785004" target-width="45.679993" target-x="493.122" target-y="467.396"></path></g><path d="M 554.62 483.21 L 479.07 483.21 L 479.07 488.48 L 554.62 488.48 L 554.62 483.21 Z" fill="#4e60a5" fill-rule="nonzero" group-id="2" node-id="255" stroke="none" target-height="5.270996" target-width="75.548004" target-x="479.067" target-y="483.209"></path><path d="M 589.75 351.44 L 440.42 351.44 C 436.53 351.44 433.39 354.59 433.39 358.47 L 433.39 460.37 C 433.39 464.25 436.53 467.40 440.42 467.40 L 589.75 467.40 C 593.63 467.40 596.78 464.25 596.78 460.37 L 596.78 358.47 C 596.78 354.59 593.63 351.44 589.75 351.44 Z" fill="#b1c1ff" fill-rule="nonzero" group-id="2,11" node-id="259" stroke="none" target-height="115.95599" target-width="163.39401" target-x="433.387" target-y="351.44"></path><path d="M 598.54 453.34 L 433.39 453.34 L 433.39 469.15 L 598.54 469.15 L 598.54 453.34 Z" fill="#4e60a5" fill-rule="nonzero" group-id="2,11" node-id="261" stroke="none" target-height="15.812012" target-width="165.15103" target-x="433.387" target-y="453.341"></path><path d="M 593.27 351.44 L 443.93 351.44 C 440.05 351.44 436.90 354.59 436.90 358.47 L 436.90 460.37 C 436.90 464.25 440.05 467.40 443.93 467.40 L 593.27 467.40 C 597.15 467.40 600.29 464.25 600.29 460.37 L 600.29 358.47 C 600.29 354.59 597.15 351.44 593.27 351.44 Z" fill="#849dff" fill-rule="nonzero" group-id="2,11" node-id="263" stroke="none" target-height="115.95599" target-width="163.39398" target-x="436.901" target-y="351.44"></path><path d="M 588.00 358.47 L 445.69 358.47 C 444.71 358.47 443.93 359.25 443.93 360.22 L 443.93 444.56 C 443.93 445.53 444.71 446.31 445.69 446.31 L 588.00 446.31 C 588.97 446.31 589.75 445.53 589.75 444.56 L 589.75 360.22 C 589.75 359.25 588.97 358.47 588.00 358.47 Z" fill="#dae2ff" fill-rule="nonzero" group-id="2,11" node-id="265" stroke="none" target-height="87.84598" target-width="145.824" target-x="443.929" target-y="358.467"></path><path d="M 602.05 453.34 L 436.90 453.34 L 436.90 469.15 L 602.05 469.15 L 602.05 453.34 Z" fill="#6073be" fill-rule="nonzero" group-id="2,11" node-id="267" stroke="none" target-height="15.812012" target-width="165.151" target-x="436.901" target-y="453.341"></path><path d="M 407.71 431.33 L 402.20 431.33 C 401.53 431.33 400.99 431.87 400.99 432.54 L 400.99 441.19 C 400.99 441.86 401.53 442.40 402.20 442.40 L 407.71 442.40 C 408.38 442.40 408.92 441.86 408.92 441.19 L 408.92 432.54 C 408.92 431.87 408.38 431.33 407.71 431.33 Z" fill="#849dff" fill-rule="nonzero" group-id="2" node-id="270" stroke="none" target-height="11.074005" target-width="7.932007" target-x="400.986" target-y="431.326"></path><path d="M 410.88 436.07 L 399.02 436.07 C 398.35 436.07 397.81 436.61 397.81 437.28 L 397.81 438.03 C 397.81 438.69 398.35 439.24 399.02 439.24 L 410.88 439.24 C 411.55 439.24 412.09 438.69 412.09 438.03 L 412.09 437.28 C 412.09 436.61 411.55 436.07 410.88 436.07 Z" fill="none" group-id="2" node-id="272" stroke="#000000" stroke-linecap="butt" stroke-width="1.21" target-height="3.1640015" target-width="14.278015" target-x="397.813" target-y="436.072"></path><path d="M 392.05 470.71 L 418.34 470.71 L 425.03 481.96 C 426.48 484.45 427.06 486.00 426.77 486.60 C 426.42 487.33 423.99 486.81 423.10 487.17 L 388.07 487.14 C 385.28 487.41 383.88 486.99 383.88 485.87 C 383.88 484.75 386.61 479.70 392.05 470.71 Z" fill="#77c5ff" fill-rule="evenodd" group-id="2" node-id="274" stroke="none" target-height="16.480164" target-width="42.941803" target-x="383.884" target-y="470.708"></path><path d="M 399.38 439.24 L 399.38 457.28 C 399.38 457.69 399.27 458.10 399.07 458.46 L 384.95 483.56 C 384.29 484.72 384.71 486.20 385.87 486.86 C 386.23 487.06 386.64 487.17 387.06 487.17 L 423.59 487.17 C 424.93 487.17 426.01 486.08 426.01 484.75 C 426.01 484.31 425.90 483.89 425.68 483.51 L 410.88 458.48 C 410.66 458.11 410.55 457.68 410.55 457.25 L 410.55 439.24" fill="none" group-id="2" node-id="276" stroke="#000000" stroke-linecap="butt" stroke-width="1.21" target-height="47.929993" target-width="41.36139" target-x="384.6516" target-y="439.236"></path><path d="M 402.23 441.12 L 402.23 447.91" fill="none" group-id="2" node-id="278" stroke="#ffffff" stroke-linecap="butt" stroke-width="2.42" target-height="6.7879944" target-width="0" target-x="402.228" target-y="441.12"></path><path d="M 402.23 453.35 L 402.23 458.68 L 390.49 479.61" fill="none" group-id="2" node-id="280" stroke="#ffffff" stroke-linecap="butt" stroke-width="2.42" target-height="26.262024" target-width="11.743011" target-x="390.485" target-y="453.347"></path><path d="M 364.85 448.93 L 356.29 448.93 C 355.62 448.93 355.07 449.47 355.07 450.14 L 355.07 450.86 C 355.07 451.53 355.62 452.07 356.29 452.07 L 364.85 452.07 C 365.52 452.07 366.06 451.53 366.06 450.86 L 366.06 450.14 C 366.06 449.47 365.52 448.93 364.85 448.93 Z" fill="none" group-id="2" node-id="282" stroke="#000000" stroke-linecap="butt" stroke-width="1.21" target-height="3.1419983" target-width="10.9869995" target-x="355.075" target-y="448.926"></path><path d="M 356.64 468.80 L 364.49 468.80 L 364.49 482.71 C 364.49 484.88 362.74 486.63 360.57 486.63 C 358.40 486.63 356.64 484.88 356.64 482.71 L 356.64 468.80 Z" fill="#77c5ff" fill-rule="evenodd" group-id="2" node-id="284" stroke="none" target-height="17.832" target-width="7.848999" target-x="356.644" target-y="468.802"></path><path d="M 358.90 452.07 L 358.90 457.98" fill="none" group-id="2" node-id="286" stroke="#ffffff" stroke-linecap="butt" stroke-width="2.42" target-height="5.9089966" target-width="0" target-x="358.896" target-y="452.068"></path><path d="M 358.90 460.98 L 358.90 481.30" fill="none" group-id="2" node-id="288" stroke="#ffffff" stroke-linecap="butt" stroke-width="2.42" target-height="20.318024" target-width="0" target-x="358.896" target-y="460.981"></path><path d="M 356.64 452.07 L 364.49 452.07 L 364.49 482.71 C 364.49 484.88 362.74 486.63 360.57 486.63 C 358.40 486.63 356.64 484.88 356.64 482.71 L 356.64 452.07 Z" fill="none" group-id="2" node-id="290" stroke="#000000" stroke-linecap="butt" stroke-width="1.21" target-height="34.56601" target-width="7.848999" target-x="356.644" target-y="452.068"></path><path d="M 350.73 448.93 L 342.16 448.93 C 341.49 448.93 340.95 449.47 340.95 450.14 L 340.95 450.86 C 340.95 451.53 341.49 452.07 342.16 452.07 L 350.73 452.07 C 351.39 452.07 351.94 451.53 351.94 450.86 L 351.94 450.14 C 351.94 449.47 351.39 448.93 350.73 448.93 Z" fill="none" group-id="2" node-id="292" stroke="#000000" stroke-linecap="butt" stroke-width="1.21" target-height="3.1419983" target-width="10.988007" target-x="340.948" target-y="448.926"></path><path d="M 342.52 456.72 L 350.37 456.72 L 350.37 482.71 C 350.37 484.88 348.61 486.63 346.44 486.63 C 344.27 486.63 342.52 484.88 342.52 482.71 L 342.52 456.72 Z" fill="#ffd500" fill-rule="evenodd" group-id="2" node-id="294" stroke="none" target-height="29.912018" target-width="7.847992" target-x="342.518" target-y="456.722"></path><path d="M 344.77 452.07 L 344.77 457.98" fill="none" group-id="2" node-id="296" stroke="#ffffff" stroke-linecap="butt" stroke-width="2.42" target-height="5.9089966" target-width="0" target-x="344.77" target-y="452.068"></path><path d="M 344.77 460.98 L 344.77 481.30" fill="none" group-id="2" node-id="298" stroke="#ffffff" stroke-linecap="butt" stroke-width="2.42" target-height="20.318024" target-width="0" target-x="344.77" target-y="460.981"></path><path d="M 342.52 452.07 L 350.37 452.07 L 350.37 482.71 C 350.37 484.88 348.61 486.63 346.44 486.63 C 344.27 486.63 342.52 484.88 342.52 482.71 L 342.52 452.07 Z" fill="none" group-id="2" node-id="300" stroke="#000000" stroke-linecap="butt" stroke-width="1.21" target-height="34.56601" target-width="7.847992" target-x="342.518" target-y="452.068"></path><path d="M 336.60 448.93 L 328.03 448.93 C 327.36 448.93 326.82 449.47 326.82 450.14 L 326.82 450.86 C 326.82 451.53 327.36 452.07 328.03 452.07 L 336.60 452.07 C 337.27 452.07 337.81 451.53 337.81 450.86 L 337.81 450.14 C 337.81 449.47 337.27 448.93 336.60 448.93 Z" fill="none" group-id="2" node-id="302" stroke="#000000" stroke-linecap="butt" stroke-width="1.21" target-height="3.1419983" target-width="10.9869995" target-x="326.822" target-y="448.926"></path><path d="M 328.39 463.62 L 336.24 463.62 L 336.24 482.71 C 336.24 484.88 334.48 486.63 332.31 486.63 C 330.15 486.63 328.39 484.88 328.39 482.71 L 328.39 463.62 Z" fill="#004de6" fill-rule="evenodd" group-id="2" node-id="304" stroke="none" target-height="23.009003" target-width="7.8480225" target-x="328.391" target-y="463.625"></path><path d="M 330.64 452.07 L 330.64 457.98" fill="none" group-id="2" node-id="306" stroke="#ffffff" stroke-linecap="butt" stroke-width="2.42" target-height="5.9089966" target-width="0" target-x="330.643" target-y="452.068"></path><path d="M 330.64 460.98 L 330.64 481.30" fill="none" group-id="2" node-id="308" stroke="#ffffff" stroke-linecap="butt" stroke-width="2.42" target-height="20.318024" target-width="0" target-x="330.643" target-y="460.981"></path><path d="M 328.39 452.07 L 336.24 452.07 L 336.24 482.71 C 336.24 484.88 334.48 486.63 332.31 486.63 C 330.15 486.63 328.39 484.88 328.39 482.71 L 328.39 452.07 Z" fill="none" group-id="2" node-id="310" stroke="#000000" stroke-linecap="butt" stroke-width="1.21" target-height="34.56601" target-width="7.8480225" target-x="328.391" target-y="452.068"></path><path d="M 320.54 487.86 L 320.54 461.50 L 370.77 461.50 L 370.77 487.86" fill="none" group-id="2" node-id="312" stroke="#6276c4" stroke-linecap="butt" stroke-width="3.63" target-height="26.365997" target-width="50.227997" target-x="320.543" target-y="461.495"></path><path d="M 320.54 477.99 L 370.77 477.99" fill="none" group-id="2" node-id="314" stroke="#6276c4" stroke-linecap="butt" stroke-width="3.63" target-height="0" target-width="50.227997" target-x="320.543" target-y="477.992"></path><path d="M 329.67 353.83 L 325.43 353.83 C 324.63 353.83 323.98 354.49 323.98 355.29 L 323.98 362.39 C 323.98 363.19 324.63 363.84 325.43 363.84 L 329.67 363.84 C 330.47 363.84 331.12 363.19 331.12 362.39 L 331.12 355.29 C 331.12 354.49 330.47 353.83 329.67 353.83 Z" fill="#849dff" fill-rule="nonzero" group-id="2" node-id="316" stroke="none" target-height="10.005005" target-width="7.137024" target-x="323.981" target-y="353.835"></path><path d="M 332.54 358.12 L 322.56 358.12 C 321.77 358.12 321.13 358.76 321.13 359.55 C 321.13 360.34 321.77 360.98 322.56 360.98 L 332.54 360.98 C 333.33 360.98 333.97 360.34 333.97 359.55 C 333.97 358.76 333.33 358.12 332.54 358.12 Z" fill="none" group-id="2" node-id="318" stroke="#000000" stroke-linecap="butt" stroke-width="1.452" target-height="2.8580017" target-width="12.846985" target-x="321.126" target-y="358.123"></path><path d="M 315.94 389.41 L 339.60 389.41 L 345.61 399.58 C 346.27 401.39 346.47 402.57 346.21 403.11 C 345.89 403.78 344.67 403.96 343.88 404.28 L 312.37 404.26 C 310.36 404.50 309.35 404.12 309.35 403.11 C 309.35 402.10 311.55 397.53 315.94 389.41 Z" fill="#004de6" fill-rule="evenodd" group-id="2" node-id="320" stroke="none" target-height="14.869019" target-width="36.943024" target-x="309.35" target-y="389.413"></path><path d="M 322.54 360.98 L 322.54 377.09 C 322.54 377.59 322.41 378.08 322.17 378.51 L 310.15 399.96 C 309.37 401.36 309.86 403.13 311.26 403.91 C 311.70 404.15 312.19 404.28 312.68 404.28 L 343.06 404.28 C 344.66 404.28 345.96 402.98 345.96 401.38 C 345.96 400.86 345.82 400.35 345.56 399.90 L 332.98 378.54 C 332.72 378.09 332.58 377.58 332.58 377.06 L 332.58 360.98" fill="none" group-id="2" node-id="322" stroke="#000000" stroke-linecap="butt" stroke-width="1.452" target-height="43.301025" target-width="36.16751" target-x="309.7945" target-y="360.981"></path><path d="M 325.10 362.68 L 325.10 368.81" fill="none" group-id="2" node-id="324" stroke="#ffffff" stroke-linecap="butt" stroke-width="2.904" target-height="6.131012" target-width="0" target-x="325.099" target-y="362.684"></path><path d="M 325.10 373.73 L 325.10 378.54 L 314.53 397.45" fill="none" group-id="2" node-id="326" stroke="#ffffff" stroke-linecap="butt" stroke-width="2.904" target-height="23.725983" target-width="10.565002" target-x="314.534" target-y="373.729"></path><path d="M 253.04 429.00 C 254.86 432.00 258.21 432.87 263.09 431.61 C 270.40 429.73 271.18 427.12 285.41 428.15 C 286.04 435.76 283.73 441.33 278.48 444.86 C 270.61 450.15 262.49 446.99 258.68 444.24 C 256.14 442.42 254.26 438.72 253.04 433.16 L 253.04 429.00 Z" fill="#ff586b" fill-rule="evenodd" group-id="2" node-id="328" stroke="none" target-height="19.747894" target-width="32.422348" target-x="253.042" target-y="427.92065"></path><path d="M 274.25 399.72 L 274.25 416.18 C 280.73 418.30 285.41 424.41 285.41 431.61 C 285.41 440.57 278.16 447.84 269.22 447.84 C 260.29 447.84 253.04 440.57 253.04 431.61 C 253.04 424.41 257.72 418.30 264.20 416.18 L 264.20 399.72 L 274.25 399.72 Z" fill="none" group-id="2" node-id="330" stroke="#000000" stroke-linecap="butt" stroke-width="1.452" target-height="48.118988" target-width="32.364" target-x="253.042" target-y="399.717"></path><path d="M 266.27 390.76 L 272.17 390.76 C 272.97 390.76 273.62 391.41 273.62 392.22 L 273.62 403.79 C 273.62 404.60 272.97 405.25 272.17 405.25 L 266.27 405.25 C 265.47 405.25 264.82 404.60 264.82 403.79 L 264.82 392.22 C 264.82 391.41 265.47 390.76 266.27 390.76 Z" fill="#849dff" fill-rule="evenodd" group-id="2" node-id="332" stroke="none" target-height="14.480988" target-width="8.800995" target-x="264.818" target-y="390.764"></path><path d="M 274.80 396.36 L 263.65 396.36 C 262.72 396.36 261.97 397.11 261.97 398.04 C 261.97 398.96 262.72 399.72 263.65 399.72 L 274.80 399.72 C 275.73 399.72 276.48 398.96 276.48 398.04 C 276.48 397.11 275.73 396.36 274.80 396.36 Z" fill="none" group-id="2" node-id="334" stroke="#000000" stroke-linecap="butt" stroke-width="1.452" target-height="3.3580017" target-width="14.507996" target-x="261.97" target-y="396.359"></path><path d="M 299.69 352.13 L 299.69 487.95" fill="none" group-id="2" node-id="336" stroke="#000000" stroke-linecap="butt" stroke-width="1.452" target-height="135.82" target-width="0" target-x="299.695" target-y="352.126"></path><path d="M 246.52 437.20 L 299.69 437.20" fill="none" group-id="2" node-id="338" stroke="#000000" stroke-linecap="butt" stroke-width="1.452" target-height="0" target-width="53.17601" target-x="246.519" target-y="437.205"></path><path d="M 299.36 440.00 C 300.90 440.00 302.15 438.75 302.15 437.20 C 302.15 435.66 300.90 434.41 299.36 434.41 C 297.81 434.41 296.57 435.66 296.57 437.20 C 296.57 438.75 297.81 440.00 299.36 440.00 Z" fill="#000000" fill-rule="nonzero" group-id="2" node-id="340" stroke="none" target-height="5.595978" target-width="5.5799866" target-x="296.566" target-y="434.407"></path><path d="M 299.36 372.86 C 300.90 372.86 302.15 371.61 302.15 370.06 C 302.15 368.52 300.90 367.26 299.36 367.26 C 297.81 367.26 296.57 368.52 296.57 370.06 C 296.57 371.61 297.81 372.86 299.36 372.86 Z" fill="#000000" fill-rule="nonzero" group-id="2" node-id="342" stroke="none" target-height="5.595001" target-width="5.5799866" target-x="296.566" target-y="367.264"></path><path d="M 299.69 369.56 L 347.96 369.56" fill="none" group-id="2" node-id="344" stroke="#000000" stroke-linecap="butt" stroke-width="1.452" target-height="0" target-width="48.268005" target-x="299.695" target-y="369.56"></path><path d="M 284.99 484.01 L 256.42 484.01 L 256.42 488.08 L 284.99 488.08 L 284.99 484.01 Z" fill="#849dff" fill-rule="nonzero" group-id="2" node-id="346" stroke="none" target-height="4.065979" target-width="28.569" target-x="256.419" target-y="484.01"></path><path d="M 282.95 480.96 L 258.46 480.96 L 258.46 484.01 L 282.95 484.01 L 282.95 480.96 Z" fill="#b1c1ff" fill-rule="nonzero" group-id="2" node-id="348" stroke="none" target-height="3.0490112" target-width="24.488007" target-x="258.46" target-y="480.961"></path><path d="M 279.89 477.91 L 262.54 477.91 L 262.54 480.96 L 279.89 480.96 L 279.89 477.91 Z" fill="#c5d1ff" fill-rule="nonzero" group-id="2" node-id="350" stroke="none" target-height="3.0490112" target-width="17.346008" target-x="262.541" target-y="477.912"></path><path d="M 271.21 469.20 L 271.21 477.91" fill="none" group-id="2" node-id="352" stroke="#ff586b" stroke-linecap="butt" stroke-width="1.452" target-height="8.707977" target-width="0" target-x="271.214" target-y="469.204"></path><path d="M 271.21 475.00 C 274.31 475.00 276.83 472.61 276.83 469.65 C 276.83 467.68 274.95 463.71 271.21 457.73 C 267.47 463.71 265.60 467.68 265.60 469.65 C 265.60 472.61 268.12 475.00 271.21 475.00 Z" fill="none" group-id="2" node-id="354" stroke="#ff586b" stroke-linecap="butt" stroke-width="1.452" target-height="17.278992" target-width="11.223999" target-x="265.602" target-y="457.726"></path><path d="M 306.88 806.67 L 310.35 497.20 L 250.19 497.20 L 246.73 806.67" fill="none" group-id="2" node-id="356" stroke="#000000" stroke-linecap="butt" stroke-width="1.8876" target-height="309.465" target-width="63.61798" target-x="246.729" target-y="497.205"></path><path d="M 209.12 487.77 L 716.68 487.77 L 716.68 506.64 L 209.12 506.64 L 209.12 487.77 Z" fill="#b1c1ff" fill-rule="evenodd" group-id="2" node-id="358" stroke="none" target-height="18.876007" target-width="507.562" target-x="209.119" target-y="487.767"></path><path d="M 335.21 713.25 L 381.77 713.25 L 381.77 737.78 C 381.77 750.64 371.35 761.07 358.49 761.07 C 345.63 761.07 335.21 750.64 335.21 737.78 L 335.21 713.25 Z" fill="#ffffff" fill-rule="evenodd" group-id="2" node-id="360" stroke="#849dff" stroke-linecap="butt" stroke-width="1.2584" target-height="47.81903" target-width="46.560974" target-x="335.209" target-y="713.246"></path><path d="M 358.49 714.50 C 371.35 714.50 381.77 713.66 381.77 712.62 C 381.77 711.57 371.35 710.73 358.49 710.73 C 345.63 710.73 335.21 711.57 335.21 712.62 C 335.21 713.66 345.63 714.50 358.49 714.50 Z" fill="#849dff" fill-rule="nonzero" group-id="2" node-id="362" stroke="none" target-height="3.776001" target-width="46.560974" target-x="335.209" target-y="710.729"></path><path d="M 326.67 531.00 C 323.28 539.44 326.36 553.52 335.89 573.23 C 350.20 602.80 337.93 610.46 358.69 636.95 C 360.22 613.54 362.32 593.99 364.99 578.29 C 367.65 562.59 354.88 546.83 326.67 531.00 Z" fill="#b1c1ff" fill-rule="evenodd" group-id="2" node-id="364" stroke="none" target-height="105.945984" target-width="39.93817" target-x="325.3914" target-y="531"></path><path d="M 286.20 600.11 C 290.65 614.72 300.90 624.51 316.95 629.48 C 341.01 636.95 352.40 654.98 352.40 661.46 C 356.20 641.12 348.65 627.11 329.76 619.42 C 310.88 611.73 296.36 605.29 286.20 600.11 Z" fill="#b1c1ff" fill-rule="evenodd" group-id="2" node-id="366" stroke="none" target-height="61.346985" target-width="67.1337" target-x="286.2" target-y="600.111"></path><path d="M 421.64 568.08 C 417.06 585.65 410.24 597.80 401.18 604.56 C 387.59 614.69 376.30 622.32 379.09 641.68 C 384.60 632.45 392.63 625.98 403.18 622.26 C 419.01 616.68 430.95 602.84 430.95 591.43 C 430.95 583.82 427.84 576.04 421.64 568.08 Z" fill="#b1c1ff" fill-rule="evenodd" group-id="2" node-id="368" stroke="none" target-height="73.60004" target-width="52.26828" target-x="378.67773" target-y="568.084"></path><path d="M 326.67 531.54 C 349.14 552.00 359.75 569.47 358.49 583.93 C 356.60 605.63 353.39 625.27 361.29 643.35 C 369.19 661.43 362.60 680.15 358.49 690.86 C 355.75 698.00 355.12 705.46 356.60 713.25" fill="none" group-id="2" node-id="370" stroke="#849dff" stroke-linecap="butt" stroke-width="1.51008" target-height="181.70398" target-width="38.310516" target-x="326.666" target-y="531.542"></path><path d="M 286.20 600.11 C 291.66 609.00 303.64 617.60 322.15 625.91 C 349.92 638.37 354.53 648.06 352.22 667.58 C 349.92 687.11 348.14 695.47 354.61 712.62" fill="none" group-id="2" node-id="372" stroke="#849dff" stroke-linecap="butt" stroke-width="1.51008" target-height="112.50598" target-width="68.41199" target-x="286.2" target-y="600.111"></path><path d="M 361.71 712.62 C 359.61 704.13 362.11 696.45 369.19 689.55 C 379.81 679.21 374.27 656.36 378.76 642.97 C 383.25 629.59 384.42 624.63 405.55 612.37 C 419.64 604.20 425.26 590.32 422.41 570.75" fill="none" group-id="2" node-id="374" stroke="#849dff" stroke-linecap="butt" stroke-width="1.51008" target-height="141.867" target-width="62.042236" target-x="361.0311" target-y="570.75"></path></g><path d="M 111.22 60.63 L 502.10 60.63 C 507.57 60.63 512.00 65.06 512.00 70.53 C 512.00 70.53 512.00 70.54 512.00 70.54 L 511.63 321.34 C 511.63 326.80 507.20 331.23 501.73 331.23 L 111.22 331.23 C 105.75 331.23 101.32 326.79 101.32 321.33 L 101.32 70.53 C 101.32 65.06 105.75 60.63 111.22 60.63 Z" fill="#849dff" fill-rule="evenodd" node-id="377" stroke="none" target-height="270.6" target-width="410.683" target-x="101.319" target-y="60.626"></path><path d="M 413.72 269.68 C 413.73 263.95 410.55 258.68 405.47 256.03 C 400.38 253.37 394.25 253.77 389.55 257.05 L 380.94 250.60 L 380.94 229.50 L 395.74 218.40 L 390.46 211.36 L 376.05 222.16 L 358.72 212.17 L 358.72 202.87 C 364.78 200.73 368.42 194.53 367.33 188.19 C 366.24 181.86 360.75 177.23 354.32 177.23 C 347.89 177.23 342.39 181.86 341.31 188.19 C 340.22 194.53 343.86 200.73 349.92 202.87 L 349.92 212.17 L 332.54 222.21 L 323.96 215.16 L 323.96 191.59 C 323.96 190.02 323.12 188.57 321.76 187.78 L 301.74 176.22 L 301.74 155.54 L 317.62 143.63 L 312.34 136.59 L 297.07 148.03 L 279.52 137.89 L 279.52 132.47 C 285.58 130.33 289.22 124.13 288.13 117.79 C 287.04 111.46 281.55 106.83 275.12 106.83 C 268.69 106.83 263.19 111.46 262.11 117.79 C 261.02 124.13 264.66 130.33 270.72 132.47 L 270.72 137.89 L 253.12 148.04 L 238.03 136.71 L 232.75 143.75 L 248.50 155.56 L 248.50 176.24 L 228.48 187.78 C 227.12 188.57 226.28 190.02 226.28 191.59 L 226.28 215.01 L 214.88 223.56 C 212.49 222.08 209.73 221.29 206.92 221.28 C 198.41 221.28 191.52 228.18 191.52 236.68 C 191.52 245.19 198.41 252.08 206.92 252.08 C 215.43 252.08 222.32 245.19 222.32 236.68 C 222.31 234.41 221.79 232.17 220.80 230.12 L 230.96 222.50 L 250.70 233.89 C 252.06 234.68 253.74 234.68 255.10 233.89 L 275.12 222.33 L 295.14 233.89 C 296.50 234.68 298.18 234.68 299.54 233.89 L 319.12 222.60 L 327.69 229.64 L 327.69 251.27 L 312.40 262.73 L 317.68 269.77 L 332.61 258.57 L 352.12 269.83 C 353.49 270.62 355.16 270.62 356.52 269.83 L 376.53 258.28 L 384.06 263.94 C 383.31 265.76 382.93 267.71 382.92 269.68 C 382.92 278.19 389.81 285.08 398.32 285.08 C 406.82 285.08 413.72 278.19 413.72 269.68 Z M 354.32 186.08 C 356.75 186.08 358.72 188.05 358.72 190.48 C 358.72 192.91 356.75 194.88 354.32 194.88 C 351.89 194.88 349.92 192.91 349.92 190.48 C 349.92 188.05 351.89 186.08 354.32 186.08 Z M 275.12 115.68 C 277.55 115.68 279.52 117.65 279.52 120.08 C 279.52 122.51 277.55 124.48 275.12 124.48 C 272.69 124.48 270.72 122.51 270.72 120.08 C 270.72 117.65 272.69 115.68 275.12 115.68 Z M 275.12 145.51 L 292.94 155.80 L 292.94 176.22 L 275.12 186.52 L 257.30 176.22 L 257.30 155.80 L 275.12 145.51 Z M 206.92 243.28 C 203.27 243.28 200.32 240.33 200.32 236.68 C 200.32 233.04 203.27 230.08 206.92 230.08 C 210.56 230.08 213.52 233.04 213.52 236.68 C 213.52 240.33 210.56 243.28 206.92 243.28 Z M 252.90 225.00 L 235.08 214.71 L 235.08 194.14 L 252.77 183.93 L 270.72 194.29 L 270.72 214.71 L 252.90 225.00 Z M 315.16 214.71 L 297.34 225.00 L 279.52 214.71 L 279.52 194.29 L 297.47 183.93 L 315.16 194.14 L 315.16 214.71 Z M 372.14 250.66 L 354.32 260.94 L 336.50 250.66 L 336.50 230.08 L 354.32 219.79 L 372.14 230.08 L 372.14 250.66 Z M 391.72 269.68 C 391.72 269.63 391.72 269.58 391.72 269.52 L 396.29 263.43 C 396.94 263.20 397.63 263.09 398.32 263.08 C 401.96 263.08 404.92 266.04 404.92 269.68 C 404.92 273.33 401.96 276.28 398.32 276.28 C 394.67 276.28 391.72 273.33 391.72 269.68 Z" fill="#f4f7ff" fill-rule="nonzero" node-id="379" stroke="none" target-height="178.254" target-width="222.2" target-x="191.519" target-y="106.826"></path><path d="M 246.06 276.59 C 247.41 270.76 247.86 267.05 247.41 265.45 C 246.74 263.04 243.80 258.89 246.06 248.41 C 246.06 246.40 245.75 244.59 245.15 243.00 C 247.25 242.62 248.77 242.96 249.72 244.04 C 252.00 234.23 253.04 227.16 252.82 222.85 C 252.50 216.37 255.00 217.12 256.15 218.04 C 257.31 218.97 258.26 226.30 257.46 233.52 C 259.37 232.19 261.31 232.42 263.30 234.23 C 265.29 233.88 266.86 234.76 268.01 236.88 C 269.48 236.82 270.51 237.74 271.08 239.64 C 271.95 242.50 271.08 249.59 269.65 253.44 C 268.21 257.29 264.44 264.39 263.30 267.06 C 262.54 268.85 262.04 273.62 261.81 281.37 L 246.06 276.59 Z" fill="#ffae9c" fill-rule="evenodd" node-id="381" stroke="none" target-height="63.935608" target-width="26.269592" target-x="245.147" target-y="217.43839"></path><path d="M 174.94 552.83 L 174.94 519.03 L 136.78 517.26 L 140.59 557.49 C 136.28 566.57 134.13 576.05 134.13 585.94 C 134.13 590.45 136.01 605.67 136.78 620.58 C 138.54 654.75 139.92 701.42 138.38 714.47 C 134.32 721.17 134.47 726.51 138.82 730.48 C 141.36 732.79 151.99 738.37 170.70 747.21 L 179.11 740.48 C 170.20 735.13 164.70 730.13 162.60 725.50 C 156.74 712.58 158.37 694.21 159.04 687.61 C 163.96 638.79 169.26 593.86 174.94 552.83 Z" fill="#ffae9c" fill-rule="evenodd" node-id="383" stroke="none" target-height="229.95001" target-width="44.985" target-x="134.128" target-y="517.259"></path><path d="M 136.60 717.23 C 134.35 724.61 133.60 730.99 134.35 736.37 C 135.10 741.76 135.43 746.72 135.33 751.25 L 141.64 751.25 L 141.64 736.37 C 147.48 745.45 151.66 750.41 154.20 751.25 C 178.58 751.25 190.78 751.25 190.78 751.25 C 190.78 751.25 192.90 745.91 183.14 741.49 C 176.63 738.54 172.43 736.26 170.52 734.65 C 172.61 736.95 171.51 738.10 167.21 738.10 C 160.77 738.10 152.82 734.55 149.60 727.89 C 147.46 723.46 143.13 719.90 136.60 717.23 Z" fill="#000000" fill-rule="evenodd" node-id="385" stroke="none" target-height="34.020996" target-width="56.887817" target-x="134.06763" target-y="717.232"></path><path d="M 130.94 552.83 L 130.94 519.03 L 92.78 519.03 L 96.59 557.49 C 92.28 566.57 90.13 576.05 90.13 585.94 C 90.13 590.45 92.01 605.67 92.78 620.58 C 94.54 654.75 95.92 701.42 94.38 714.47 C 90.32 721.17 90.47 726.51 94.82 730.48 C 97.36 732.79 107.99 738.37 126.70 747.21 L 135.11 740.48 C 126.20 735.13 120.70 730.13 118.60 725.50 C 112.74 712.58 114.37 694.21 115.04 687.61 C 119.96 638.79 125.26 593.86 130.94 552.83 Z" fill="#ffae9c" fill-rule="evenodd" node-id="387" stroke="none" target-height="228.17896" target-width="44.985207" target-x="90.1278" target-y="519.03"></path><path d="M 92.60 717.23 C 90.35 724.61 89.60 730.99 90.35 736.37 C 91.10 741.76 91.43 746.72 91.33 751.25 L 97.64 751.25 L 97.64 736.37 C 103.48 745.45 107.66 750.41 110.20 751.25 C 134.58 751.25 146.78 751.25 146.78 751.25 C 146.78 751.25 150.27 746.60 139.14 741.49 C 131.72 738.08 127.41 735.66 126.21 734.24 C 128.58 737.95 127.62 739.80 123.32 739.80 C 116.88 739.80 109.96 736.90 105.60 727.89 C 102.70 721.89 98.37 718.34 92.60 717.23 Z" fill="#000000" fill-rule="evenodd" node-id="389" stroke="none" target-height="34.020996" target-width="57.22644" target-x="90.06746" target-y="717.232"></path><path d="M 94.54 418.13 C 85.53 429.42 82.76 444.14 86.26 462.28 C 89.75 480.42 90.96 509.03 89.90 548.12 L 178.87 548.12 C 185.30 523.89 187.83 501.81 186.48 481.87 C 183.95 444.73 175.02 419.42 175.02 406.73 L 101.99 406.73 L 94.54 418.13 Z" fill="#004de6" fill-rule="evenodd" node-id="391" stroke="none" target-height="141.384" target-width="102.01721" target-x="84.79811" target-y="406.731"></path><path d="M 150.81 229.51 C 149.95 220.53 145.26 213.32 136.75 207.88 C 123.97 199.71 90.52 214.59 93.45 240.20 C 95.40 257.27 108.12 267.56 131.62 271.05 L 150.81 229.51 Z" fill="#7d1c1c" fill-rule="evenodd" node-id="393" stroke="none" target-height="65.39253" target-width="57.509613" target-x="93.29939" target-y="205.65648"></path><path d="M 76.50 245.40 C 77.91 249.02 79.22 251.42 80.42 252.61 C 85.52 257.66 92.15 257.60 97.39 252.35 C 101.54 261.78 109.37 267.46 120.88 269.38" fill="none" node-id="395" stroke="#7d1c1c" stroke-linecap="butt" stroke-width="1.21" target-height="23.981003" target-width="44.3789" target-x="76.4961" target-y="245.395"></path><path d="M 96.97 225.15 C 92.20 221.50 86.82 221.55 80.83 225.29 C 71.84 230.90 74.04 250.83 83.31 254.29 C 89.48 256.60 94.43 255.69 98.15 251.56 L 96.97 225.15 Z" fill="#7d1c1c" fill-rule="evenodd" node-id="397" stroke="none" target-height="33.08435" target-width="23.003647" target-x="75.147255" target-y="222.4502"></path><path d="M 120.64 253.86 C 119.42 253.21 115.19 248.14 117.88 245.27 C 119.67 243.35 121.70 243.66 123.97 246.19 C 138.61 239.63 145.83 231.19 145.63 220.86 C 148.77 222.42 151.31 228.51 153.23 239.12 C 158.01 243.87 160.39 246.51 160.37 247.04 C 160.34 247.58 159.06 248.73 156.51 250.51 C 156.65 254.46 156.81 257.16 156.98 258.60 C 157.67 264.24 155.77 266.67 153.52 267.98 C 150.50 269.74 146.58 270.33 141.75 269.77 L 144.17 285.71 L 117.88 285.71 L 120.64 253.86 Z" fill="#ffae9c" fill-rule="nonzero" group-id="3" node-id="401" stroke="none" target-height="64.850006" target-width="43.356583" target-x="117.00842" target-y="220.858"></path><path d="M 141.75 269.77 L 134.39 267.06 C 135.23 274.28 138.56 280.44 144.40 285.54 L 141.75 269.77 Z" fill="#f99b86" fill-rule="evenodd" group-id="3" node-id="403" stroke="none" target-height="18.483978" target-width="10.002991" target-x="134.393" target-y="267.058"></path><path d="M 148.65 239.80 C 148.02 240.37 147.04 240.31 146.47 239.68 C 145.90 239.04 145.95 238.07 146.58 237.50 C 147.21 236.93 148.19 236.98 148.76 237.62 C 149.33 238.25 149.28 239.23 148.65 239.80 Z" fill="#000000" fill-rule="nonzero" group-id="3" node-id="405" stroke="none" target-height="3.0830078" target-width="3.0819855" target-x="146.074" target-y="237.105"></path><path d="M 156.76 255.34 L 150.69 255.67 C 152.57 258.03 154.69 259.05 157.02 258.74 L 156.76 255.34 Z" fill="#ffffff" fill-rule="evenodd" group-id="3" node-id="407" stroke="none" target-height="3.4029999" target-width="6.3339996" target-x="150.686" target-y="255.338"></path><path d="M 148.82 233.06 C 146.27 233.57 144.24 234.80 142.74 236.75" fill="none" group-id="3" node-id="409" stroke="#000000" stroke-linecap="butt" stroke-width="1.21" target-height="3.6869965" target-width="6.0890045" target-x="142.736" target-y="233.06"></path><path d="M 96.48 224.59 C 92.80 234.86 93.11 244.11 97.39 252.35" fill="none" node-id="412" stroke="#ffffff" stroke-linecap="butt" stroke-width="1.21" target-height="27.753006" target-width="3.4510117" target-x="93.93899" target-y="224.594"></path><path d="M 145.63 220.86 C 148.11 231.92 140.88 240.25 123.95 245.84" fill="none" node-id="414" stroke="#7d1c1c" stroke-linecap="butt" stroke-width="1.21" target-height="24.981995" target-width="22.126266" target-x="123.95" target-y="220.858"></path><path d="M 241.27 275.16 L 265.22 279.32 C 261.83 328.26 255.77 352.73 247.04 352.73 C 238.30 352.73 216.52 348.19 181.68 339.11 C 187.05 347.45 185.45 357.27 176.88 368.60 C 172.13 373.94 173.67 393.51 181.52 427.32 L 109.99 427.47 L 109.99 410.94 L 100.20 427.47 L 88.09 427.32 C 70.81 403.49 63.25 387.75 65.40 380.09 C 68.63 368.60 96.08 303.32 102.17 295.44 C 106.23 290.19 111.10 286.94 116.78 285.71 C 132.85 284.83 142.35 284.83 145.28 285.71 C 148.21 286.58 151.58 288.05 155.39 290.10 C 166.51 289.54 185.29 296.41 211.73 310.69 L 231.73 320.16 L 241.27 275.16 Z M 94.52 383.58 L 98.81 397.52 C 101.64 388.10 103.21 381.13 103.50 376.61 C 103.78 372.10 103.31 367.61 102.07 363.13 L 94.52 383.58 Z" fill="#ffffff" fill-rule="nonzero" group-id="4" node-id="418" stroke="none" target-height="152.30301" target-width="200.16199" target-x="65.05701" target-y="275.163"></path><path d="M 116.78 285.71 C 100.06 289.82 93.22 305.31 96.27 332.16 C 100.84 372.45 108.11 367.82 99.05 396.75 C 93.02 416.04 88.61 427.60 85.85 431.43 L 60.62 385.33 L 64.75 376.12 L 92.60 304.21 L 109.58 281.99 L 116.78 285.71 Z" fill="#d6dff3" fill-rule="evenodd" group-id="4" node-id="420" stroke="none" target-height="149.43799" target-width="56.163795" target-x="60.6192" target-y="281.993"></path><path d="M 156.63 288.00 L 107.39 288.89 L 119.78 281.99 L 144.71 283.47 L 156.63 288.00 Z" fill="#d6dff3" fill-rule="evenodd" group-id="4" node-id="422" stroke="none" target-height="6.901001" target-width="49.237" target-x="107.392" target-y="281.993"></path><path d="M 232.34 315.82 L 230.20 331.62 L 213.66 310.86 L 232.34 315.82 Z" fill="#d6dff3" fill-rule="evenodd" group-id="4" node-id="424" stroke="none" target-height="20.76001" target-width="18.680008" target-x="213.659" target-y="310.86"></path><path d="M 184.84 339.96 L 167.97 335.85 C 179.22 342.50 184.84 348.31 184.84 353.29 C 186.50 350.61 187.16 348.28 186.81 346.33 C 186.47 344.37 185.81 342.25 184.84 339.96 Z" fill="#d6dff3" fill-rule="evenodd" group-id="4" node-id="426" stroke="none" target-height="17.442993" target-width="18.87535" target-x="167.973" target-y="335.849"></path><path d="M 622.36 724.07 L 622.36 743.92 L 597.38 746.27 L 597.38 740.57 L 587.22 748.70 C 564.03 751.84 551.08 752.93 548.37 751.97 C 544.30 750.54 543.39 741.88 551.29 739.52 C 559.20 737.17 573.86 730.37 577.22 720.58 C 584.51 723.78 591.37 725.55 597.79 725.89 C 604.23 726.22 612.41 725.62 622.36 724.07 Z" fill="#000000" fill-rule="evenodd" node-id="429" stroke="none" target-height="31.69043" target-width="77.01172" target-x="545.34326" target-y="720.584"></path><path d="M 685.80 724.07 L 685.80 743.92 L 660.83 746.27 L 660.83 740.57 L 650.66 748.70 C 627.48 751.84 614.53 752.93 611.82 751.97 C 607.75 750.54 606.84 741.88 614.74 739.52 C 622.64 737.17 637.30 730.37 640.67 720.58 C 647.96 723.78 654.81 725.55 661.24 725.89 C 667.67 726.22 675.86 725.62 685.80 724.07 Z" fill="#000000" fill-rule="evenodd" node-id="431" stroke="none" target-height="31.69043" target-width="77.01166" target-x="608.7913" target-y="720.584"></path><path d="M 576.95 721.77 L 562.39 534.47 L 584.01 390.64 C 587.24 392.30 595.91 393.13 610.01 393.13 C 624.11 393.13 645.67 392.03 674.69 389.81 C 693.89 408.26 700.26 444.19 693.79 497.61 C 691.76 514.32 688.87 538.36 685.10 569.74 L 686.85 726.64 C 672.76 728.11 661.60 728.41 653.36 727.55 C 645.13 726.68 640.82 724.76 640.44 721.77 L 632.02 569.74 L 632.02 472.48 L 615.89 564.73 L 623.11 726.64 C 609.34 727.94 599.21 728.24 592.74 727.55 C 586.27 726.85 581.01 724.92 576.95 721.77 Z" fill="#000946" fill-rule="nonzero" group-id="5" node-id="435" stroke="none" target-height="338.1809" target-width="133.83002" target-x="562.393" target-y="389.815"></path><path d="M 590.12 391.46 L 630.90 391.46 L 630.90 400.53 C 622.60 401.59 615.60 402.13 609.93 402.13 C 604.25 402.13 597.65 401.59 590.12 400.53 L 590.12 391.46 Z" fill="#0d0a0a" fill-rule="evenodd" group-id="5" node-id="437" stroke="none" target-height="10.666992" target-width="40.788025" target-x="590.115" target-y="391.462"></path><path d="M 524.80 310.42 L 519.46 304.91 C 516.78 296.25 511.75 290.38 504.39 287.32 C 497.02 284.26 492.16 280.83 489.81 277.03 C 486.83 280.56 486.83 283.65 489.81 286.31 C 494.28 290.30 498.63 292.08 498.63 293.19 C 498.63 293.93 495.51 294.11 489.27 293.72 C 488.56 290.31 486.93 288.42 484.37 288.06 L 483.92 292.68 L 482.22 292.33 C 483.02 284.94 481.01 280.71 476.21 279.66 L 476.73 287.72 C 472.65 280.75 468.15 277.91 463.22 279.21 L 476.73 297.72 C 477.51 300.67 479.65 302.26 483.14 302.48 C 483.14 307.37 484.63 309.81 487.60 309.81 C 488.24 314.75 491.14 317.31 496.29 317.49 C 504.01 317.76 507.63 317.32 513.55 323.99 L 517.09 327.94 C 526.29 320.42 530.89 316.66 530.89 316.66 C 530.89 316.66 528.86 314.58 524.80 310.42 Z" fill="#ff927a" fill-rule="nonzero" group-id="6" node-id="442" stroke="none" target-height="50.91101" target-width="67.66998" target-x="463.219" target-y="277.029"></path><path d="M 476.71 286.89 L 476.71 297.30" fill="none" group-id="6" node-id="444" stroke="#7d1c1c" stroke-linecap="butt" stroke-width="1.346" target-height="10.404022" target-width="0" target-x="476.712" target-y="286.895"></path><path d="M 483.99 292.10 L 483.14 302.80" fill="none" group-id="6" node-id="446" stroke="#7d1c1c" stroke-linecap="butt" stroke-width="1.346" target-height="10.703003" target-width="0.84399414" target-x="483.144" target-y="292.097"></path><path d="M 496.52 313.13 C 492.95 311.68 492.02 308.65 493.72 304.05 C 495.43 299.46 494.76 296.95 491.72 296.55 C 488.26 302.42 486.94 307.22 487.77 310.95" fill="none" group-id="6" node-id="448" stroke="#7d1c1c" stroke-linecap="butt" stroke-width="1.346" target-height="16.580994" target-width="8.992371" target-x="487.53064" target-y="296.549"></path><path d="M 499.05 294.20 C 498.36 299.37 501.15 303.01 507.41 305.11" fill="none" group-id="6" node-id="450" stroke="#7d1c1c" stroke-linecap="butt" stroke-width="1.346" target-height="10.914001" target-width="8.419312" target-x="498.9907" target-y="294.199"></path><path d="M 495.11 309.36 C 497.11 309.35 499.58 308.92 502.51 308.07 C 505.45 307.22 508.62 307.34 512.02 308.41" fill="none" group-id="6" node-id="452" stroke="#7d1c1c" stroke-linecap="butt" stroke-width="1.346" target-height="1.8124695" target-width="16.90503" target-x="495.112" target-y="307.54852"></path><path d="M 643.30 246.44 C 659.80 248.66 672.86 251.64 682.50 255.39 C 696.96 261.02 734.32 342.25 732.45 377.21 C 731.21 400.52 717.36 409.27 690.92 403.45 L 703.69 435.57 L 651.41 435.57 L 625.94 393.26 L 592.45 393.21 C 592.36 400.84 590.72 408.32 587.53 415.66 C 584.35 422.99 579.34 431.61 572.53 441.49 L 584.59 385.25 C 582.58 387.88 580.11 389.09 577.18 388.89 C 565.74 387.47 541.35 367.58 504.01 329.22 L 527.69 305.05 L 567.05 334.08 C 571.15 308.37 574.52 289.33 577.18 276.95 C 579.84 264.57 587.22 257.76 599.32 256.53 L 609.39 250.69 L 643.30 246.44 Z M 678.86 329.91 L 686.22 362.76 L 696.52 363.75 L 678.86 329.91 Z" fill="#ffffff" fill-rule="nonzero" group-id="7" node-id="457" stroke="none" target-height="195.05598" target-width="228.45505" target-x="504.007" target-y="246.438"></path><path d="M 640.22 247.11 C 646.89 253.66 652.11 265.40 655.86 282.32 L 641.50 288.60 L 653.16 293.67 C 635.78 321.84 625.64 342.95 622.76 357.03 C 621.43 321.52 623.21 294.71 628.09 276.62 L 636.85 260.50 L 640.22 247.11 Z" fill="#e7eeff" fill-rule="evenodd" group-id="7" node-id="459" stroke="none" target-height="109.92" target-width="33.504272" target-x="622.3587" target-y="247.109"></path><path d="M 609.37 251.53 C 597.28 259.88 589.60 269.17 586.33 279.42 L 592.66 281.58 L 586.33 288.13 L 593.38 351.33 C 594.27 325.56 595.76 303.52 597.85 285.20 C 599.94 266.87 603.78 255.65 609.37 251.53 Z" fill="#e7eeff" fill-rule="evenodd" group-id="7" node-id="461" stroke="none" target-height="99.79698" target-width="23.038025" target-x="586.331" target-y="251.533"></path><path d="M 621.61 381.93 L 694.00 404.24 L 705.00 451.16 L 621.61 381.93 Z" fill="#e7eeff" fill-rule="evenodd" group-id="7" node-id="463" stroke="none" target-height="69.225006" target-width="83.39606" target-x="621.608" target-y="381.931"></path><path d="M 638.14 246.44 C 640.91 250.86 640.91 256.34 638.14 262.88 C 635.36 269.42 631.85 273.66 627.59 275.59 C 620.43 329.34 620.43 372.14 627.59 403.99 L 595.70 412.72 C 590.58 393.70 591.14 347.00 597.37 272.60 C 599.52 266.86 601.24 262.92 602.53 260.78 C 604.49 257.55 607.66 253.44 612.02 248.45 L 612.59 248.45 L 638.14 246.44 Z" fill="#77c5ff" fill-rule="evenodd" group-id="7" node-id="465" stroke="none" target-height="166.28398" target-width="47.960083" target-x="592.2527" target-y="246.438"></path><path d="M 622.76 358.83 L 706.28 366.82 C 712.12 368.28 715.98 370.86 717.86 374.56 C 716.51 370.09 713.75 367.07 709.56 365.49 C 708.80 365.20 703.14 364.50 692.56 363.38 L 672.70 315.52 L 677.15 361.64 L 622.76 358.83 Z" fill="#e7eeff" fill-rule="evenodd" group-id="7" node-id="467" stroke="none" target-height="59.04001" target-width="95.09595" target-x="622.762" target-y="315.517"></path><path d="M 565.76 331.09 L 576.35 356.09 L 569.79 311.17 L 565.76 331.09 Z" fill="#e7eeff" fill-rule="evenodd" group-id="7" node-id="469" stroke="none" target-height="44.923004" target-width="10.589966" target-x="565.76" target-y="311.165"></path><path d="M 622.23 359.69 C 615.73 359.78 611.88 359.42 610.68 358.62 C 608.88 357.42 603.53 351.65 592.68 353.97 C 584.30 354.45 578.11 353.35 574.11 350.67 C 573.38 354.69 574.36 357.34 577.03 358.62 C 579.71 359.90 584.42 361.61 591.17 363.76 C 583.34 372.86 578.84 377.42 577.67 377.42 C 575.91 377.42 558.08 374.28 554.99 380.44 C 572.67 383.91 582.46 385.19 584.34 384.27 C 585.68 387.67 587.96 389.12 591.17 388.63 C 595.99 387.89 609.52 378.40 612.89 378.40 C 615.14 378.40 618.66 378.74 623.47 379.42 C 623.07 375.17 622.80 371.93 622.66 369.70 C 622.52 367.46 622.38 364.13 622.23 359.69 Z" fill="#ff927a" fill-rule="nonzero" group-id="8" node-id="474" stroke="none" target-height="38.012024" target-width="68.474976" target-x="554.992" target-y="350.674"></path><path d="M 591.24 365.22 L 596.03 358.90" fill="none" group-id="8" node-id="476" stroke="#7d1c1c" stroke-linecap="butt" stroke-width="1.346" target-height="6.3139954" target-width="4.78302" target-x="591.243" target-y="358.902"></path><path d="M 585.47 384.27 L 589.74 379.74" fill="none" group-id="8" node-id="478" stroke="#7d1c1c" stroke-linecap="butt" stroke-width="1.346" target-height="4.524994" target-width="4.2699585" target-x="585.473" target-y="379.743"></path><path d="M 588.37 388.23 L 593.10 383.36" fill="none" group-id="8" node-id="480" stroke="#7d1c1c" stroke-linecap="butt" stroke-width="1.346" target-height="4.8779907" target-width="4.7279663" target-x="588.367" target-y="383.355"></path><path d="M 591.47 201.68 C 590.32 200.14 584.56 184.59 589.88 178.68 C 595.65 172.29 626.52 173.79 629.75 175.11 C 633.43 176.62 635.38 178.95 635.60 182.12 C 641.13 182.05 644.15 184.36 644.65 189.04 C 645.15 193.73 643.34 201.86 639.23 213.44 L 631.51 212.86 C 606.64 207.86 593.30 204.13 591.47 201.68 Z" fill="#2c1919" fill-rule="evenodd" node-id="483" stroke="none" target-height="39.433746" target-width="57.0047" target-x="587.661" target-y="174.00325"></path><path d="M 610.77 269.41 L 617.81 272.78 C 632.18 271.20 639.38 267.75 639.41 262.45 C 639.44 256.67 638.89 242.94 637.74 221.28 C 642.31 217.51 647.50 203.00 639.65 206.58 C 639.15 206.89 638.82 207.26 638.65 207.70 C 637.86 209.73 637.45 211.91 637.09 211.91 C 636.45 211.91 634.41 204.00 633.17 203.72 C 631.80 203.41 630.73 202.40 629.98 200.70 L 629.98 200.70 C 628.05 196.34 623.60 193.66 618.85 194.00 C 612.74 194.42 607.92 194.64 604.40 194.64 C 599.16 194.64 594.53 193.90 590.50 192.41 C 589.59 227.85 595.76 246.10 609.03 247.16 L 609.03 252.11 C 604.52 262.71 603.22 269.01 605.12 270.99 C 605.31 271.18 607.19 270.65 610.77 269.41 Z" fill="#ff927a" fill-rule="nonzero" group-id="9" node-id="487" stroke="none" target-height="80.375" target-width="53.22589" target-x="590.46027" target-y="192.409"></path><path d="M 608.32 247.17 C 616.70 247.01 623.03 244.35 627.30 239.18 C 625.36 251.32 619.56 259.87 609.91 264.82 C 600.25 269.78 599.73 263.89 608.32 247.17 Z" fill="#e1806a" fill-rule="evenodd" group-id="9" node-id="489" stroke="none" target-height="27.344757" target-width="24.991272" target-x="602.3117" target-y="239.176"></path><path d="M 635.26 207.41 C 635.41 207.99 635.41 208.81 635.26 209.87 C 633.19 224.95 627.00 231.43 623.06 231.43 C 616.88 231.43 615.82 229.79 611.01 228.01 C 606.20 226.23 601.73 226.40 597.75 229.09 C 595.09 230.89 593.29 229.96 592.33 226.31 C 595.51 239.90 601.13 246.93 609.16 247.42 C 621.22 248.16 628.11 239.07 630.78 235.01 C 631.94 233.24 634.30 224.98 637.85 210.22 L 635.26 207.41 Z" fill="#2c1919" fill-rule="evenodd" group-id="9" node-id="491" stroke="none" target-height="40.018997" target-width="45.523987" target-x="592.327" target-y="207.405"></path><path d="M 599.40 232.61 L 611.74 232.61 C 609.50 235.99 607.29 237.69 605.11 237.69 C 602.92 237.69 601.02 235.99 599.40 232.61 Z" fill="#eeecea" fill-rule="evenodd" group-id="9" node-id="493" stroke="none" target-height="5.074005" target-width="12.336975" target-x="599.401" target-y="232.611"></path><path d="M 603.22 214.18 L 602.15 221.53 C 601.89 223.30 603.12 224.94 604.88 225.19 C 605.04 225.21 605.19 225.22 605.35 225.22 L 606.96 225.22" fill="none" group-id="9" node-id="495" stroke="#000000" stroke-linecap="butt" stroke-width="1.6152" target-height="11.048996" target-width="4.8049927" target-x="602.151" target-y="214.175"></path><path d="M 609.57 214.96 C 610.37 214.96 611.01 214.28 611.01 213.44 C 611.01 212.59 610.37 211.91 609.57 211.91 C 608.77 211.91 608.13 212.59 608.13 213.44 C 608.13 214.28 608.77 214.96 609.57 214.96 Z" fill="#000000" fill-rule="nonzero" group-id="9" node-id="497" stroke="none" target-height="3.050003" target-width="2.8809814" target-x="608.13" target-y="211.912"></path><path d="M 597.09 214.96 C 597.88 214.96 598.53 214.28 598.53 213.44 C 598.53 212.59 597.88 211.91 597.09 211.91 C 596.29 211.91 595.65 212.59 595.65 213.44 C 595.65 214.28 596.29 214.96 597.09 214.96 Z" fill="#000000" fill-rule="nonzero" group-id="9" node-id="499" stroke="none" target-height="3.050003" target-width="2.8809814" target-x="595.646" target-y="211.912"></path><path d="M 606.32 206.87 C 608.98 205.62 611.46 205.48 613.78 206.45" fill="none" group-id="9" node-id="501" stroke="#000000" stroke-linecap="butt" stroke-width="1.6152" target-height="1.0477905" target-width="7.460022" target-x="606.321" target-y="205.8262"></path><path d="M 598.10 206.65 C 596.47 206.02 594.71 205.94 592.82 206.42" fill="none" group-id="9" node-id="503" stroke="#000000" stroke-linecap="butt" stroke-width="1.6152" target-height="0.53009033" target-width="5.281006" target-x="592.823" target-y="206.12291"></path><path d="M 595.22 219.93 C 598.53 219.93 601.22 217.24 601.22 213.93 C 601.22 210.61 598.53 207.93 595.22 207.93 C 591.90 207.93 589.22 210.61 589.22 213.93 C 589.22 217.24 591.90 219.93 595.22 219.93 Z" fill="none" node-id="506" stroke="#000000" stroke-linecap="butt" stroke-width="1" target-height="12" target-width="12" target-x="589.219" target-y="207.926"></path><path d="M 610.22 219.93 C 613.53 219.93 616.22 217.24 616.22 213.93 C 616.22 210.61 613.53 207.93 610.22 207.93 C 606.90 207.93 604.22 210.61 604.22 213.93 C 604.22 217.24 606.90 219.93 610.22 219.93 Z" fill="none" node-id="508" stroke="#000000" stroke-linecap="butt" stroke-width="1" target-height="12" target-width="12" target-x="604.219" target-y="207.926"></path><path d="M 601.22 213.44 L 604.29 213.44" fill="none" node-id="510" stroke="#000000" stroke-linecap="butt" stroke-width="1" target-height="0" target-width="3.0670166" target-x="601.219" target-y="213.437"></path><path d="M 616.23 213.44 L 639.10 206.38" fill="none" node-id="512" stroke="#000000" stroke-linecap="butt" stroke-width="1" target-height="7.0549927" target-width="22.872986" target-x="616.226" target-y="206.382"></path><path d="M 639.11 246.51 C 632.16 263.40 622.72 271.04 610.77 269.41 L 629.24 282.40 C 634.93 274.41 638.77 266.89 640.74 259.82 C 642.72 252.75 642.17 248.31 639.11 246.51 Z" fill="#41a3ff" fill-rule="evenodd" node-id="514" stroke="none" target-height="35.884003" target-width="31.134338" target-x="610.767" target-y="246.513"></path><path d="M 609.08 251.61 C 601.56 258.07 597.17 265.91 595.93 275.12 L 610.77 269.40 C 606.81 267.20 605.28 264.77 606.19 262.14 C 607.10 259.51 608.08 257.36 609.15 255.71 L 609.08 251.61 Z" fill="#41a3ff" fill-rule="evenodd" node-id="516" stroke="none" target-height="23.51001" target-width="14.834045" target-x="595.933" target-y="251.608"></path></svg>
