<?xml version="1.0" standalone="no"?><!DOCTYPE svg PUBLIC "-//W3C//DTD SVG 1.1//EN" "http://www.w3.org/Graphics/SVG/1.1/DTD/svg11.dtd"><svg t="1698743909244" class="icon" viewBox="0 0 1024 1024" version="1.1" xmlns="http://www.w3.org/2000/svg" p-id="29519" xmlns:xlink="http://www.w3.org/1999/xlink" width="200" height="200"><path d="M522.938 97.42h-104.884l-26.828 121.556 85.876 38.314 72.672-38.314z m0 0" fill="#FC445F" p-id="29520"></path><path d="M470.484 254.328l-79.258-35.36 26.844-121.546h33.212l-9.852 121.546z m0 0M473.914 255.868l-0.992 1.42-2.438-2.96z m0 0" fill="#DB0E35" p-id="29521"></path><path d="M965.18 775.626l-509.906 42.906-255.72-27.68-140.74-15.226-0.572-274.876L147.26 279.46l3.9-9.648a79.506 79.506 0 0 1 73.74-49.804h360.266A43.032 43.032 0 0 1 627.016 253l6.352 26.46 53.124 221.29 212.384 30.58c20.88 3 37.21 19.56 39.928 40.49z m0 0" fill="#5EB3DD" p-id="29522"></path><path d="M686.492 500.75v298.312l-231.22 19.47-252.006-27.274V430.38z m0 0" fill="#FFF5D7" p-id="29523"></path><path d="M196.594 775.626a126.37 126.37 0 0 1 2.96 15.226l-140.74-15.228-0.572-274.874L147.26 279.46l3.9-9.648a79.506 79.506 0 0 1 73.74-49.804h77.118c-47.57 0-151.914 375.274-105.422 555.618z m0 0" fill="#369AC1" p-id="29524"></path><path d="M1008.79 819.226c0 12.048-4.884 22.938-12.774 30.844a43.556 43.556 0 0 1-30.844 12.76H58.804c-24.094 0-43.594-19.51-43.594-43.604a43.416 43.416 0 0 1 12.774-30.82 43.42 43.42 0 0 1 30.82-12.774h906.368c15.312 0 28.774 7.892 36.546 19.814a43.3 43.3 0 0 1 7.072 23.78z m0 0" fill="#B3B3B3" p-id="29525"></path><path d="M1001.72 795.446a42.7 42.7 0 0 1-5.704 7.054 43.556 43.556 0 0 1-30.844 12.758H58.804c-15.312 0-28.772-7.89-36.54-19.812a43.494 43.494 0 0 1 5.72-7.04 43.42 43.42 0 0 1 30.82-12.774h906.368c15.312 0 28.774 7.892 36.546 19.814z m0 0" fill="#E5E5E5" p-id="29526"></path><path d="M379.86 819.234c0 75.524-61.228 136.75-136.75 136.75-75.524 0-136.742-61.226-136.742-136.75s61.218-136.75 136.74-136.75c75.524 0 136.752 61.226 136.752 136.75z m0 0" fill="#3E4C56" p-id="29527"></path><path d="M306.882 819.234c0 35.22-28.554 63.766-63.772 63.766-35.22 0-63.766-28.546-63.766-63.766s28.546-63.766 63.766-63.766 63.772 28.548 63.772 63.766z m0 0" fill="#E5E5E5" p-id="29528"></path><path d="M873.656 819.234c0 75.524-61.226 136.75-136.75 136.75s-136.75-61.226-136.75-136.75 61.226-136.75 136.75-136.75 136.75 61.226 136.75 136.75z m0 0" fill="#3E4C56" p-id="29529"></path><path d="M800.672 819.234c0 35.22-28.548 63.766-63.766 63.766s-63.766-28.546-63.766-63.766 28.548-63.766 63.766-63.766 63.766 28.548 63.766 63.766z m0 0" fill="#E5E5E5" p-id="29530"></path><path d="M686.492 500.75H145.476l75.266-221.368 412.626 0.08z m0 0" fill="#8FD0E5" p-id="29531"></path><path d="M586.968 279.46l-107.264 221.29h-276.44l107.268-221.29z m0 0" fill="#AAE3F9" p-id="29532"></path><path d="M784.946 588.914h100.844l10.14 52.852h-80.562z m0 0M496.906 544.968l27.656 56.032 61.828 8.984-44.74 43.61 10.56 61.586-55.304-29.08-55.296 29.08 10.554-61.586-44.742-43.61 61.836-8.984z m0 0" fill="#F9C84E" p-id="29533"></path><path d="M243.118 740.258c-43.556 0-78.978 35.43-78.978 78.976 0 43.548 35.43 78.976 78.978 78.976 43.546 0 78.968-35.428 78.968-78.976 0-43.546-35.422-78.976-78.968-78.976z m0 127.54c-26.782 0-48.564-21.782-48.564-48.564 0-26.774 21.782-48.554 48.564-48.554 26.772 0 48.554 21.78 48.554 48.554 0 26.78-21.78 48.562-48.554 48.562z m0 0M736.9 740.25c-43.548 0-78.98 35.43-78.98 78.984 0 43.548 35.432 78.976 78.98 78.976 4.444 0 8.896-0.374 13.226-1.108a15.2 15.2 0 0 0 12.452-17.532 15.204 15.204 0 0 0-17.532-12.452c-2.664 0.452-5.398 0.68-8.148 0.68-26.772 0-48.562-21.79-48.562-48.564 0-26.78 21.79-48.57 48.562-48.57 26.78 0 48.562 21.79 48.562 48.57a48.28 48.28 0 0 1-4.256 19.922 15.198 15.198 0 0 0 7.64 20.1 15.2 15.2 0 0 0 20.1-7.63 78.53 78.53 0 0 0 6.94-32.392c0-43.554-35.43-78.984-78.986-78.984z m0 0" p-id="29534"></path><path d="M978.758 762.024l-24.876-192.172c-3.586-27.586-25.312-49.61-52.842-53.57l-202.172-29.126-57.064-237.71c-6.304-26.282-29.6-44.634-56.64-44.634h-23.18l-24.194-109.624a15.204 15.204 0 0 0-14.844-11.93h-104.892a15.206 15.206 0 0 0-14.85 11.93l-24.196 109.624H224.88c-38.836 0-73.312 23.29-87.842 59.336l-13.236 32.93a15.2 15.2 0 0 0 8.43 19.78 15.21 15.21 0 0 0 19.79-8.436l13.234-32.922c9.86-24.46 33.266-40.274 59.624-40.274h360.282c12.922 0 24.054 8.766 27.062 21.314l1.836 7.632h-393.32a15.22 15.22 0 0 0-14.4 10.312L131.08 495.852a15.224 15.224 0 0 0 2.032 13.75 15.224 15.224 0 0 0 12.366 6.352h42.586v161.694c-38.312 14.946-69.124 44.97-85.054 82.78H73.984l-0.53-256.764 55.936-138.992a15.206 15.206 0 0 0-8.43-19.78 15.204 15.204 0 0 0-19.788 8.428l-57.04 141.742a15.336 15.336 0 0 0-1.1 5.704l0.54 261.656a58.164 58.164 0 0 0-26.33 15.22C6.124 788.732 0 803.5 0 819.224c0 32.43 26.382 58.806 58.804 58.806h44.204c23.024 54.68 77.156 93.156 140.11 93.156 62.944 0 117.078-38.478 140.108-93.156h213.57c23.032 54.68 77.158 93.156 140.11 93.156s117.08-38.478 140.11-93.156h88.164c15.694 0 30.46-6.102 41.61-17.22 11.1-11.132 17.21-25.898 17.21-41.586 0-27.75-19.336-51.054-45.242-57.202zM410.148 204.812l20.126-91.14h80.444l20.118 91.14zM923.72 573.766l13.298 102.726h-22.626a15.208 15.208 0 0 0 0 30.414h26.564l1.5 11.554h-28.064a15.208 15.208 0 0 0-15.21 15.212c0 8.4 6.804 15.21 15.21 15.21h32l1.492 11.548h-70.866c-23.04-54.672-77.156-93.148-140.11-93.148-12.116 0-23.9 1.468-35.202 4.156v-153.14l195.014 28.092c14.064 2.024 25.172 13.28 27 27.376zM667.204 485.54H453.954v-190.954h167.406z m-403.626 0v-190.954h159.96v190.954z m-31.946-190.954h1.524v190.954H166.71z m-13.156 221.368h452.806v166.24c-33.392 16.056-60.04 43.962-74.486 78.236H383.22c-23.03-54.672-77.156-93.148-140.1-93.148-8.392 0-16.618 0.71-24.64 2.022zM58.804 847.618c-15.656 0-28.39-12.736-28.39-28.392 0-7.586 2.954-14.71 8.336-20.078 5.336-5.36 12.46-8.304 20.046-8.304H93.86a151.824 151.824 0 0 0-2.704 28.39 152.4 152.4 0 0 0 2.696 28.384z m184.314 93.156c-67.024 0-121.54-54.524-121.54-121.54s54.524-121.54 121.54-121.54c67.006 0 121.53 54.524 121.53 121.54s-54.524 121.54-121.53 121.54z m149.25-93.156a151.74 151.74 0 0 0 2.702-28.384c0-9.702-0.952-19.188-2.702-28.39h195.28a152.484 152.484 0 0 0-2.694 28.39c0 9.704 0.944 19.18 2.694 28.384z m344.54 93.156c-67.018 0-121.54-54.524-121.54-121.54s54.522-121.54 121.54-121.54 121.538 54.524 121.538 121.54-54.524 121.54-121.54 121.54z m248.374-101.47a28.31 28.31 0 0 1-20.11 8.314h-79.016a151.678 151.678 0 0 0 2.704-28.384c0-9.702-0.954-19.188-2.704-28.39H965.196c15.656 0.008 28.39 12.742 28.39 28.39 0 7.57-2.96 14.712-8.304 20.07z m0 0" p-id="29535"></path><path d="M802.188 649.352a15.192 15.192 0 0 0 13.18 7.624h80.56a15.202 15.202 0 0 0 11.728-5.522 15.24 15.24 0 0 0 3.212-12.556l-10.14-52.844a15.21 15.21 0 0 0-14.94-12.344h-100.842a15.208 15.208 0 0 0-13.18 22.796z m71.04-45.228l4.304 22.43h-53.368l-12.914-22.43z m0 0M435.828 658.906l-9.21 53.704a15.222 15.222 0 0 0 6.046 14.874 15.228 15.228 0 0 0 16.016 1.156l48.226-25.36 48.226 25.36a15.172 15.172 0 0 0 7.08 1.742 15.152 15.152 0 0 0 8.936-2.906 15.174 15.174 0 0 0 6.048-14.866l-9.204-53.704 39.016-38.03a15.224 15.224 0 0 0 3.844-15.594 15.222 15.222 0 0 0-12.274-10.352l-53.92-7.828-24.12-48.868a15.206 15.206 0 1 0-27.274 0l-24.116 48.868-53.92 7.828a15.222 15.222 0 0 0-12.274 10.352 15.22 15.22 0 0 0 3.842 15.594z m35.618-42.86a15.182 15.182 0 0 0 11.444-8.32l14.016-28.398 14.016 28.4a15.208 15.208 0 0 0 11.452 8.32l31.336 4.554-22.68 22.1a15.2 15.2 0 0 0-4.366 13.47l5.352 31.21-28.032-14.74c-2.22-1.166-4.648-1.744-7.078-1.744s-4.86 0.58-7.078 1.742l-28.024 14.742 5.352-31.21a15.228 15.228 0 0 0-4.374-13.468L440.1 620.6z m0 0M285.86 83.336l59.46 23.78a15.116 15.116 0 0 0 5.64 1.094 15.212 15.212 0 0 0 5.648-29.336L297.158 55.094a15.196 15.196 0 0 0-19.766 8.476 15.208 15.208 0 0 0 8.47 19.766z m0 0M291.516 189.54c1.882 0 3.788-0.352 5.64-1.094l59.454-23.782a15.21 15.21 0 1 0-11.29-28.242L285.86 160.2a15.214 15.214 0 0 0 5.656 29.338z m0 0M590.032 108.21c1.882 0 3.796-0.35 5.648-1.092l59.452-23.782A15.208 15.208 0 0 0 643.836 55.094l-59.454 23.78a15.21 15.21 0 0 0 5.65 29.336z m0 0M584.382 164.664l59.454 23.78a15.146 15.146 0 0 0 5.64 1.096 15.206 15.206 0 0 0 14.126-9.564 15.2 15.2 0 0 0-8.47-19.766l-59.452-23.78a15.208 15.208 0 0 0-19.774 8.468 15.21 15.21 0 0 0 8.476 19.766z m0 0" p-id="29536"></path></svg>