<?xml version="1.0" standalone="no"?>
<!DOCTYPE svg PUBLIC "-//W3C//DTD SVG 20010904//EN"
 "http://www.w3.org/TR/2001/REC-SVG-20010904/DTD/svg10.dtd">
<svg version="1.0" xmlns="http://www.w3.org/2000/svg"
 width="240.000000pt" height="240.000000pt" viewBox="0 0 240.000000 240.000000"
 preserveAspectRatio="xMidYMid meet">
<metadata>
Created by potrace 1.13, written by Peter Selinger 2001-2015
</metadata>
<g transform="translate(0.000000,240.000000) scale(0.080000,-0.080000)"
fill="#000000" stroke="none">
<path d="M1350 2820 c-269 -36 -490 -131 -692 -297 -233 -193 -399 -474 -459
-778 -18 -91 -18 -398 -1 -480 120 -552 513 -946 1057 -1060 114 -24 371 -24
485 -1 355 75 625 246 838 534 109 148 206 385 231 567 16 109 13 328 -4 427
-44 252 -161 486 -339 675 -248 263 -568 408 -926 418 -69 2 -154 0 -190 -5z
m-200 -144 c0 -7 18 -30 40 -51 22 -22 38 -45 36 -52 -3 -7 4 -49 15 -94 11
-45 18 -83 15 -86 -2 -3 -21 17 -40 44 -31 44 -39 49 -66 45 -28 -4 -30 -2
-30 26 0 17 -4 33 -9 36 -5 3 -11 17 -13 31 -4 18 1 30 16 40 18 13 19 18 8
35 -19 30 -15 49 8 43 11 -3 20 -11 20 -17z m718 -46 c3 -17 -5 -32 -25 -48
-19 -17 -22 -22 -8 -17 11 5 34 10 50 12 21 4 34 14 45 36 23 47 44 49 36 3
-7 -39 -5 -41 24 -26 28 15 33 -4 9 -34 -13 -16 -31 -26 -47 -27 -27 0 -27 0
-4 -10 25 -10 24 -32 -5 -77 -13 -21 -13 -26 3 -50 9 -15 26 -37 37 -49 20
-22 20 -23 1 -23 -41 0 -91 21 -103 43 -8 15 -29 28 -58 35 -31 9 -47 19 -50
33 -4 14 -8 17 -13 9 -5 -8 -13 -9 -26 -2 -11 6 -27 13 -36 16 -29 9 -21 35
15 49 46 20 61 41 53 78 -5 26 -3 29 12 25 13 -4 25 3 41 25 25 34 44 34 49
-1z m-832 -31 c2 -37 31 -119 35 -96 1 4 3 12 4 17 1 6 3 17 4 26 0 8 6 12 11
9 6 -3 10 -28 10 -55 0 -27 7 -61 17 -78 9 -16 14 -36 10 -45 -8 -22 -37 -11
-37 14 0 17 -20 29 -20 12 0 -5 -4 -14 -9 -22 -15 -24 -41 6 -41 47 0 28 -3
33 -12 24 -7 -7 -16 -12 -20 -12 -14 0 -8 47 8 61 12 10 14 23 9 60 -4 26 -4
57 0 69 11 35 30 16 31 -31z m686 -219 c160 -42 276 -105 399 -219 122 -112
230 -304 265 -475 19 -90 19 -272 -1 -364 -67 -318 -308 -584 -616 -676 -228
-69 -451 -53 -658 48 -230 112 -401 314 -478 563 -24 79 -27 104 -27 243 -1
132 3 167 22 233 74 259 247 470 481 587 64 32 196 70 276 80 97 12 251 3 337
-20z m-1148 -212 l36 -43 35 38 c39 42 62 44 57 6 -2 -18 6 -31 28 -47 37 -28
38 -55 4 -106 -21 -31 -30 -36 -47 -31 -12 4 -39 9 -60 12 -46 6 -52 16 -31
48 17 26 17 26 -27 66 -34 30 -50 38 -70 35 -21 -4 -28 0 -33 16 -7 29 10 48
44 48 21 0 38 -11 64 -42z m1956 13 c0 -21 -10 -37 -37 -60 -33 -27 -35 -30
-16 -31 28 0 68 -49 53 -64 -8 -8 -25 -3 -58 16 -41 23 -49 25 -66 13 -10 -8
-24 -16 -30 -18 -6 -2 -1 -15 12 -32 26 -32 29 -83 6 -92 -8 -3 -20 -1 -26 5
-16 16 -27 89 -15 101 8 8 4 11 -12 11 -24 0 -91 36 -91 49 0 15 25 31 47 31
26 0 27 3 11 29 -6 10 -8 26 -5 35 8 20 46 21 53 1 14 -36 40 -36 85 0 57 44
89 46 89 6z m106 -576 c52 -69 63 -153 18 -148 -49 7 -104 10 -104 7 0 -3 5
-13 12 -23 9 -15 9 -23 -1 -35 -18 -22 -26 -20 -39 8 -8 18 -20 26 -44 28 -27
2 -34 8 -41 35 -8 27 -5 36 24 72 35 45 51 48 54 12 2 -30 38 -64 61 -59 16 4
15 7 -8 18 -31 15 -36 28 -12 37 9 3 29 -5 47 -18 l32 -23 -29 34 c-16 19 -38
41 -49 49 -19 14 -19 15 -2 28 30 21 52 15 81 -22z m102 13 c2 -11 -8 -23 -28
-33 -49 -25 -68 -2 -28 35 26 24 51 23 56 -2z m-2323 -34 c9 -14 31 -32 49
-39 24 -10 35 -22 39 -45 4 -16 11 -30 16 -30 10 0 21 34 21 67 0 29 18 39 37
20 11 -11 14 -25 9 -52 -9 -45 -38 -75 -74 -75 -16 0 -32 -8 -40 -20 -14 -23
-37 -25 -79 -9 -28 11 -28 11 -5 20 33 13 27 29 -12 29 -27 0 -41 7 -63 34
-33 40 -66 58 -87 50 -9 -3 -16 -3 -16 1 0 17 37 34 75 35 24 0 50 8 65 20 33
26 44 25 65 -6z m2335 -24 c0 -4 -7 -13 -15 -20 -22 -18 -44 2 -26 24 12 14
41 12 41 -4z m43 -70 c13 -11 -1 -47 -20 -54 -17 -7 -43 10 -43 27 0 6 -8 19
-17 30 -18 19 -17 19 27 12 25 -4 49 -11 53 -15z m-1457 -996 c-3 -7 -28 -48
-56 -89 -40 -59 -56 -75 -75 -75 -14 0 -25 2 -25 5 0 3 20 33 45 67 35 48 42
65 35 79 -10 18 -10 18 63 26 13 1 17 -3 13 -13z m136 -1 c64 -57 -55 -192
-137 -155 -30 14 -33 42 -5 42 11 0 20 -4 20 -10 0 -16 26 -11 43 8 15 17 15
19 -3 35 -11 9 -20 27 -20 39 0 50 63 76 102 41z m392 4 c25 -18 17 -51 -13
-55 -18 -3 -22 0 -18 12 8 20 -12 21 -37 3 -17 -12 -16 -14 8 -25 52 -23 19
-102 -43 -102 -87 0 -76 101 16 157 44 26 62 28 87 10z m-154 -1 c0 -14 -49
-56 -55 -46 -3 5 -18 10 -32 10 l-26 0 27 -21 c50 -39 20 -109 -47 -109 -67 0
-73 37 -21 116 l36 54 59 0 c32 0 59 -2 59 -4z"/>
<path d="M1774 2037 c-149 -50 -287 -134 -403 -247 l-74 -73 24 -13 c13 -7 30
-13 38 -14 7 0 45 30 85 66 92 86 230 181 331 229 68 33 90 38 151 39 84 1
108 -14 125 -78 12 -45 -6 -140 -41 -210 -11 -22 -18 -41 -16 -43 2 -2 16 -5
31 -6 24 -2 29 4 42 38 8 22 17 74 20 117 5 65 3 83 -16 122 -30 62 -75 88
-159 93 -51 2 -84 -2 -138 -20z"/>
<path d="M1130 2044 c14 -3 34 -9 45 -14 28 -12 85 -18 85 -8 0 4 7 8 15 8 8
0 12 -6 10 -12 -5 -13 88 -63 112 -61 7 0 11 -3 8 -7 -6 -10 25 -24 48 -21 10
1 24 -2 31 -8 10 -8 17 -7 27 6 8 9 9 14 2 10 -6 -4 -14 -3 -18 2 -3 6 -12 8
-20 4 -11 -3 -13 -1 -9 10 4 11 -4 21 -25 31 -37 20 -42 20 -35 1 4 -8 1 -15
-6 -15 -6 0 -8 5 -4 11 5 8 -1 10 -19 7 -16 -3 -31 0 -38 8 -7 9 -8 14 -1 14
6 0 13 -6 15 -12 4 -10 6 -10 6 -1 1 7 9 10 19 7 13 -4 12 -3 -3 7 -11 7 -27
13 -35 14 -8 1 -24 6 -35 11 -11 6 -60 11 -110 11 -49 1 -79 -1 -65 -3z"/>
<path d="M1047 2001 c-25 -28 -38 -53 -42 -85 -8 -50 0 -123 17 -165 6 -14 11
-29 10 -33 -1 -5 3 -8 9 -8 7 0 8 7 4 18 -4 9 -9 44 -13 77 -4 42 -7 54 -13
40 -4 -11 -8 -14 -8 -6 -1 20 48 121 74 153 13 15 27 24 31 20 5 -4 2 1 -5 11
-19 24 -24 22 -64 -22z m-3 -57 c-20 -38 -34 -58 -31 -44 4 14 7 33 7 43 0 11
5 15 11 11 7 -4 10 -1 7 7 -5 13 31 63 39 56 2 -2 -13 -35 -33 -73z"/>
<path d="M1620 1831 c0 -7 -4 -10 -9 -7 -5 4 -8 -1 -7 -9 3 -23 68 -86 83 -81
7 3 10 -1 7 -8 -3 -8 -1 -17 5 -21 6 -3 11 -1 11 5 0 6 5 8 10 5 6 -4 8 -11 5
-16 -4 -5 3 -9 14 -9 11 0 23 5 26 10 4 6 11 7 17 4 5 -4 2 5 -7 20 -21 32
-23 32 -19 0 1 -14 -1 -23 -4 -19 -4 4 -7 12 -7 18 -1 7 -7 11 -14 9 -7 -1
-10 2 -7 7 3 5 -1 14 -10 21 -8 7 -13 19 -10 26 5 12 -17 27 -40 29 -6 0 -19
6 -28 14 -11 9 -16 10 -16 2z m75 -84 c-12 -6 -22 -4 -34 8 -15 16 -14 17 8
10 18 -6 22 -4 15 6 -6 11 -4 11 10 0 16 -13 16 -15 1 -24z"/>
<path d="M1197 1675 c-15 -8 -25 -10 -22 -5 3 6 -1 7 -10 4 -14 -6 -14 -8 0
-24 13 -14 13 -17 0 -17 -8 0 -12 4 -9 9 3 4 -2 8 -10 8 -8 0 -18 -5 -22 -12
-5 -7 -3 -8 6 -3 10 6 12 4 7 -8 -3 -9 -1 -19 5 -23 7 -4 8 -3 4 4 -4 7 -4 12
1 13 4 0 17 3 28 6 31 9 118 8 140 -1 l20 -9 -20 17 c-11 10 -14 15 -7 11 18
-9 15 6 -5 21 -17 13 -17 14 2 8 15 -4 17 -4 6 4 -9 7 -23 7 -38 1 -32 -12
-67 -11 -38 1 13 6 15 9 5 9 -8 1 -28 -6 -43 -14z"/>
<path d="M1055 1670 c-3 -5 -1 -10 5 -10 6 0 9 -4 5 -9 -3 -5 1 -15 8 -23 8
-7 12 -19 9 -26 -2 -7 1 -19 8 -27 9 -10 7 -15 -6 -23 -11 -6 -16 -22 -16 -52
1 -47 12 -70 12 -24 0 21 3 25 9 15 5 -8 6 -24 2 -35 -12 -33 -3 -51 41 -86
29 -23 42 -29 48 -21 5 9 9 8 14 -4 4 -13 17 -16 51 -14 24 2 48 -1 52 -6 4
-4 1 -5 -7 0 -8 4 14 -22 50 -58 35 -36 68 -63 72 -60 5 2 8 1 7 -4 -3 -19 3
-21 31 -13 18 5 32 5 35 -1 4 -5 -1 -9 -9 -9 -9 0 -16 -8 -16 -17 0 -14 2 -15
9 -4 5 7 14 10 20 7 14 -9 14 17 0 31 -6 6 -18 9 -27 6 -9 -4 -13 -2 -9 4 4 6
0 14 -9 17 -10 4 -13 2 -8 -6 4 -7 3 -8 -5 -4 -6 4 -10 14 -9 21 4 19 -120
145 -142 145 -10 0 -25 -7 -34 -15 -19 -19 -26 -19 -26 1 0 16 -6 16 -55 -1
-18 -6 -19 -6 -2 5 17 11 16 13 -10 39 -15 14 -29 31 -30 36 -21 92 -23 109
-13 119 8 8 9 5 5 -9 -6 -17 -5 -18 4 -4 8 13 3 29 -23 73 -19 31 -37 52 -41
46z m339 -403 c20 -18 20 -18 1 -9 -11 5 -25 7 -32 5 -6 -2 -14 1 -18 6 -3 6
-1 11 5 11 6 0 8 5 5 10 -4 6 -11 8 -16 5 -5 -3 -6 1 -3 9 5 14 8 13 22 -2 9
-9 25 -25 36 -35z"/>
<path d="M1343 1618 c9 -57 25 -105 27 -83 l1 20 9 -20 c11 -25 13 -64 2 -49
-4 7 -45 12 -102 13 -89 2 -96 1 -97 -18 -3 -36 23 -47 64 -27 28 13 33 20 23
26 -11 7 -10 9 7 8 13 -2 19 -7 15 -16 -4 -11 0 -13 16 -8 11 4 23 2 27 -3 4
-7 -1 -9 -12 -5 -16 5 -15 4 2 -11 18 -14 21 -14 31 0 11 15 13 14 19 -4 3
-11 1 -29 -5 -38 -10 -16 -10 -15 -5 4 5 19 3 22 -12 16 -25 -9 -43 -24 -43
-35 0 -6 7 -8 14 -5 10 4 13 1 9 -9 -8 -22 6 -17 38 16 46 46 59 108 38 183
-6 24 -19 42 -34 49 -14 6 -22 15 -19 19 3 5 0 9 -7 9 -7 0 -9 -11 -6 -32z"/>
<path d="M1540 1622 c-32 -5 -70 -40 -70 -64 0 -28 47 -66 94 -75 26 -6 41
-14 41 -23 0 -21 -53 -26 -61 -6 -7 17 -74 23 -74 7 0 -38 47 -71 100 -71 47
0 99 28 106 57 12 45 -10 70 -76 89 -34 9 -59 22 -57 28 5 16 46 19 64 5 8 -7
26 -15 39 -16 18 -3 24 1 24 16 0 34 -70 63 -130 53z"/>
<path d="M1710 1600 c0 -28 2 -30 40 -30 l40 0 0 -90 0 -90 35 0 35 0 0 90 0
90 40 0 c38 0 40 2 40 30 l0 30 -115 0 -115 0 0 -30z"/>
<path d="M770 1541 c0 -71 3 -83 25 -110 31 -36 96 -50 156 -32 57 17 69 41
69 138 l0 83 -35 0 c-38 0 -38 0 -35 -80 1 -25 -4 -58 -9 -73 -10 -25 -15 -28
-48 -25 l-38 3 -3 88 -3 87 -39 0 -40 0 0 -79z"/>
<path d="M2009 1605 c-63 -34 -72 -133 -19 -187 54 -54 129 -50 181 10 l33 37
-33 3 c-20 2 -40 -3 -50 -12 -62 -57 -150 35 -90 95 21 21 71 21 92 0 16 -16
67 -14 67 3 0 8 -14 26 -31 40 -35 30 -106 35 -150 11z"/>
<path d="M1266 1568 c5 -8 2 -9 -11 -5 -9 4 -24 2 -31 -4 -7 -6 -19 -7 -25 -3
-8 4 -9 3 -5 -4 4 -7 30 -12 59 -11 29 0 46 3 40 6 -7 2 -13 9 -13 14 0 6 5 7
12 3 7 -4 8 -3 4 4 -4 7 -14 12 -22 12 -9 0 -12 -5 -8 -12z"/>
<path d="M1043 1332 c-37 -97 -45 -132 -47 -196 -4 -205 191 -244 474 -93 97
52 206 136 300 231 l74 76 -53 0 -53 0 -93 -89 c-171 -163 -380 -281 -500
-281 -49 0 -102 30 -116 68 -17 41 4 144 45 227 l35 70 -22 22 -22 23 -22 -58z"/>
<path d="M1990 1326 c4 -12 13 -20 20 -18 6 1 9 -2 6 -7 -3 -5 2 -26 11 -47 9
-22 18 -46 19 -54 2 -8 7 -16 11 -17 5 -2 7 -34 5 -71 -2 -37 -1 -63 4 -59 26
25 2 257 -27 257 -6 0 -9 6 -6 14 4 9 -4 15 -23 18 -25 4 -27 2 -20 -16z"/>
<path d="M1590 1080 c-14 -26 1 -32 27 -10 22 17 22 18 3 23 -13 3 -24 -1 -30
-13z"/>
<path d="M1633 1070 c-13 -5 -23 -13 -23 -18 0 -8 39 -30 50 -28 3 0 16 -7 30
-17 13 -9 29 -17 35 -17 5 0 3 5 -5 10 -10 7 -11 10 -2 10 7 0 15 -7 18 -15 5
-12 10 -13 20 -4 16 13 18 29 4 29 -6 0 -27 11 -48 23 -20 13 -43 22 -51 19
-8 -3 -11 0 -7 7 8 13 8 13 -21 1z"/>
<path d="M1793 996 c2 -6 17 -14 33 -17 24 -6 25 -7 6 -8 -13 0 -32 4 -42 9
-10 6 -21 6 -24 1 -8 -12 100 -32 124 -23 15 6 7 12 -41 28 -35 13 -58 17 -56
10z"/>
<path d="M652 2065 c-10 -21 -9 -27 4 -32 8 -3 24 -2 35 3 18 8 18 11 4 32
-21 28 -29 28 -43 -3z"/>
<path d="M344 1559 c-8 -13 3 -24 34 -34 28 -8 31 20 3 35 -25 13 -28 13 -37
-1z"/>
<path d="M1407 463 c-13 -12 -7 -18 18 -18 14 0 25 6 25 13 0 13 -32 17 -43 5z"/>
<path d="M1780 391 c0 -5 -10 -7 -22 -3 -20 5 -21 4 -9 -11 10 -13 18 -14 32
-6 20 10 26 29 9 29 -5 0 -10 -4 -10 -9z"/>
<path d="M1569 406 c6 -7 9 -21 5 -30 -4 -12 -2 -15 9 -10 18 6 30 32 21 45
-3 5 -14 9 -26 9 -16 0 -18 -3 -9 -14z"/>
</g>
</svg>
