<?xml version="1.0" standalone="no"?><!DOCTYPE svg PUBLIC "-//W3C//DTD SVG 1.1//EN" "http://www.w3.org/Graphics/SVG/1.1/DTD/svg11.dtd"><svg t="1703427628650" class="icon" viewBox="0 0 1024 1024" version="1.1" xmlns="http://www.w3.org/2000/svg" p-id="7791" xmlns:xlink="http://www.w3.org/1999/xlink" width="200" height="200"><path d="M1021.952 297.173333c-0.213333-0.085333-0.384-0.256-0.597333-0.256-0.384 0-0.682667 0.256-0.981334 0.384C374.912 362.282667 71.509333 642.986667 0 712.021333l9.514667 14.933334h112.810666c293.205333-294.741333 689.322667-392.576 898.773334-424.789334l0.256 0.085334c0.170667 0 0.256-0.170667 0.426666-0.170667 1.237333-0.256 2.218667-1.194667 2.218667-2.517333 0-1.237333-0.896-2.090667-2.048-2.389334zM16.213333 448.341333l-6.826666 12.885334 138.453333 100.949333a1355.136 1355.136 0 0 1 85.845333-45.781333L140.8 448.341333H16.213333z m307.712 134.058667c-22.869333 16.853333-46.250667 34.901333-71.424 56.021333l121.685334 88.661334h126.165333l5.248-11.648-181.674667-133.034667z" p-id="7792" fill="#2c2c2c"></path></svg>