<svg xmlns="http://www.w3.org/2000/svg" fill="none" viewBox="0 0 24 24" id="Docusaurus--Streamline-Svg-Logos" height="24" width="24">
  <desc>
    Docusaurus Streamline Icon: https://streamlinehq.com
  </desc>
  <path fill="#ffffff" d="M21.9424 6.201775H11.819325v4.09745h10.123075V6.201775Z" stroke-width="0.25"></path>
  <path fill="#3ecc5f" d="M2.66025 19.578675c-0.8915475 0 -1.6682525 -0.485325 -2.0852275 -1.20515C0.3695475 18.728325 0.25 19.13915 0.25 19.578675c0 1.331175 1.0790725 2.41025 2.41025 2.41025h2.410275v-2.41025H2.66025Z" stroke-width="0.25"></path>
  <path fill="#3ecc5f" d="M13.504175 6.8496 21.9425 6.32225v-1.205125c0 -1.3312 -1.0792 -2.410275 -2.410275 -2.410275H8.686075l-0.301275 -0.5218125c-0.134 -0.2319875 -0.468675 -0.2319875 -0.602575 0l-0.301275 0.5218125 -0.301275 -0.5218125c-0.134025 -0.2319875 -0.468675 -0.2319875 -0.602575 0l-0.301275 0.5218125 -0.301275 -0.5218125c-0.134025 -0.2319875 -0.468675 -0.2319875 -0.602575 0l-0.301275 0.5218125c-0.00265 0 -0.005175 0.000375 -0.007825 0.000375l-0.499175 -0.49905c-0.189325 -0.189325 -0.51255 -0.102795 -0.58195 0.155945l-0.164875 0.615105 -0.625825 -0.16775c-0.258725 -0.0693 -0.495425 0.167375 -0.426 0.426125l0.167625 0.625825 -0.6149725 0.164725c-0.2587425 0.069425 -0.34539 0.39275 -0.156065 0.5821l0.4990375 0.49915c0 0.002525 -0.000225 0.005075 -0.000225 0.007725L2.1385 5.4184c-0.2318675 0.133875 -0.2318675 0.468675 0 0.60255l0.52195 0.3013 -0.52195 0.301275c-0.2318675 0.1339 -0.2318675 0.468675 0 0.602575l0.52195 0.301275 -0.52195 0.301275c-0.2318675 0.1339 -0.2318675 0.468675 0 0.602575l0.52195 0.301275 -0.52195 0.301275c-0.2318675 0.1339 -0.2318675 0.468675 0 0.602575l0.52195 0.301275 -0.52195 0.301275c-0.2318675 0.1339 -0.2318675 0.468675 0 0.602575l0.52195 0.301275 -0.52195 0.3013c-0.2318675 0.133875 -0.2318675 0.468675 0 0.60255l0.52195 0.301275 -0.52195 0.3013c-0.2318675 0.133875 -0.2318675 0.468675 0 0.60255l0.52195 0.3013 -0.52195 0.301275c-0.2318675 0.133875 -0.2318675 0.468675 0 0.60255l0.52195 0.3013 -0.52195 0.301275c-0.2318675 0.1339 -0.2318675 0.468675 0 0.60255l0.52195 0.3013 -0.52195 0.301275c-0.2318675 0.1339 -0.2318675 0.468675 0 0.602575l0.52195 0.301275 -0.52195 0.301275c-0.2318675 0.1339 -0.2318675 0.468675 0 0.602575l0.52195 0.301275 -0.52195 0.301275c-0.2318675 0.1339 -0.2318675 0.468675 0 0.602575l0.52195 0.301275c0 1.3312 1.07905 2.41025 2.41025 2.41025h14.461525c1.331075 0 2.410275 -1.07905 2.410275 -2.41025V9.937625l-8.438325 -0.52735c-0.676075 -0.0423 -1.2027 -0.602925 -1.2027 -1.28035 0 -0.6774 0.526625 -1.238025 1.2027 -1.280325Z" stroke-width="0.25"></path>
  <path fill="#3ecc5f" d="M17.121825 21.98885h3.615375V17.168325H17.121825v4.820525Z" stroke-width="0.25"></path>
  <path fill="#44d860" d="M23.14755 18.97605c-0.0264 0 -0.0516 0.00445 -0.077025 0.007725 -0.004575 -0.018075 -0.0089 -0.036275 -0.013975 -0.05435 0.21765 -0.090875 0.370575 -0.3054 0.370575 -0.555925 0 -0.332875 -0.2697 -0.602575 -0.60255 -0.602575 -0.13715 0 -0.262125 0.047725 -0.363475 0.12485 -0.013375 -0.013625 -0.02675 -0.027125 -0.040375 -0.0405 0.07555 -0.10075 0.12185 -0.224375 0.12185 -0.359975 0 -0.33285 -0.269725 -0.60255 -0.602575 -0.60255 -0.24885 0 -0.4624 0.151 -0.55425 0.366475 -0.017825 -0.00505 -0.035775 -0.009275 -0.053625 -0.01385 0.003275 -0.025425 0.007725 -0.050625 0.007725 -0.077025 0 -0.33285 -0.2697 -0.60255 -0.602575 -0.60255 -0.33285 0 -0.60255 0.2697 -0.60255 0.60255 0 0.0264 0.00445 0.0516 0.0077 0.077025 -0.017825 0.004575 -0.035775 0.0088 -0.053625 0.01385 -0.091825 -0.215475 -0.305375 -0.366475 -0.554225 -0.366475 -0.332875 0 -0.602575 0.2697 -0.602575 0.60255 0 0.1356 0.046275 0.259225 0.12185 0.359975 -0.44795 0.4377 -0.726825 1.047625 -0.726825 1.72335 0 1.331175 1.079075 2.41025 2.41025 2.41025 1.125475 0 2.068 -0.7725 2.33325 -1.8154 0.025425 0.00325 0.050625 0.0077 0.077025 0.0077 0.33285 0 0.60255 -0.2697 0.60255 -0.60255 0 -0.332875 -0.2697 -0.602575 -0.60255 -0.602575Z" stroke-width="0.25"></path>
  <path fill="#3ecc5f" d="M18.327025 14.7581h3.615375v-2.41025H18.327025v2.41025Z" stroke-width="0.25"></path>
  <path fill="#44d860" d="M23.14755 13.85425c0.16645 0 0.3013 -0.134875 0.3013 -0.3013 0 -0.166425 -0.13485 -0.301275 -0.3013 -0.301275 -0.013125 0 -0.025775 0.0023 -0.038425 0.00385 -0.002425 -0.009025 -0.004475 -0.018075 -0.007 -0.0271 0.1087 -0.04545 0.185225 -0.152825 0.185225 -0.278025 0 -0.166425 -0.13485 -0.3013 -0.301275 -0.3013 -0.068575 0 -0.131125 0.02375 -0.181725 0.062425 -0.006625 -0.00685 -0.013375 -0.0136 -0.02025 -0.020225 0.037825 -0.050275 0.060975 -0.1122 0.060975 -0.18005 0 -0.166325 -0.13485 -0.3013 -0.301275 -0.3013 -0.1245 0 -0.231275 0.075575 -0.2772 0.1833 -0.103275 -0.0288 -0.2116 -0.045425 -0.324175 -0.045425 -0.665475 0 -1.205125 0.53965 -1.205125 1.205125s0.53965 1.205125 1.205125 1.205125c0.112575 0 0.2209 -0.016625 0.324175 -0.045425 0.045925 0.10775 0.1527 0.1833 0.2772 0.1833 0.166425 0 0.301275 -0.134975 0.301275 -0.301275 0 -0.06785 -0.02315 -0.1298 -0.060975 -0.18005 0.006875 -0.006625 0.013625 -0.013375 0.02025 -0.02025 0.0506 0.038675 0.11315 0.062425 0.181725 0.062425 0.166425 0 0.301275 -0.13485 0.301275 -0.301275 0 -0.125225 -0.076525 -0.2326 -0.185225 -0.278025 0.002525 -0.008925 0.004575 -0.018075 0.007 -0.027125 0.01265 0.001575 0.0253 0.003875 0.038425 0.003875Z" stroke-width="0.25"></path>
  <path fill="#000000" d="M7.4807 6.6235c-0.166425 0 -0.301275 -0.134875 -0.301275 -0.3013 0 -0.498425 -0.4054 -0.90385 -0.90385 -0.90385 -0.49845 0 -0.90385 0.405425 -0.90385 0.90385 0 0.166425 -0.13485 0.3013 -0.301275 0.3013 -0.166425 0 -0.301275 -0.134875 -0.301275 -0.3013 0 -0.8307 0.6757 -1.5064 1.5064 -1.5064s1.5064 0.6757 1.5064 1.5064c0 0.166425 -0.13485 0.3013 -0.301275 0.3013Z" stroke-width="0.25"></path>
  <path fill="#ffff50" d="M12.3014 21.98885h7.23075c1.3312 0 2.410275 -1.079075 2.410275 -2.41025V11.1427H14.71165c-1.331175 0 -2.41025 1.079075 -2.41025 2.41025v8.4359Z" stroke-width="0.25"></path>
  <path fill="#000000" d="M20.13695 14.87865H14.1066c-0.06665 0 -0.120525 -0.05385 -0.120525 -0.1205 0 -0.06665 0.053875 -0.120525 0.120525 -0.120525h6.03035c0.066625 0 0.1205 0.053875 0.1205 0.120525 0 0.06665 -0.053875 0.1205 -0.1205 0.1205Z" stroke-width="0.25"></path>
  <path fill="#000000" d="M20.13695 17.288875H14.1066c-0.06665 0 -0.120525 -0.053875 -0.120525 -0.1205 0 -0.06665 0.053875 -0.120525 0.120525 -0.120525h6.03035c0.066625 0 0.1205 0.053875 0.1205 0.120525 0 0.066625 -0.053875 0.1205 -0.1205 0.1205Z" stroke-width="0.25"></path>
  <path fill="#000000" d="M20.13695 19.69915H14.1066c-0.06665 0 -0.120525 -0.053875 -0.120525 -0.1205 0 -0.06665 0.053875 -0.120525 0.120525 -0.120525h6.03035c0.066625 0 0.1205 0.053875 0.1205 0.120525 0 0.066625 -0.053875 0.1205 -0.1205 0.1205Z" stroke-width="0.25"></path>
  <path fill="#000000" d="M20.13695 13.69585H14.1066c-0.06665 0 -0.120525 -0.053975 -0.120525 -0.1205 0 -0.06665 0.053875 -0.120525 0.120525 -0.120525h6.03035c0.066625 0 0.1205 0.053875 0.1205 0.120525 0 0.066525 -0.053875 0.1205 -0.1205 0.1205Z" stroke-width="0.25"></path>
  <path fill="#000000" d="M20.13695 16.08375H14.1066c-0.06665 0 -0.120525 -0.053875 -0.120525 -0.120525 0 -0.06665 0.053875 -0.120525 0.120525 -0.120525h6.03035c0.066625 0 0.1205 0.053875 0.1205 0.120525 0 0.06665 -0.053875 0.120525 -0.1205 0.120525Z" stroke-width="0.25"></path>
  <path fill="#000000" d="M20.13695 18.494025H14.1066c-0.06665 0 -0.120525 -0.053875 -0.120525 -0.120525 0 -0.06665 0.053875 -0.1205 0.120525 -0.1205h6.03035c0.066625 0 0.1205 0.05385 0.1205 0.1205 0 0.06665 -0.053875 0.120525 -0.1205 0.120525Z" stroke-width="0.25"></path>
  <path fill="#000000" d="M21.94225 7.36c-0.00145 0 -0.00265 -0.000725 -0.0041 -0.0006 -0.3724 0.01265 -0.548575 0.38515 -0.70405 0.713775 -0.1622 0.34335 -0.28765 0.566775 -0.49325 0.560025 -0.22765 -0.008175 -0.3578 -0.26535 -0.495675 -0.5376 -0.15835 -0.3125 -0.339125 -0.667025 -0.718625 -0.653775 -0.367075 0.012525 -0.54385 0.3367 -0.6998 0.622675 -0.16595 0.304675 -0.278875 0.4899 -0.49665 0.48135 -0.232225 -0.00845 -0.355625 -0.21755 -0.498425 -0.459525 -0.1592 -0.269475 -0.343225 -0.57245 -0.715375 -0.562075 -0.3608 0.012425 -0.538075 0.287425 -0.6945 0.53025 -0.165475 0.2567 -0.2814 0.413125 -0.50195 0.40385 -0.237775 -0.00855 -0.360575 -0.181975 -0.50265 -0.382875 -0.159575 -0.225725 -0.339375 -0.4812 -0.710425 -0.4688 -0.352875 0.01205 -0.53015 0.2373 -0.68645 0.436025 -0.148475 0.188475 -0.2644 0.337675 -0.50965 0.328275 -0.066525 -0.00265 -0.1223 0.049525 -0.124725 0.116175 -0.002525 0.0664 0.049525 0.122325 0.11605 0.12485 0.3636 0.012175 0.547725 -0.21705 0.70765 -0.420225 0.14185 -0.1803 0.2643 -0.335875 0.505325 -0.344075 0.2321 -0.009875 0.340925 0.134375 0.50555 0.366975 0.1563 0.221025 0.3337 0.471675 0.69065 0.484575 0.37395 0.012525 0.553875 -0.266925 0.7132 -0.514225 0.14245 -0.221025 0.265375 -0.4118 0.500125 -0.419875 0.216075 -0.008075 0.3337 0.1627 0.499525 0.443625 0.1563 0.26475 0.33335 0.5647 0.6974 0.577975 0.3766 0.013 0.558475 -0.315875 0.71695 -0.6068 0.13725 -0.251625 0.2668 -0.4894 0.496375 -0.497225 0.216075 -0.00505 0.328775 0.192225 0.495425 0.521825 0.155725 0.307675 0.332275 0.656175 0.702 0.669575 0.006875 0.000225 0.013625 0.00035 0.020375 0.00035 0.36925 0 0.544475 -0.370575 0.699575 -0.69825 0.13725 -0.290425 0.267175 -0.564125 0.490125 -0.5752V7.36Z" stroke-width="0.25"></path>
  <path fill="#3ecc5f" d="M9.891125 21.98885h4.8205V17.168325h-4.8205v4.820525Z" stroke-width="0.25"></path>
  <path fill="#44d860" d="M17.1219 18.97605c-0.026375 0 -0.051575 0.00445 -0.077 0.007725 -0.004575 -0.018075 -0.008925 -0.036275 -0.013975 -0.05435 0.21765 -0.090875 0.370575 -0.3054 0.370575 -0.555925 0 -0.332875 -0.269725 -0.602575 -0.602575 -0.602575 -0.13715 0 -0.2621 0.047725 -0.36345 0.12485 -0.0134 -0.013625 -0.026775 -0.027125 -0.040375 -0.0405 0.07555 -0.10075 0.121825 -0.224375 0.121825 -0.359975 0 -0.33285 -0.2697 -0.60255 -0.60255 -0.60255 -0.248875 0 -0.462425 0.151 -0.55425 0.366475 -0.017825 -0.00505 -0.0358 -0.009275 -0.053625 -0.01385 0.00325 -0.025425 0.007725 -0.050625 0.007725 -0.077025 0 -0.33285 -0.269725 -0.60255 -0.602575 -0.60255s-0.602575 0.2697 -0.602575 0.60255c0 0.0264 0.004475 0.0516 0.007725 0.077025 -0.01785 0.004575 -0.0358 0.0088 -0.053625 0.01385 -0.091825 -0.215475 -0.305375 -0.366475 -0.55425 -0.366475 -0.33285 0 -0.60255 0.2697 -0.60255 0.60255 0 0.1356 0.046275 0.259225 0.121825 0.359975 -0.44795 0.4377 -0.7268 1.047625 -0.7268 1.72335 0 1.331175 1.079075 2.41025 2.41025 2.41025 1.125475 0 2.068 -0.7725 2.33325 -1.8154 0.025425 0.00325 0.050625 0.0077 0.077 0.0077 0.33285 0 0.602575 -0.2697 0.602575 -0.60255 0 -0.332875 -0.269725 -0.602575 -0.602575 -0.602575Z" stroke-width="0.25"></path>
  <path fill="#3ecc5f" d="M9.891125 14.7581h4.8205v-2.41025h-4.8205v2.41025Z" stroke-width="0.25"></path>
  <path fill="#44d860" d="M15.916725 13.85425c0.166425 0 0.301275 -0.134875 0.301275 -0.3013 0 -0.166425 -0.13485 -0.301275 -0.301275 -0.301275 -0.013125 0 -0.0258 0.0023 -0.03845 0.00385 -0.0024 -0.009025 -0.00445 -0.018075 -0.006975 -0.0271 0.1087 -0.04545 0.185225 -0.152825 0.185225 -0.278025 0 -0.166425 -0.13485 -0.3013 -0.301275 -0.3013 -0.068575 0 -0.131125 0.02375 -0.18175 0.062425 -0.006625 -0.00685 -0.013375 -0.0136 -0.02025 -0.020225 0.03785 -0.050275 0.061 -0.1122 0.061 -0.18005 0 -0.166325 -0.134875 -0.3013 -0.3013 -0.3013 -0.124475 0 -0.23125 0.075575 -0.277175 0.1833 -0.103275 -0.0288 -0.211625 -0.045425 -0.324175 -0.045425 -0.665475 0 -1.205125 0.53965 -1.205125 1.205125s0.53965 1.205125 1.205125 1.205125c0.11255 0 0.2209 -0.016625 0.324175 -0.045425 0.045925 0.10775 0.1527 0.1833 0.277175 0.1833 0.166425 0 0.3013 -0.134975 0.3013 -0.301275 0 -0.06785 -0.02315 -0.1298 -0.061 -0.18005 0.006875 -0.006625 0.013625 -0.013375 0.02025 -0.02025 0.050625 0.038675 0.113175 0.062425 0.18175 0.062425 0.166425 0 0.301275 -0.13485 0.301275 -0.301275 0 -0.125225 -0.076525 -0.2326 -0.185225 -0.278025 0.002525 -0.008925 0.004575 -0.018075 0.006975 -0.027125 0.01265 0.001575 0.025325 0.003875 0.03845 0.003875Z" stroke-width="0.25"></path>
  <path fill="#000000" d="M17.12185 4.966525c-0.0193 0 -0.039775 -0.002425 -0.05905 -0.00605 -0.0193 -0.0036 -0.0387 -0.009625 -0.05665 -0.01685 -0.018075 -0.00725 -0.03495 -0.016875 -0.05195 -0.027725 -0.01565 -0.01085 -0.0312 -0.0241 -0.0458 -0.03735 -0.013125 -0.014475 -0.026375 -0.028925 -0.037225 -0.0458 -0.01085 -0.016875 -0.0205 -0.03375 -0.02785 -0.051825 -0.0071 -0.018075 -0.013125 -0.03735 -0.01675 -0.05665 -0.0036 -0.019275 -0.006025 -0.03975 -0.006025 -0.05905 0 -0.019275 0.002425 -0.039775 0.006025 -0.05905 0.003625 -0.019275 0.00965 -0.03735 0.01675 -0.056625 0.00735 -0.0181 0.017 -0.03495 0.02785 -0.051825 0.01085 -0.015675 0.0241 -0.03135 0.037225 -0.0458 0.0146 -0.01325 0.03015 -0.026525 0.0458 -0.03735 0.017 -0.01085 0.033875 -0.0205 0.05195 -0.027725 0.01795 -0.007225 0.03735 -0.01325 0.05665 -0.016875 0.03855 -0.008425 0.078325 -0.008425 0.1181 0 0.01915 0.003625 0.03855 0.00965 0.056625 0.016875 0.01795 0.007225 0.03495 0.016875 0.051825 0.027725 0.015675 0.010825 0.031225 0.0241 0.0458 0.03735 0.01325 0.01445 0.0265 0.030125 0.03735 0.0458 0.01085 0.016875 0.0205 0.033725 0.027725 0.051825 0.007225 0.019275 0.01325 0.03735 0.016875 0.056625 0.0035 0.019275 0.006025 0.039775 0.006025 0.05905 0 0.07955 -0.032675 0.157875 -0.087975 0.213325 -0.014575 0.01325 -0.030125 0.0265 -0.0458 0.03735 -0.016875 0.01085 -0.033875 0.020475 -0.051825 0.027725 -0.018075 0.007225 -0.037475 0.01325 -0.056625 0.01685 -0.0193 0.003625 -0.039775 0.00605 -0.05905 0.00605Z" stroke-width="0.25"></path>
  <path fill="#000000" d="M19.532125 4.815825c-0.07955 0 -0.156675 -0.03255 -0.213425 -0.087975 -0.01315 -0.014475 -0.0264 -0.030125 -0.03725 -0.0458 -0.01085 -0.016875 -0.020475 -0.03375 -0.02785 -0.051825 -0.0071 -0.018075 -0.013125 -0.03735 -0.01675 -0.05665 -0.0036 -0.019275 -0.006025 -0.03975 -0.006025 -0.05905 0 -0.079525 0.03255 -0.15665 0.087875 -0.2133 0.014575 -0.01325 0.030125 -0.0265 0.045775 -0.03735 0.017 -0.01085 0.033875 -0.0205 0.05195 -0.027725 0.01795 -0.007225 0.03735 -0.01325 0.05665 -0.016875 0.03855 -0.008425 0.079525 -0.008425 0.1181 0 0.01915 0.003625 0.03855 0.00965 0.056625 0.016875 0.017975 0.007225 0.03495 0.016875 0.051825 0.027725 0.015675 0.01085 0.031225 0.0241 0.0458 0.03735 0.055325 0.05665 0.087975 0.133775 0.087975 0.2133 0 0.0193 -0.002525 0.039775 -0.006025 0.05905 -0.003625 0.0193 -0.00965 0.038575 -0.016875 0.05665 -0.008425 0.018075 -0.016875 0.03495 -0.027725 0.051825 -0.010825 0.015675 -0.0241 0.031325 -0.03735 0.0458 -0.014575 0.01325 -0.030125 0.0265 -0.0458 0.03735 -0.016875 0.01085 -0.03385 0.0205 -0.051825 0.027725 -0.018075 0.007225 -0.037475 0.01325 -0.056625 0.016875 -0.0193 0.0036 -0.039775 0.006025 -0.05905 0.006025Z" stroke-width="0.25"></path>
</svg>