<?xml version="1.0" standalone="no"?><!DOCTYPE svg PUBLIC "-//W3C//DTD SVG 1.1//EN" "http://www.w3.org/Graphics/SVG/1.1/DTD/svg11.dtd"><svg height="1024" legacy-metrics="false" node-id="1" sillyvg="true" template-height="1024" template-width="1024" version="1.1" viewBox="0 0 1024 1024" width="1024" xmlns="http://www.w3.org/2000/svg" xmlns:xlink="http://www.w3.org/1999/xlink"><defs node-id="16"></defs><path d="M 238.20 402.50 L 262.70 464.00 C 262.70 464.00 317.30 465.30 421.50 442.30 C 421.50 442.30 472.20 709.10 567.90 709.10 C 663.60 709.10 690.60 616.10 690.60 616.10 C 690.60 616.10 617.20 592.40 593.40 514.30 L 488.20 366.10 C 488.20 366.10 455.30 334.20 401.90 351.30 L 238.20 402.50 Z" fill="#4966a2" fill-rule="nonzero" node-id="18" stroke="none" target-height="362.81158" target-width="452.39996" target-x="238.2" target-y="346.2884"></path><path d="M 245.30 402.50 C 245.30 402.50 344.90 453.30 465.10 414.60 L 468.50 423.50 C 468.50 423.50 366.60 467.20 268.40 462.80 L 245.30 402.50 Z" fill="#3d5890" fill-rule="nonzero" node-id="20" stroke="none" target-height="60.60138" target-width="223.2" target-x="245.3" target-y="402.5"></path><path d="M 423.60 451.90 C 423.60 451.90 491.30 856.90 673.00 657.60 C 673.00 657.60 525.80 724.30 458.30 430.00 L 421.70 442.40 L 423.60 451.90 Z" fill="#3d5890" fill-rule="nonzero" node-id="22" stroke="none" target-height="282.7536" target-width="251.29999" target-x="421.7" target-y="430"></path><path d="M 653.30 477.50 L 595.20 519.60 C 595.20 519.60 624.10 610.30 690.60 616.00 L 746.90 569.90 L 653.30 477.50 Z" fill="#f3b5af" fill-rule="nonzero" node-id="24" stroke="none" target-height="138.5" target-width="151.70001" target-x="595.2" target-y="477.5"></path><path d="M 205.80 414.10 L 238.20 402.50 L 262.80 466.60 L 226.60 466.60 L 205.80 414.10 Z" fill="#ffffff" fill-rule="nonzero" node-id="26" stroke="none" target-height="64.100006" target-width="56.999985" target-x="205.8" target-y="402.5"></path><path d="M 878.50 197.50 C 878.50 197.50 912.80 145.60 971.50 180.60 C 997.50 196.30 1012.30 225.50 1009.40 255.80 C 1006.90 283.20 998.70 322.20 975.80 368.90 C 969.40 381.70 964.00 395.00 959.50 408.70 C 948.80 442.10 921.10 506.10 871.20 483.70 C 871.20 483.70 901.00 465.30 895.10 418.10 C 889.20 370.90 924.50 334.40 924.50 334.40 C 924.50 334.40 976.00 261.70 926.10 223.60 C 876.20 185.50 875.60 197.80 875.60 197.80" fill="#4966a2" fill-rule="nonzero" node-id="28" stroke="none" target-height="319.89606" target-width="138.53412" target-x="871.2" target-y="168.45525"></path><path d="M 941.50 241.40 C 918.60 206.40 878.60 197.40 878.60 197.40 C 878.60 197.40 826.70 274.60 848.10 317.50 C 850.40 322.20 853.40 326.60 857.10 330.40 L 835.30 360.00 L 891.30 405.60 C 891.30 405.60 903.30 359.40 918.20 340.40 C 919.80 339.90 920.70 339.50 920.70 339.50 C 920.70 339.50 974.70 292.00 941.50 241.40 L 941.50 241.40 Z" fill="#e08476" fill-rule="nonzero" node-id="30" stroke="none" target-height="208.20001" target-width="116.9563" target-x="835.3" target-y="197.4"></path><path d="M 205.80 414.20 C 205.80 414.20 34.30 488.50 12.90 498.90 C 12.90 498.90 26.30 527.30 106.90 498.90 C 106.90 498.90 141.70 510.00 176.40 506.60 C 211.20 503.20 222.00 455.80 222.00 455.80 L 205.80 414.20 Z M 1003.40 223.50 L 908.40 245.50 L 729.20 252.80 C 729.20 252.80 673.50 264.30 705.40 309.80 L 770.50 402.70 C 770.70 405.10 773.60 434.10 799.50 448.40 C 815.60 457.30 837.90 459.20 855.60 447.40 C 856.30 447.00 856.90 446.50 857.50 446.10 C 880.90 428.80 880.90 393.50 858.20 375.20 L 854.10 371.80 L 774.50 303.70 L 917.00 286.40 C 917.00 286.40 955.80 301.50 982.10 265.30 C 1008.40 229.10 1011.90 227.20 1011.90 227.20 L 1003.40 223.50 Z" fill="#f3b5af" fill-rule="nonzero" node-id="32" stroke="none" target-height="288.01318" target-width="999" target-x="12.9" target-y="223.5"></path><path d="M 757.70 384.40 C 757.70 384.40 685.30 388.50 653.40 477.50 L 746.90 569.90 C 746.90 569.90 907.20 493.70 895.30 417.90 C 894.70 414.40 893.70 411.10 892.40 407.80 C 886.20 393.00 874.30 381.50 859.30 375.80 C 872.70 400.90 869.20 426.90 856.40 440.20 C 849.20 447.70 839.10 449.70 833.50 450.90 C 810.70 455.60 792.10 445.80 785.90 442.20 C 785.90 442.20 768.90 423.80 770.80 402.60 L 757.70 384.40 Z" fill="#ffeef0" fill-rule="nonzero" node-id="34" stroke="none" target-height="194.10004" target-width="242.45923" target-x="653.4" target-y="375.8"></path><path d="M 766.30 557.10 L 749.70 571.40 L 656.50 475.50 C 673.10 429.10 700.70 405.80 723.30 394.10 C 709.10 412.60 701.30 435.30 701.30 458.70 C 701.20 502.30 740.60 531.00 766.30 557.10 L 766.30 557.10 Z" fill="#dcd3d4" fill-rule="nonzero" node-id="36" stroke="none" target-height="177.30002" target-width="109.79999" target-x="656.5" target-y="394.1"></path><path d="M 935.00 697.90 L 1008.80 697.90 L 1008.80 722.40 L 935.00 722.40 L 935.00 697.90 Z M 1.60 697.90 L 75.40 697.90 L 75.40 722.40 L 1.60 722.40 L 1.60 697.90 Z M 1011.50 197.30 C 993.70 171.30 960.40 154.20 928.60 155.00 C 902.60 155.30 878.60 169.10 865.10 191.30 L 864.50 192.10 L 864.50 192.20 C 864.30 192.60 864.00 193.00 863.80 193.40 L 861.80 197.80 C 861.70 198.10 861.50 198.40 861.40 198.70 L 843.30 235.70 L 731.20 240.20 C 730.10 240.20 729.00 240.30 727.90 240.40 C 711.00 242.00 696.30 252.80 689.60 268.50 C 682.60 284.50 684.80 303.00 695.40 316.90 L 736.90 376.20 C 700.70 386.90 670.80 412.40 654.50 446.40 L 643.40 469.50 L 602.50 501.70 L 601.90 502.30 C 601.30 503.00 600.40 503.30 599.40 503.20 C 598.50 503.10 597.70 502.70 597.20 501.90 L 505.60 368.00 C 485.00 337.70 447.00 324.30 412.00 335.00 L 202.00 402.20 C 198.60 403.30 195.20 404.50 192.00 405.80 L 171.60 413.90 L 35.10 476.70 L 18.80 479.70 C 6.40 482.10 -1.80 494.20 0.60 506.60 C 2.80 517.80 12.90 525.70 24.30 525.20 L 32.10 524.80 C 39.00 527.10 46.20 528.20 53.50 528.20 C 65.60 528.20 81.20 525.20 98.60 514.60 C 109.00 508.20 118.50 510.70 134.30 515.60 C 149.10 520.20 167.40 525.80 187.60 517.20 C 203.70 510.10 215.70 496.00 220.00 479.00 L 234.70 479.70 L 235.20 479.70 C 302.70 480.30 367.60 467.60 412.60 456.00 L 437.90 546.90 C 448.30 587.20 463.50 626.00 483.20 662.70 C 490.40 676.20 500.30 688.20 512.20 697.80 L 127.20 697.80 L 127.20 722.30 L 889.00 722.30 L 889.00 697.80 L 652.40 697.80 C 671.80 683.20 686.50 663.30 694.80 640.60 L 700.90 623.70 C 707.20 618.90 723.40 606.40 745.10 590.10 C 774.30 568.10 804.50 547.40 835.50 528.10 C 849.10 519.60 861.60 509.40 872.70 497.80 C 885.10 502.70 899.00 502.60 911.30 497.60 C 931.70 489.60 945.80 471.00 950.90 456.20 L 953.30 450.30 L 1007.80 317.80 L 1007.90 317.50 C 1017.00 294.00 1022.40 269.20 1023.90 244.00 C 1025.40 227.40 1021.00 210.90 1011.50 197.30 Z M 196.80 471.40 C 194.60 481.70 187.70 490.40 178.10 494.70 C 166.30 499.80 154.90 496.30 141.80 492.20 C 126.10 487.30 106.50 481.30 86.10 493.70 C 59.30 510.00 40.30 501.70 39.60 501.40 L 38.80 501.00 L 42.60 500.30 L 181.10 436.80 L 198.00 430.10 L 209.00 456.30 C 202.80 459.20 198.30 464.70 196.80 471.40 L 196.80 471.40 Z M 929.20 179.50 C 952.60 178.90 978.30 191.90 991.30 211.10 C 991.50 211.40 991.70 211.80 991.90 212.10 L 943.50 224.00 C 935.60 214.30 925.60 206.40 914.30 201.00 L 895.90 192.10 C 905.10 184.10 917.00 179.60 929.20 179.50 Z M 881.80 212.60 L 903.80 223.20 C 908.20 225.30 912.30 227.90 916.10 231.00 L 906.80 233.30 L 871.30 234.70 L 881.80 212.60 Z M 235.80 455.20 L 235.10 455.20 L 221.20 422.10 L 231.40 418.80 L 246.00 455.20 C 242.70 455.20 239.20 455.20 235.80 455.20 L 235.80 455.20 Z M 671.70 632.20 C 660.90 661.90 636.70 684.80 606.50 694.10 C 605.30 694.50 604.00 694.80 602.70 695.20 C 596.30 696.90 589.80 697.80 583.20 697.90 L 579.80 697.90 C 548.30 697.00 519.60 679.10 505.00 651.20 C 486.30 616.30 471.80 579.20 461.80 540.80 L 436.50 449.60 C 458.50 443.20 472.20 438.20 473.80 437.60 L 465.10 414.60 C 464.10 415.00 374.40 447.90 272.10 454.20 L 255.00 411.30 L 419.30 358.70 C 444.10 351.20 470.90 360.70 485.50 382.10 L 577.10 516.00 C 578.80 518.40 580.90 520.60 583.20 522.40 C 589.30 539.60 614.70 599.50 674.80 623.60 L 671.70 632.20 Z M 688.20 602.40 C 644.60 586.80 621.00 547.20 611.00 525.50 C 613.90 524.20 616.60 522.40 619.00 520.10 L 652.40 493.80 L 730.10 570.50 C 716.10 581.20 702.10 591.80 688.20 602.40 L 688.20 602.40 Z M 822.50 507.20 C 797.80 522.60 773.60 538.90 750.00 555.90 L 668.20 475.00 L 676.80 457.20 C 691.40 426.80 719.20 404.90 752.20 397.90 L 758.80 407.30 C 760.00 415.90 764.60 437.10 781.70 451.20 C 792.20 459.90 805.30 464.20 820.70 464.20 C 824.90 464.20 829.20 463.90 833.40 463.30 L 830.00 439.00 C 816.20 440.90 805.20 438.70 797.40 432.30 C 784.30 421.60 782.90 402.30 782.90 402.10 L 782.70 398.60 L 715.60 302.80 L 715.30 302.40 C 710.00 295.60 708.90 286.40 712.40 278.50 C 715.50 271.00 722.50 265.80 730.50 265.10 L 732.40 265.00 L 910.30 257.80 L 998.00 236.00 L 998.20 236.00 C 998.30 236.30 998.30 236.60 998.30 236.90 C 998.20 237.10 998.10 237.30 997.90 237.50 C 995.20 240.00 980.60 251.30 968.90 260.50 L 958.50 268.70 C 949.60 275.70 938.00 278.40 926.90 276.20 L 917.70 274.40 L 753.00 294.40 L 756.00 318.70 L 768.40 317.20 L 856.30 389.50 L 857.60 390.10 C 867.90 395.10 875.90 403.90 879.90 414.60 C 880.50 416.30 881.10 418.00 881.50 419.80 C 881.70 423.60 882.10 425.90 882.20 426.30 L 882.60 426.30 C 883.60 436.30 881.20 446.30 875.80 454.80 L 875.40 455.40 C 861.70 476.30 843.70 494.00 822.50 507.20 L 822.50 507.20 Z M 881.00 328.30 C 871.10 323.60 863.00 315.80 857.90 306.10 L 916.50 299.00 L 921.80 300.10 C 925.10 300.70 928.40 301.10 931.70 301.30 L 925.60 313.90 C 922.50 320.40 917.20 325.60 910.80 328.60 C 907.30 330.30 903.60 331.30 899.80 331.70 C 893.30 332.30 886.80 331.10 881.00 328.30 L 881.00 328.30 Z M 893.90 356.30 C 890.20 363.80 887.20 371.60 885.10 379.70 C 880.40 375.30 875.10 371.50 869.40 368.60 L 854.00 355.90 L 861.30 345.30 C 864.20 347.20 867.20 348.90 870.30 350.40 C 877.70 353.90 885.80 355.90 893.90 356.30 L 893.90 356.30 Z M 843.20 328.40 L 835.00 340.30 L 801.70 312.90 L 832.40 309.20 C 835.00 316.10 838.70 322.60 843.20 328.40 Z M 930.50 441.00 L 928.00 447.40 L 927.80 448.00 C 924.70 457.30 914.70 469.80 902.40 474.70 C 898.50 476.30 894.30 477.00 890.10 476.70 C 892.10 474.00 894.00 471.20 895.80 468.30 L 896.20 467.70 C 905.90 452.40 909.30 434.00 905.60 416.20 C 905.00 402.90 906.50 370.20 932.90 343.30 C 939.20 338.20 944.30 331.70 947.80 324.40 L 954.50 310.60 C 956.70 305.90 958.50 301.00 959.80 295.90 C 964.70 293.70 969.20 291.00 973.40 287.70 L 983.80 279.50 L 996.00 270.00 C 993.50 283.10 989.80 295.90 985.10 308.30 L 930.50 441.00 Z" fill="#142546" fill-rule="nonzero" node-id="38" stroke="none" target-height="567.4" target-width="1023.9638" target-x="0.21902987" target-y="155"></path></svg>