<?xml version="1.0" standalone="no"?><!DOCTYPE svg PUBLIC "-//W3C//DTD SVG 1.1//EN" "http://www.w3.org/Graphics/SVG/1.1/DTD/svg11.dtd"><svg height="1024" legacy-metrics="false" node-id="1" sillyvg="true" template-height="1024" template-width="1024" version="1.1" viewBox="0 0 1024 1024" width="1024" xmlns="http://www.w3.org/2000/svg" xmlns:xlink="http://www.w3.org/1999/xlink"><defs node-id="23"></defs><path d="M 885.30 214.00 L 926.60 144.40 L 950.70 158.70 L 909.40 228.30 L 885.30 214.00 Z M 930.00 282.20 L 1020.10 269.10 L 1024.10 296.90 L 934.00 310.00 L 930.00 282.20 Z M 775.30 113.80 L 801.60 104.00 L 833.30 189.40 L 807.00 199.20 L 775.30 113.80 Z" fill="#ddd3d4" fill-rule="nonzero" node-id="27" stroke="none" target-height="206" target-width="248.79999" target-x="775.3" target-y="104"></path><path d="M 126.20 179.50 L 561.00 179.50 C 635.70 179.50 673.10 216.90 673.10 291.60 L 673.10 771.60 C 673.10 846.30 635.70 883.70 561.00 883.70 L 126.20 883.70 C 51.50 883.70 14.10 846.30 14.10 771.60 L 14.10 291.60 C 14.20 216.90 51.50 179.50 126.20 179.50 Z" fill="#c5b4b8" fill-rule="nonzero" node-id="29" stroke="none" target-height="704.2" target-width="659" target-x="14.1" target-y="179.5"></path><path d="M 248.50 185.50 L 566.20 185.50 C 640.90 185.50 678.30 222.90 678.30 297.60 L 678.30 777.60 C 678.30 852.30 640.90 889.70 566.20 889.70 L 248.50 889.70 C 173.80 889.70 136.40 852.30 136.40 777.60 L 136.40 297.60 C 136.40 222.80 173.80 185.50 248.50 185.50 Z" fill="#dcd3d4" fill-rule="nonzero" node-id="31" stroke="none" target-height="704.2" target-width="541.9" target-x="136.4" target-y="185.5"></path><path d="M 14.20 345.30 L 663.40 345.30 L 663.40 718.80 L 14.20 718.80 L 14.20 345.30 Z" fill="#4966a2" fill-rule="nonzero" node-id="33" stroke="none" target-height="373.5" target-width="649.2" target-x="14.2" target-y="345.3"></path><path d="M 537.30 345.40 C 537.30 345.40 485.00 446.10 529.40 468.20 L 549.10 718.90 L 631.00 718.90 L 611.00 345.50 L 537.30 345.50 Z" fill="#3d5890" fill-rule="nonzero" node-id="35" stroke="none" target-height="373.50003" target-width="119.48108" target-x="511.51892" target-y="345.4"></path><path d="M 472.40 598.80 C 472.20 599.90 472.00 601.00 471.90 602.30 C 470.30 617.10 458.80 631.10 436.60 631.10 L 435.80 631.10 C 421.40 637.90 362.00 659.80 302.60 659.80 C 277.70 659.80 247.10 652.80 229.90 627.70 C 227.40 624.10 222.10 620.10 218.90 613.10 C 211.40 596.70 217.10 581.00 218.50 577.30 L 236.80 564.20 C 245.00 566.50 253.70 565.20 261.00 560.80 C 274.30 552.90 296.70 546.10 329.70 556.50 C 349.00 543.90 380.20 548.90 388.80 552.30 L 409.00 555.20 C 406.80 546.30 385.60 540.00 395.00 488.90 C 396.40 481.10 392.90 463.90 390.70 456.50 C 384.70 456.30 379.90 457.20 372.50 456.00 C 365.40 454.60 358.80 451.40 353.30 446.80 C 332.00 429.60 335.20 409.30 348.60 394.30 L 360.50 389.60 L 364.50 388.70 C 418.00 376.80 435.20 420.70 436.20 421.80 L 437.70 423.70 C 440.10 427.60 487.80 516.80 472.40 598.80 L 472.40 598.80 Z" fill="#f4b4b1" fill-rule="nonzero" node-id="37" stroke="none" target-height="273.14288" target-width="260.32574" target-x="215.12703" target-y="386.6571"></path><path d="M 14.20 718.80 L 663.40 718.80 L 663.40 767.20 L 14.20 767.20 L 14.20 718.80 Z" fill="#e08476" fill-rule="nonzero" node-id="39" stroke="none" target-height="48.400024" target-width="649.2" target-x="14.2" target-y="718.8"></path><path d="M 104.50 12.70 L 582.70 12.70 C 588.90 12.70 592.00 15.80 592.00 22.00 L 592.00 118.00 C 592.00 124.20 588.90 127.30 582.70 127.30 L 104.50 127.30 C 98.30 127.30 95.20 124.20 95.20 118.00 L 95.20 22.00 C 95.20 15.80 98.30 12.70 104.50 12.70 Z" fill="#4966a2" fill-rule="nonzero" node-id="41" stroke="none" target-height="114.600006" target-width="496.8" target-x="95.2" target-y="12.7"></path><path d="M 133.20 130.90 L 565.20 130.90 L 565.20 179.30 L 133.20 179.30 L 133.20 130.90 Z" fill="#e08476" fill-rule="nonzero" node-id="43" stroke="none" target-height="48.40001" target-width="432" target-x="133.2" target-y="130.9"></path><path d="M 893.40 453.80 L 629.00 453.80 C 618.20 453.80 609.90 442.70 611.40 430.40 L 622.70 343.40 C 714.30 317.30 811.30 317.30 902.80 343.40 C 905.60 372.70 908.30 401.90 911.10 431.20 C 912.20 443.30 904.00 453.80 893.40 453.80 L 893.40 453.80 Z" fill="#dcd3d4" fill-rule="nonzero" node-id="45" stroke="none" target-height="129.97504" target-width="299.95044" target-x="611.2294" target-y="323.82495"></path><path d="M 630.90 329.10 L 630.90 309.50 C 630.90 285.80 652.10 266.50 678.20 266.50 C 690.50 266.40 702.50 270.90 711.70 279.10 C 720.40 286.80 725.40 297.90 725.60 309.50 L 725.60 318.00" fill="#f2463e" fill-rule="nonzero" node-id="47" stroke="none" target-height="62.600006" target-width="94.69995" target-x="630.9" target-y="266.5"></path><path d="M 727.20 325.30 L 727.20 289.30 C 727.20 282.60 732.70 277.10 739.40 277.10 L 850.00 277.10 C 856.70 277.10 862.20 282.60 862.20 289.30 L 862.20 325.20" fill="#f4b4b1" fill-rule="nonzero" node-id="49" stroke="none" target-height="48.19998" target-width="135" target-x="727.2" target-y="277.1"></path><path d="M 868.00 885.10 L 645.00 885.10 C 644.50 885.10 644.00 884.70 644.00 884.10 L 622.00 453.50 C 621.90 452.90 622.40 452.50 622.90 452.40 C 622.90 452.40 623.00 452.40 623.00 452.40 L 888.40 452.40 C 889.00 452.40 889.40 452.90 889.40 453.40 C 889.40 453.40 889.40 453.40 889.40 453.40 L 869.00 884.10 C 869.00 884.70 868.60 885.10 868.00 885.10 Z" fill="#ffeef0" fill-rule="nonzero" node-id="51" stroke="none" target-height="432.69998" target-width="267.40002" target-x="622" target-y="452.4"></path><path d="M 884.10 583.50 C 884.10 583.50 877.30 562.50 767.80 573.10 C 658.30 583.70 627.10 551.60 627.10 551.60 L 654.60 847.40 L 861.80 847.40 L 884.10 583.50 Z" fill="#f4b4b1" fill-rule="nonzero" node-id="53" stroke="none" target-height="295.80005" target-width="257" target-x="627.1" target-y="551.6"></path><path d="M 818.30 664.40 C 818.30 672.10 812.00 678.40 804.30 678.40 C 796.60 678.40 790.30 672.10 790.30 664.40 C 790.30 656.70 796.60 650.40 804.30 650.40 C 812.00 650.40 818.30 656.70 818.30 664.40 Z M 822.50 769.80 C 822.50 777.50 816.20 783.80 808.50 783.80 C 800.80 783.80 794.50 777.50 794.50 769.80 C 794.50 762.10 800.80 755.80 808.50 755.80 C 816.20 755.80 822.50 762.10 822.50 769.80 Z M 726.00 731.60 C 718.90 734.70 710.60 731.50 707.50 724.40 C 704.40 717.30 707.60 709.00 714.70 705.90 C 721.80 702.80 730.10 706.00 733.20 713.10 C 733.20 713.20 733.20 713.20 733.30 713.30 C 736.20 720.30 733.00 728.50 726.00 731.60 Z M 772.00 645.50 C 764.90 648.60 756.60 645.40 753.50 638.30 C 750.40 631.20 753.60 622.90 760.70 619.80 C 767.80 616.70 776.10 619.90 779.20 627.00 C 779.20 627.10 779.20 627.10 779.30 627.20 C 782.30 634.30 779.00 642.40 772.00 645.50 Z" fill="#e08476" fill-rule="nonzero" node-id="55" stroke="none" target-height="165.16412" target-width="116.164185" target-x="706.3358" target-y="618.63586"></path><path d="M 910.60 456.20 C 917.30 448.70 920.60 438.60 919.60 428.60 L 910.40 331.20 L 901.20 328.60 C 890.70 325.60 880.20 323.00 869.40 320.70 L 869.40 296.70 C 869.40 282.20 857.70 270.50 843.20 270.50 L 732.60 270.50 C 727.60 270.50 722.80 272.00 718.60 274.70 C 717.80 273.90 717.00 273.10 716.10 272.40 C 708.30 265.40 698.90 260.40 688.70 258.00 C 674.70 207.50 630.90 171.00 578.70 166.30 L 578.70 145.00 L 585.90 145.00 C 598.80 145.00 609.30 134.50 609.30 121.60 L 609.30 25.60 C 609.30 12.70 598.80 2.20 585.90 2.20 L 107.50 2.20 C 94.60 2.00 84.10 12.50 84.10 25.40 L 84.10 121.40 C 84.10 134.30 94.60 144.80 107.50 144.80 L 114.70 144.80 L 114.70 166.10 C 49.80 172.00 0.20 226.30 0.10 291.40 L 0.10 771.90 C 0.20 841.40 56.50 897.70 126.00 897.80 L 567.30 897.80 C 589.10 897.80 610.50 892.20 629.40 881.40 L 629.60 885.00 C 630.00 893.00 636.60 899.20 644.60 899.30 L 867.70 899.30 C 875.70 899.30 882.40 893.00 882.70 884.90 L 897.00 581.90 L 897.50 581.70 C 897.40 581.30 897.20 580.80 897.00 580.40 L 902.60 462.60 C 905.60 460.90 908.30 458.80 910.60 456.20 L 910.60 456.20 Z M 891.60 431.20 C 891.90 433.40 891.20 435.60 889.80 437.30 C 889.30 437.90 888.70 438.30 887.90 438.40 L 623.40 438.40 C 622.60 438.30 621.90 437.90 621.40 437.30 C 620.00 435.50 619.30 433.20 619.70 430.90 L 629.80 353.20 C 671.40 342.20 714.20 336.60 757.20 336.60 L 757.80 336.60 C 800.50 336.70 842.90 342.20 884.20 353.10 L 891.60 431.20 Z M 873.70 481.50 L 834.10 481.50 L 834.10 509.50 L 872.40 509.50 L 869.90 562.30 C 850.40 557.30 818.30 555.50 766.50 560.80 C 684.30 569.10 649.60 551.00 640.30 544.40 L 638.50 509.30 L 808.70 509.30 L 808.70 481.30 L 636.90 481.30 L 636.10 466.30 L 874.30 466.30 L 873.70 481.50 Z M 841.30 298.50 L 841.30 315.30 C 813.70 310.80 785.80 308.50 757.90 308.50 C 750.10 308.50 742.30 308.70 734.50 309.00 L 734.50 298.40 L 841.30 298.50 Z M 706.30 311.00 C 683.90 313.20 661.70 316.80 639.80 321.80 L 639.80 313.00 C 639.80 297.00 654.70 284.00 673.10 284.00 C 682.00 283.90 690.50 287.10 697.20 293.00 C 702.40 297.50 705.70 304.00 706.30 311.00 L 706.30 311.00 Z M 112.20 116.60 L 112.20 30.20 L 581.00 30.20 L 581.00 116.70 L 112.20 116.70 Z M 550.50 144.70 L 550.50 165.50 L 142.70 165.50 L 142.70 144.70 L 550.50 144.70 Z M 125.50 193.50 L 567.70 193.50 C 608.50 193.70 644.80 219.10 659.00 257.40 C 631.90 263.30 611.70 286.00 611.70 312.90 L 611.70 329.10 L 604.40 331.20 L 604.40 331.40 L 555.90 331.40 L 555.90 359.40 L 600.80 359.40 L 592.00 427.20 C 590.60 437.50 593.70 447.90 600.40 455.70 C 602.60 458.20 605.10 460.30 607.90 462.00 L 620.30 704.70 L 28.20 704.70 L 28.20 359.40 L 512.30 359.40 L 512.30 331.40 L 28.20 331.40 L 28.20 291.40 C 28.10 237.60 71.60 193.80 125.50 193.50 Z M 567.20 869.60 L 126.00 869.60 C 75.60 869.60 33.50 831.30 28.70 781.20 L 156.30 781.20 L 156.30 753.20 L 28.20 753.20 L 28.20 732.80 L 621.90 732.80 L 623.00 753.20 L 197.10 753.20 L 197.10 781.20 L 624.30 781.20 L 627.80 848.70 C 610.50 862.30 589.20 869.70 567.20 869.60 L 567.20 869.60 Z M 656.90 871.00 L 656.40 861.20 L 855.70 861.20 L 855.20 871.00 L 656.90 871.00 Z M 857.00 833.20 L 655.00 833.20 L 641.90 577.10 C 664.20 586.40 703.70 595.40 769.30 588.80 C 834.30 582.20 859.70 588.00 868.50 591.40 L 857.00 833.20 Z M 859.80 213.90 L 901.10 144.30 L 925.20 158.60 L 883.90 228.20 L 859.80 213.90 Z M 913.30 262.70 L 1003.40 249.60 L 1007.40 277.40 L 917.30 290.50 L 913.30 262.70 Z" fill="#142546" fill-rule="nonzero" node-id="57" stroke="none" target-height="897.1" target-width="1007.30005" target-x="0.1" target-y="2.2"></path><path d="M 759.50 131.60 L 785.80 121.80 L 817.50 207.20 L 791.20 217.00 L 759.50 131.60 Z M 438.20 402.00 L 437.50 400.80 L 436.60 399.80 C 435.50 398.60 408.30 370.60 349.20 384.00 L 344.80 385.00 L 341.80 388.40 C 326.80 405.50 324.80 430.30 336.70 449.60 L 337.40 450.80 C 342.30 458.80 350.00 464.70 359.00 467.30 C 366.10 469.40 373.40 470.60 380.90 470.90 C 383.40 479.40 384.00 488.40 382.80 497.20 C 380.50 514.40 381.20 527.50 383.60 537.50 C 382.90 537.30 382.10 537.10 381.40 536.80 C 364.50 529.90 345.30 532.00 330.30 542.30 C 293.90 530.50 269.10 538.20 254.40 547.10 C 246.40 552.10 236.80 553.50 227.70 551.00 L 226.10 550.50 L 218.20 577.40 L 219.80 577.90 C 225.20 579.50 230.90 580.30 236.50 580.20 C 248.00 580.20 259.30 577.00 269.10 571.00 C 276.90 566.30 289.30 562.20 307.80 565.40 C 306.90 566.80 305.90 568.20 304.90 569.70 L 328.60 584.60 C 341.40 564.30 356.00 556.70 371.00 562.70 C 379.40 565.90 388.50 567.00 397.30 565.70 L 401.40 565.10 C 402.90 566.10 404.50 566.90 406.10 567.60 C 409.40 569.10 412.20 571.70 413.80 575.00 L 438.90 562.40 C 434.40 553.30 426.80 546.10 417.50 541.90 C 413.20 540.00 406.80 529.20 410.70 500.70 C 412.30 489.00 411.50 477.10 408.60 465.60 C 414.50 463.10 419.70 459.30 423.90 454.40 L 401.90 436.90 C 401.90 437.00 392.20 447.40 366.80 440.10 C 364.40 439.40 362.40 437.80 361.20 435.70 L 360.50 434.50 C 355.90 427.00 355.80 417.60 360.40 410.10 C 394.70 403.60 411.50 414.90 415.50 418.10 C 423.00 430.70 472.70 517.90 458.80 594.20 C 458.50 596.10 458.20 598.00 458.00 600.20 C 457.60 604.10 455.70 608.50 444.20 607.60 L 440.20 607.30 L 436.60 609.10 C 435.30 609.80 302.60 676.90 230.20 627.00 L 214.30 650.10 C 239.20 667.30 268.90 673.50 298.60 673.50 C 364.00 673.50 430.00 643.60 446.00 635.80 C 471.10 636.20 484.10 620.10 485.90 603.20 C 486.10 601.70 486.30 600.40 486.50 599.30 C 503.10 506.90 440.80 406.20 438.20 402.00 L 438.20 402.00 Z" fill="#142546" fill-rule="nonzero" node-id="59" stroke="none" target-height="551.7" target-width="603.2" target-x="214.3" target-y="121.8"></path></svg>