<?xml version="1.0" standalone="no"?><!DOCTYPE svg PUBLIC "-//W3C//DTD SVG 1.1//EN" "http://www.w3.org/Graphics/SVG/1.1/DTD/svg11.dtd"><svg height="1024" legacy-metrics="false" node-id="1" sillyvg="true" template-height="1024" template-width="1024" version="1.1" viewBox="0 0 1024 1024" width="1024" xmlns="http://www.w3.org/2000/svg" xmlns:xlink="http://www.w3.org/1999/xlink"><defs node-id="22"></defs><path d="M 363.60 330.20 L 363.60 446.50 C 363.60 446.50 321.20 484.20 328.60 530.00 L 229.90 546.60 C 229.90 546.70 330.10 345.20 363.60 330.20 Z M 622.90 332.40 L 622.90 448.70 C 622.90 448.70 665.30 486.40 657.90 532.20 L 756.60 548.80 C 756.60 548.80 656.30 347.40 622.90 332.40 L 622.90 332.40 Z" fill="#e08476" fill-rule="nonzero" node-id="24" stroke="none" target-height="218.59998" target-width="526.69995" target-x="229.9" target-y="330.2"></path><path d="M 373.20 327.70 C 373.20 327.70 392.10 312.40 430.40 312.40 C 430.40 312.40 427.20 372.60 494.30 372.60 C 561.40 372.60 555.10 312.40 555.10 312.40 C 555.10 312.40 596.00 318.20 615.00 329.70 L 615.00 448.40 C 615.00 448.40 656.40 487.40 649.90 529.90 L 556.40 520.70 L 508.00 410.70 L 478.60 410.30 L 429.50 520.70 L 337.40 533.00 C 337.40 533.00 328.30 501.00 367.10 447.10 L 373.10 324.50" fill="#ffeef0" fill-rule="nonzero" node-id="26" stroke="none" target-height="220.6" target-width="314.06128" target-x="336.47772" target-y="312.4"></path><path d="M 344.60 602.90 C 344.60 602.90 341.30 621.60 395.30 621.60 L 614.60 621.60 C 614.60 621.60 637.50 617.00 642.70 602.90 C 642.70 602.90 496.80 559.10 496.50 521.30 C 496.40 521.40 486.20 566.10 344.60 602.90 Z" fill="#dcd3d4" fill-rule="nonzero" node-id="28" stroke="none" target-height="100.29999" target-width="298.1" target-x="344.6" target-y="521.3"></path><path d="M 770.40 571.00 L 767.50 566.10 C 761.30 555.70 750.70 548.70 738.80 546.90 L 559.00 519.80 L 515.00 416.00 C 512.90 411.10 507.20 408.80 502.20 410.90 C 498.70 412.40 496.40 415.90 496.30 419.80 L 496.30 504.00 C 496.30 527.70 511.40 555.40 540.50 564.60 L 540.50 564.80 L 575.50 577.40 L 725.10 631.40 C 746.80 637.20 769.10 624.30 774.90 602.60 C 777.80 591.80 776.20 580.40 770.40 571.00 L 770.40 571.00 Z M 218.60 571.00 L 221.50 566.10 C 227.70 555.80 238.20 548.70 250.20 546.90 L 430.00 519.90 L 474.00 416.10 C 476.10 411.20 481.80 408.90 486.80 411.00 C 490.30 412.50 492.60 416.00 492.70 419.90 L 492.70 504.00 C 492.70 527.70 477.60 555.40 448.50 564.60 L 448.50 564.80 L 413.50 577.40 L 264.00 631.40 C 247.20 635.70 229.50 629.00 219.70 614.70 C 210.80 601.50 210.50 584.50 218.60 571.00 L 218.60 571.00 Z M 364.40 622.30 L 621.40 622.30 C 621.40 622.30 610.90 709.90 634.70 728.10 C 634.70 728.10 488.90 764.90 352.50 728.10 C 352.60 728.10 374.60 672.00 364.40 622.30 Z" fill="#f3b5af" fill-rule="nonzero" node-id="30" stroke="none" target-height="334.33475" target-width="563.4862" target-x="212.79489" target-y="410.12888"></path><path d="M 373.70 303.40 L 373.70 157.50 C 373.70 99.70 427.70 52.80 494.40 52.80 C 527.70 52.80 557.90 64.50 579.70 83.50 C 601.50 102.50 615.10 128.60 615.10 157.50 L 615.10 311.80" fill="#3d5890" fill-rule="nonzero" node-id="32" stroke="none" target-height="259" target-width="241.39996" target-x="373.7" target-y="52.8"></path><path d="M 373.70 304.90 L 373.70 173.60 C 373.70 121.60 418.10 79.40 472.80 79.40 C 498.80 79.30 523.90 89.10 542.90 107.00 C 561.30 124.30 571.80 148.40 571.90 173.60 L 571.90 312.50" fill="#4966a2" fill-rule="nonzero" node-id="34" stroke="none" target-height="233.1" target-width="198.20001" target-x="373.7" target-y="79.4"></path><path d="M 496.80 298.80 L 489.30 298.80 C 447.80 298.80 414.20 265.20 414.20 223.70 C 414.20 223.70 414.20 223.70 414.20 223.70 L 414.20 186.60 L 571.80 186.60 L 571.80 223.70 C 571.80 265.20 538.20 298.80 496.80 298.80 Z" fill="#f3b5af" fill-rule="nonzero" node-id="36" stroke="none" target-height="112.19998" target-width="157.59998" target-x="414.2" target-y="186.6"></path><path d="M 442.10 287.80 L 430.40 312.40 L 430.40 320.00 C 430.40 349.10 457.60 372.60 491.20 372.60 C 524.80 372.60 552.00 349.10 552.00 320.00 L 552.00 312.40 L 542.20 290.10" fill="#e08476" fill-rule="nonzero" node-id="38" stroke="none" target-height="84.80002" target-width="121.600006" target-x="430.4" target-y="287.8"></path><path d="M 625.80 925.80 C 488.70 964.60 382.40 925.80 382.40 925.80 L 504.10 886.20 L 625.80 925.80 Z" fill="#3d5890" fill-rule="nonzero" node-id="40" stroke="none" target-height="56.832214" target-width="243.4" target-x="382.4" target-y="886.2"></path><path d="M 346.50 736.30 C 346.50 736.30 487.60 769.40 639.40 736.30 C 639.40 736.30 647.20 792.40 700.40 815.70 L 474.20 802.10 C 474.20 802.10 431.60 763.90 379.50 792.90 C 327.30 821.90 307.80 789.90 307.80 789.90 C 307.80 789.90 351.70 758.60 346.50 736.30 Z M 772.50 969.80 L 501.20 893.20 L 513.90 806.80 C 513.90 806.80 517.20 806.80 538.40 808.40 L 810.00 828.70 C 839.30 833.70 862.30 856.50 867.60 885.70 C 872.10 912.20 860.80 939.00 838.70 954.30 L 830.70 959.90 C 813.70 971.70 792.40 975.30 772.50 969.80 L 772.50 969.80 Z" fill="#4966a2" fill-rule="nonzero" node-id="42" stroke="none" target-height="236.00006" target-width="560.7587" target-x="307.8" target-y="736.3"></path><path d="M 868.50 894.30 C 868.60 917.20 857.50 938.70 838.70 951.80 L 830.70 957.40 C 813.70 969.20 792.40 972.80 772.40 967.30 L 501.10 890.70 L 505.70 859.50 C 567.30 878.90 779.70 940.30 868.50 894.30 L 868.50 894.30 Z" fill="#3d5890" fill-rule="nonzero" node-id="44" stroke="none" target-height="110.30005" target-width="367.4" target-x="501.1" target-y="859.5"></path><path d="M 230.40 969.80 L 474.00 905.60 L 461.40 882.20 C 461.40 882.20 283.40 821.80 192.80 828.60 C 163.50 833.60 140.50 856.40 135.20 885.60 C 130.70 912.10 142.00 938.90 164.10 954.20 L 172.10 959.80 C 189.20 971.70 210.50 975.30 230.40 969.80 L 230.40 969.80 Z" fill="#4966a2" fill-rule="nonzero" node-id="46" stroke="none" target-height="144.16846" target-width="339.7588" target-x="134.24123" target-y="828.1278"></path><path d="M 456.50 882.30 L 250.50 834.40 L 225.30 834.80 C 217.00 835.00 210.20 828.40 210.00 820.20 C 210.00 819.30 210.00 818.40 210.20 817.60 C 211.20 811.10 216.30 806.10 222.80 805.20 L 237.40 803.00 C 237.40 803.00 268.00 779.50 319.50 798.00 C 376.50 818.50 395.30 747.60 469.20 802.30 L 456.50 882.30 Z" fill="#f3b5af" fill-rule="nonzero" node-id="48" stroke="none" target-height="101.196594" target-width="259.2" target-x="210" target-y="781.1034"></path><path d="M 134.40 894.30 C 134.30 917.20 145.40 938.70 164.20 951.80 L 172.20 957.40 C 189.20 969.20 210.50 972.80 230.50 967.30 L 501.80 890.70 L 446.20 874.40 C 385.50 888.00 223.10 940.30 134.40 894.30 L 134.40 894.30 Z" fill="#3d5890" fill-rule="nonzero" node-id="50" stroke="none" target-height="95.400024" target-width="367.4" target-x="134.4" target-y="874.4"></path><path d="M 468.00 879.70 L 480.70 804.10 L 511.20 809.20 L 498.50 884.80 L 468.00 879.70 Z" fill="#ffffff" fill-rule="nonzero" node-id="52" stroke="none" target-height="80.70001" target-width="43.200012" target-x="468" target-y="804.1"></path><path d="M 0.10 919.30 L 51.80 919.30 L 51.80 945.20 L 0.10 945.20 L 0.10 919.30 Z M 1024.10 919.30 L 877.40 919.30 C 881.00 907.20 881.80 894.50 879.80 882.00 C 873.60 847.40 846.40 820.30 811.70 814.40 L 705.80 806.50 C 638.90 768.90 631.80 662.40 631.20 630.90 C 638.30 628.30 644.60 623.70 649.30 617.70 L 720.70 643.40 L 722.00 643.80 C 726.40 644.90 730.80 645.40 735.30 645.40 C 764.90 645.60 789.00 621.80 789.20 592.30 C 789.30 582.40 786.60 572.70 781.50 564.20 L 778.60 559.40 L 679.60 386.30 C 667.60 357.80 649.40 335.00 627.50 319.90 L 627.50 164.80 C 627.40 131.00 613.10 98.80 588.00 76.10 C 562.30 52.50 528.70 39.60 493.90 39.80 C 420.20 39.80 360.30 95.90 360.30 164.70 L 360.30 316.80 C 336.00 331.90 315.80 356.30 302.90 387.40 L 208.20 559.20 L 205.40 563.90 C 190.30 589.50 198.70 622.50 224.30 637.60 C 236.60 644.90 251.20 647.00 265.00 643.50 L 334.10 618.70 C 339.30 624.80 346.00 629.30 353.70 631.60 C 354.20 657.70 351.90 733.70 313.80 781.00 C 273.80 771.60 246.90 784.90 238.00 790.30 L 226.30 792.00 C 214.90 793.60 205.70 802.10 203.10 813.30 L 192.30 814.10 L 191.00 814.30 C 156.30 820.20 129.00 847.20 122.80 881.90 C 120.70 894.30 121.50 907.10 125.20 919.20 L 78.20 919.20 L 78.20 945.10 L 138.20 945.10 C 143.50 952.20 149.80 958.40 157.10 963.40 L 165.10 969.00 C 185.20 983.00 210.50 987.30 234.20 980.70 L 381.60 939.80 C 397.10 944.60 439.90 955.90 498.80 955.90 C 540.00 955.90 581.00 950.40 620.80 939.60 L 768.70 980.60 C 792.30 987.20 817.60 982.90 837.80 968.90 L 845.80 963.30 C 853.00 958.20 859.40 952.10 864.70 945.00 L 1024.40 945.00 L 1024.10 919.30 Z M 736.80 559.70 C 744.90 560.90 752.00 565.70 756.20 572.60 L 759.10 577.50 C 767.00 590.60 762.80 607.70 749.70 615.60 C 743.40 619.40 735.80 620.60 728.60 618.80 L 555.90 556.50 L 562.20 533.40 L 736.80 559.70 L 736.80 559.70 Z M 379.30 635.30 L 605.30 635.30 C 606.00 663.60 610.00 691.70 617.20 719.10 C 511.20 742.10 410.60 727.70 369.80 719.90 C 376.40 692.10 379.60 663.70 379.30 635.30 L 379.30 635.30 Z M 450.30 576.80 C 454.00 575.80 457.60 574.50 461.10 572.90 L 461.90 572.60 C 474.70 566.60 485.50 557.20 493.10 545.30 C 500.90 557.40 511.90 566.90 525.00 572.90 L 525.60 573.10 C 528.80 574.50 532.00 575.70 535.30 576.60 L 620.40 607.30 C 615.60 608.70 610.50 609.40 605.40 609.30 L 605.40 609.30 L 376.90 609.30 C 372.50 609.40 368.20 608.90 364.00 607.90 M 446.30 514.70 L 480.10 434.80 L 480.10 503.20 C 479.90 521.20 470.40 537.80 455.00 547.10 L 446.30 514.70 Z M 506.00 503.20 L 506.00 435.00 L 540.20 515.80 L 531.70 547.30 C 516.00 538.20 506.20 521.40 506.00 503.20 Z M 634.40 361.40 C 643.40 372.20 650.70 384.30 656.00 397.30 L 656.30 398.10 L 733.60 533.30 L 669.90 523.70 C 668.00 500.70 660.00 478.60 646.60 459.80 L 634.40 443.20 L 634.40 361.40 Z M 386.20 165.00 C 386.20 110.40 434.50 66.00 493.90 66.00 C 522.10 65.70 549.50 76.10 570.30 95.20 C 590.10 113.00 601.40 138.30 601.50 164.90 L 601.50 306.60 C 589.30 302.00 576.50 299.70 563.50 299.60 L 558.20 287.50 C 575.70 270.90 585.60 247.90 585.50 223.80 L 585.50 173.80 L 402.00 173.80 L 402.00 223.80 C 402.00 248.40 412.30 271.90 430.50 288.50 L 425.30 299.50 L 419.60 299.50 C 408.20 299.50 396.90 301.30 386.10 304.80 L 386.20 165.00 Z M 497.70 286.00 L 490.20 286.00 C 455.90 286.10 428.00 258.30 427.90 223.90 C 427.90 223.80 427.90 223.70 427.90 223.70 L 427.90 199.60 L 559.60 199.60 L 559.60 223.70 C 559.60 258.00 531.80 285.70 497.60 285.80 L 497.70 286.00 Z M 542.20 315.30 L 542.20 320.20 C 542.20 342.10 520.70 359.90 494.40 359.90 C 468.00 359.90 446.60 342.10 446.60 320.20 L 446.60 315.50 L 452.40 303.30 C 464.20 309.00 477.10 311.90 490.20 311.90 L 497.70 311.90 C 511.20 311.80 524.60 308.60 536.60 302.50 L 542.20 315.30 Z M 360.40 473.50 L 377.50 449.80 L 377.50 336.80 C 390.40 329.40 404.90 325.50 419.80 325.40 L 421.00 325.40 C 424.10 359.00 455.80 385.60 494.40 385.60 C 533.00 385.60 564.70 359.10 567.80 325.60 C 582.30 326.50 596.30 331.00 608.60 338.70 L 608.60 451.40 L 625.90 474.80 C 635.30 488.00 641.40 503.30 643.50 519.40 L 565.00 507.60 L 523.60 410.00 C 518.70 398.50 505.50 393.10 494.00 398.00 C 493.70 398.10 493.40 398.30 493.10 398.40 C 481.90 393.00 468.40 397.70 462.90 409.00 C 462.70 409.30 462.60 409.70 462.40 410.10 L 421.10 507.60 L 342.40 519.40 C 344.50 502.90 350.60 487.10 360.10 473.40 L 360.40 473.50 Z M 325.90 399.50 L 326.50 398.20 C 332.40 383.40 340.90 369.80 351.50 357.90 L 351.50 441.40 L 339.20 458.50 C 325.80 477.70 317.80 500.20 316.00 523.50 L 252.20 533.10 L 325.90 399.50 Z M 258.00 618.60 C 243.10 622.30 228.10 613.20 224.40 598.40 C 222.60 591.20 223.80 583.70 227.60 577.40 L 230.50 572.50 C 234.70 565.50 241.80 560.70 249.90 559.40 L 424.40 533.10 L 430.60 556.30 L 258.00 618.60 Z M 362.30 744.70 C 405.80 753.20 450.00 757.50 494.30 757.50 C 538.30 757.70 582.20 753.00 625.20 743.60 C 633.30 764.90 644.60 785.80 660.50 803.10 L 478.80 789.50 C 431.70 756.10 401.80 769.10 377.70 779.60 C 364.60 785.30 353.60 790.00 340.30 788.50 C 349.50 774.90 356.90 760.20 362.30 744.70 L 362.30 744.70 Z M 499.20 817.00 L 490.60 876.80 L 476.20 872.80 L 485.30 815.90 L 499.20 817.00 Z M 228.00 819.50 C 228.10 818.60 228.80 818.00 229.70 817.80 L 244.30 815.60 L 247.50 815.20 L 250.20 813.00 C 251.30 812.20 276.60 794.20 320.20 809.80 C 348.90 820.10 369.80 811.10 388.20 803.00 C 410.00 793.50 427.50 785.90 460.30 807.80 L 451.00 866.20 L 256.90 821.20 L 230.10 821.60 C 229.50 821.60 229.00 821.40 228.60 820.90 C 228.00 820.70 227.90 820.10 228.00 819.50 L 228.00 819.50 Z M 227.00 955.90 C 210.80 960.40 193.40 957.50 179.60 947.80 L 171.60 942.20 C 153.60 929.70 144.50 907.90 148.10 886.30 C 152.40 862.70 170.90 844.20 194.60 840.00 L 209.70 838.90 C 215.00 844.60 222.60 847.80 230.40 847.70 L 254.10 847.30 L 452.30 893.40 L 227.00 955.90 Z M 434.70 925.10 L 501.20 906.80 L 566.40 924.90 C 522.80 931.60 478.30 931.70 434.70 925.10 L 434.70 925.10 Z M 830.80 942.30 L 822.70 947.90 C 808.90 957.50 791.60 960.50 775.40 956.00 L 515.60 884.00 L 525.00 819.10 L 807.70 840.20 C 831.30 844.40 849.90 862.90 854.10 886.50 C 857.80 908.00 848.70 929.70 830.80 942.30 L 830.80 942.30 Z" fill="#142546" fill-rule="nonzero" node-id="54" stroke="none" target-height="943.91113" target-width="1024.3" target-x="0.1" target-y="39.8"></path><path d="M 508.00 697.10 C 508.00 705.20 501.50 711.80 493.30 711.80 C 485.20 711.80 478.60 705.30 478.60 697.10 C 478.60 688.90 485.10 682.40 493.30 682.40 C 493.30 682.40 493.30 682.40 493.30 682.40 C 501.50 682.50 508.00 689.00 508.00 697.10 Z" fill="#122546" fill-rule="nonzero" node-id="56" stroke="none" target-height="29.399963" target-width="29.399994" target-x="478.6" target-y="682.4"></path></svg>