<?xml version="1.0" standalone="no"?><!DOCTYPE svg PUBLIC "-//W3C//DTD SVG 1.1//EN" "http://www.w3.org/Graphics/SVG/1.1/DTD/svg11.dtd"><svg t="1681996878590" class="icon" viewBox="0 0 1024 1024" version="1.1" xmlns="http://www.w3.org/2000/svg" p-id="8680" xmlns:xlink="http://www.w3.org/1999/xlink" width="200" height="200"><path d="M2.184216 168.780299h1019.631568v712.64999H2.184216z" fill="#34CA9D" p-id="8681"></path><path d="M441.807252 124.599573H72.674811v686.042273h369.132441a72.079116 72.079116 0 0 1 72.178399 72.178398v-686.042272a72.079116 72.079116 0 0 0-72.178399-72.178399z" fill="#FFFFFF" p-id="8682"></path><path d="M533.842156 882.820244h-39.713011a52.321893 52.321893 0 0 0-52.321893-52.321892H52.818305v-725.755284h388.988947a92.134187 92.134187 0 0 1 92.034904 92.034904zM92.531317 790.78534h349.275935a91.637774 91.637774 0 0 1 52.321893 16.381618V196.777972a52.321893 52.321893 0 0 0-52.321893-52.321893H92.531317z" fill="#282D33" p-id="8683"></path><path d="M582.192748 124.599573H951.325189v686.042273H582.192748a72.079116 72.079116 0 0 0-72.178399 72.178398v-686.042272a72.079116 72.079116 0 0 1 72.178399-72.178399z" fill="#FFFFFF" p-id="8684"></path><path d="M529.870855 882.820244h-39.713011v-686.042272a92.134187 92.134187 0 0 1 92.034904-92.034904H971.181695v725.755284H582.192748a52.321893 52.321893 0 0 0-52.321893 52.321892z m52.321893-738.364165a52.321893 52.321893 0 0 0-52.321893 52.321893V807.166958a91.439209 91.439209 0 0 1 52.321893-16.381618H931.468683v-646.329261zM146.143882 199.85573h171.758775v39.713012H146.143882zM146.143882 311.548575h289.309288v39.713011H146.143882zM146.143882 393.456661h289.309288v39.713011H146.143882zM146.143882 475.364747h206.606942v39.713011H146.143882z" fill="#282D33" p-id="8685"></path><path d="M733.995734 833.97324a151.008726 151.008726 0 0 0-45.868528 6.949777l45.868528 125.095986 45.669963-125.095986a150.710878 150.710878 0 0 0-45.669963-6.949777z" fill="#FFFFFF" p-id="8686"></path><path d="M733.995734 1024l-71.582703-195.586581 19.856506-6.2548a175.035098 175.035098 0 0 1 103.452394 0l19.856506 6.2548z m-19.856506-168.780299l19.856506 52.917588 19.856506-52.917588a140.484778 140.484778 0 0 0-39.315882 0.198565z" fill="#282D33" p-id="8687"></path><path d="M664.100834 568.789606h139.491953v260.31879H664.100834z" fill="#F8C44F" p-id="8688"></path><path d="M683.063797 8.339732v50.63409h101.268179V8.339732c0-4.666279-4.964126-8.339732-11.119643-8.339732h-79.426023c-5.857669 0-10.821796 3.772736-10.722513 8.339732z" fill="#34CA9D" p-id="8689"></path><path d="M682.666667 56.789606h102.558852v70.391313H682.666667z" fill="#FFFFFF" p-id="8690"></path><path d="M805.082024 147.037425H662.810161V36.933101h142.271863z m-102.558852-39.713012h62.845841V76.646112h-62.845841z" fill="#282D33" p-id="8691"></path><path d="M803.692069 682.070971V146.640295H664.100834v543.770409l139.591235-8.339733z" fill="#F8C44F" p-id="8692"></path></svg>